<svg width="37" height="34" viewBox="0 0 37 34" fill="none" xmlns="http://www.w3.org/2000/svg">
<path d="M23.7767 0.613922H2.03866C1.29972 0.613922 0.700684 1.21204 0.700684 1.94986C0.700684 2.68768 1.29972 3.2858 2.03866 3.2858H23.7767C24.5157 3.2858 25.1147 2.68768 25.1147 1.94986C25.1147 1.21204 24.5157 0.613922 23.7767 0.613922Z" fill="white"/>
<path d="M23.7771 3.89768H2.03902C1.77573 3.90973 1.51273 3.86828 1.26591 3.77583C1.01909 3.68338 0.793575 3.54185 0.602992 3.35979C0.412409 3.17773 0.260716 2.95893 0.157075 2.71659C0.0534348 2.47426 0 2.21343 0 1.94986C0 1.68629 0.0534348 1.42546 0.157075 1.18313C0.260716 0.940796 0.412409 0.72199 0.602992 0.539931C0.793575 0.357873 1.01909 0.216342 1.26591 0.123891C1.51273 0.0314403 1.77573 -0.0100124 2.03902 0.00203967H23.7771C24.0404 -0.0100124 24.3034 0.0314403 24.5502 0.123891C24.797 0.216342 25.0225 0.357873 25.2131 0.539931C25.4037 0.72199 25.5554 0.940796 25.659 1.18313C25.7627 1.42546 25.8161 1.68629 25.8161 1.94986C25.8161 2.21343 25.7627 2.47426 25.659 2.71659C25.5554 2.95893 25.4037 3.17773 25.2131 3.35979C25.0225 3.54185 24.797 3.68338 24.5502 3.77583C24.3034 3.86828 24.0404 3.90973 23.7771 3.89768ZM2.03902 1.2258C1.93937 1.21832 1.83924 1.23148 1.74491 1.26448C1.65058 1.29747 1.56407 1.34958 1.49081 1.41755C1.41755 1.48552 1.3591 1.56788 1.31913 1.65947C1.27917 1.75107 1.25854 1.84993 1.25854 1.94986C1.25854 2.0498 1.27917 2.14865 1.31913 2.24025C1.3591 2.33184 1.41755 2.4142 1.49081 2.48217C1.56407 2.55014 1.65058 2.60225 1.74491 2.63524C1.83924 2.66824 1.93937 2.68141 2.03902 2.67392H23.7771C23.8768 2.68141 23.9769 2.66824 24.0712 2.63524C24.1655 2.60225 24.2521 2.55014 24.3253 2.48217C24.3986 2.4142 24.457 2.33184 24.497 2.24025C24.537 2.14865 24.5576 2.0498 24.5576 1.94986C24.5576 1.84993 24.537 1.75107 24.497 1.65947C24.457 1.56788 24.3986 1.48552 24.3253 1.41755C24.2521 1.34958 24.1655 1.29747 24.0712 1.26448C23.9769 1.23148 23.8768 1.21832 23.7771 1.2258H2.03902Z" fill="#25ADF2"/>
<path d="M1.521 1.0912H20.6933C21.7643 1.0912 22.7915 1.51668 23.5488 2.27403C24.3062 3.03137 24.7317 4.05856 24.7317 5.12961V30.6328C24.7308 30.7397 24.7018 30.8445 24.6476 30.9366C24.5933 31.0287 24.5157 31.1048 24.4227 31.1574C24.3296 31.2099 24.2243 31.237 24.1174 31.2358C24.0105 31.2347 23.9058 31.2054 23.8138 31.1509L22.4065 30.3065C22.3067 30.248 22.1922 30.2192 22.0766 30.2236C21.961 30.2279 21.849 30.2652 21.7539 30.3309L20.1222 31.465C20.0222 31.5327 19.9043 31.5688 19.7836 31.5688C19.6629 31.5688 19.545 31.5327 19.445 31.465L17.7195 30.3228C17.6204 30.2568 17.5041 30.2216 17.385 30.2216C17.266 30.2216 17.1496 30.2568 17.0505 30.3228L15.3209 31.469C15.2223 31.5341 15.1067 31.5688 14.9885 31.5688C14.8703 31.5688 14.7547 31.5341 14.656 31.469L13.004 30.3921C12.9049 30.3262 12.7885 30.291 12.6695 30.291C12.5504 30.291 12.4341 30.3262 12.335 30.3921L10.7645 31.4527C10.6658 31.5197 10.5493 31.5555 10.43 31.5555C10.3107 31.5555 10.1942 31.5197 10.0955 31.4527L8.42709 30.3636C8.3303 30.3036 8.21869 30.2718 8.10483 30.2718C7.99097 30.2718 7.87937 30.3036 7.78258 30.3636L6.5017 31.6159C6.40976 31.6704 6.30507 31.6997 6.19818 31.7009C6.09129 31.702 5.98599 31.675 5.8929 31.6224C5.79981 31.5699 5.72223 31.4937 5.66797 31.4016C5.61372 31.3095 5.58471 31.2047 5.58388 31.0978V14.4628L5.46966 5.29278C5.45609 4.23094 5.04742 3.21225 4.32339 2.43542C3.59935 1.65859 2.61189 1.17936 1.55363 1.0912H1.521Z" fill="white"/>
<path d="M6.1551 32.3298C5.94425 32.3298 5.73722 32.2734 5.55546 32.1666C5.36914 32.06 5.21415 31.9062 5.10604 31.7208C4.99792 31.5353 4.94049 31.3247 4.9395 31.1101V14.4628L4.82528 5.30095C4.81788 4.39046 4.46939 3.51583 3.84861 2.84974C3.22783 2.18365 2.37988 1.77451 1.47217 1.70309C1.30989 1.6966 1.15684 1.62591 1.04668 1.50657C0.936516 1.38723 0.878276 1.22901 0.884767 1.06673C0.891258 0.90445 0.961949 0.751394 1.08129 0.641234C1.20063 0.531074 1.35884 0.472835 1.52112 0.479326H20.6934C21.9264 0.480406 23.1086 0.970693 23.9804 1.84256C24.8523 2.71442 25.3426 3.89662 25.3437 5.12962V30.6328C25.3418 30.8475 25.2835 31.0579 25.1745 31.243C25.0656 31.428 24.9099 31.5811 24.7231 31.6869C24.5362 31.7927 24.3249 31.8475 24.1102 31.8458C23.8955 31.8441 23.685 31.7859 23.4999 31.6771L22.0966 30.8327L20.465 31.9708C20.2634 32.1058 20.0263 32.1779 19.7837 32.1779C19.5411 32.1779 19.304 32.1058 19.1025 31.9708L17.377 30.8286L15.627 31.983C15.4281 32.1129 15.1956 32.1821 14.958 32.1821C14.7204 32.1821 14.488 32.1129 14.289 31.983L12.6574 30.9061L11.0828 31.983C10.883 32.1146 10.649 32.1847 10.4097 32.1847C10.1705 32.1847 9.93645 32.1146 9.73664 31.983L8.08456 30.9061L6.90159 32.0564C6.86855 32.0894 6.83156 32.1182 6.79146 32.1421C6.60066 32.2621 6.38045 32.327 6.1551 32.3298ZM4.42552 1.70309C4.93229 2.15322 5.33926 2.70441 5.62027 3.32123C5.90128 3.93805 6.05011 4.60685 6.0572 5.28463L6.16326 14.4424V31.057L7.32175 29.9434C7.35625 29.9104 7.3946 29.8816 7.43597 29.8578C7.63001 29.737 7.85398 29.673 8.08252 29.673C8.31106 29.673 8.53504 29.737 8.72908 29.8578L10.3975 30.951L11.9598 29.8863C12.1596 29.7547 12.3936 29.6846 12.6329 29.6846C12.8721 29.6846 13.1061 29.7547 13.3059 29.8863L14.9376 30.9591L16.6591 29.8129C16.8589 29.6813 17.0929 29.6112 17.3321 29.6112C17.5714 29.6112 17.8054 29.6813 18.0052 29.8129L19.7307 30.9551L21.3624 29.817C21.5548 29.686 21.7805 29.6125 22.0132 29.6053C22.2458 29.5981 22.4757 29.6574 22.6759 29.7762L24.0832 30.6165V5.12146C24.0821 4.21302 23.7208 3.34209 23.0784 2.69973C22.436 2.05736 21.5651 1.69601 20.6567 1.69493L4.42552 1.70309Z" fill="#25ADF2"/>
<path d="M17.2014 6.80617H10.3116C10.1493 6.80617 9.99367 6.74171 9.87892 6.62696C9.76417 6.51221 9.69971 6.35657 9.69971 6.19429C9.69971 6.03201 9.76417 5.87638 9.87892 5.76163C9.99367 5.64688 10.1493 5.58241 10.3116 5.58241H17.2014C17.3636 5.58241 17.5193 5.64688 17.634 5.76163C17.7488 5.87638 17.8132 6.03201 17.8132 6.19429C17.8132 6.35657 17.7488 6.51221 17.634 6.62696C17.5193 6.74171 17.3636 6.80617 17.2014 6.80617Z" fill="#25ADF2"/>
<path d="M21.7783 6.89182H20.6524C20.4901 6.89182 20.3345 6.82735 20.2197 6.7126C20.105 6.59786 20.0405 6.44222 20.0405 6.27994C20.0405 6.11766 20.105 5.96203 20.2197 5.84728C20.3345 5.73253 20.4901 5.66806 20.6524 5.66806H21.7783C21.9406 5.66806 22.0962 5.73253 22.2109 5.84728C22.3257 5.96203 22.3902 6.11766 22.3902 6.27994C22.3902 6.44222 22.3257 6.59786 22.2109 6.7126C22.0962 6.82735 21.9406 6.89182 21.7783 6.89182Z" fill="#25ADF2"/>
<path d="M17.2014 12.8108H10.3116C10.1493 12.8108 9.99367 12.7463 9.87892 12.6315C9.76417 12.5168 9.69971 12.3612 9.69971 12.1989C9.69971 12.0366 9.76417 11.881 9.87892 11.7662C9.99367 11.6515 10.1493 11.587 10.3116 11.587H17.2014C17.3636 11.587 17.5193 11.6515 17.634 11.7662C17.7488 11.881 17.8132 12.0366 17.8132 12.1989C17.8132 12.3612 17.7488 12.5168 17.634 12.6315C17.5193 12.7463 17.3636 12.8108 17.2014 12.8108Z" fill="#25ADF2"/>
<path d="M21.7783 12.9005H20.6524C20.4901 12.9005 20.3345 12.836 20.2197 12.7213C20.105 12.6065 20.0405 12.4509 20.0405 12.2886C20.0405 12.1263 20.105 11.9707 20.2197 11.8559C20.3345 11.7412 20.4901 11.6767 20.6524 11.6767H21.7783C21.9406 11.6767 22.0962 11.7412 22.2109 11.8559C22.3257 11.9707 22.3902 12.1263 22.3902 12.2886C22.3902 12.4509 22.3257 12.6065 22.2109 12.7213C22.0962 12.836 21.9406 12.9005 21.7783 12.9005Z" fill="#25ADF2"/>
<path d="M17.2014 18.8153H10.3116C10.1493 18.8153 9.99367 18.7509 9.87892 18.6361C9.76417 18.5214 9.69971 18.3657 9.69971 18.2034C9.69971 18.0412 9.76417 17.8855 9.87892 17.7708C9.99367 17.656 10.1493 17.5916 10.3116 17.5916H17.2014C17.3636 17.5916 17.5193 17.656 17.634 17.7708C17.7488 17.8855 17.8132 18.0412 17.8132 18.2034C17.8132 18.3657 17.7488 18.5214 17.634 18.6361C17.5193 18.7509 17.3636 18.8153 17.2014 18.8153Z" fill="#25ADF2"/>
<path d="M13.9382 24.824H10.3077C10.1454 24.824 9.98977 24.7595 9.87502 24.6448C9.76027 24.53 9.6958 24.3744 9.6958 24.2121C9.6958 24.0498 9.76027 23.8942 9.87502 23.7795C9.98977 23.6647 10.1454 23.6002 10.3077 23.6002H13.9382C14.1005 23.6002 14.2561 23.6647 14.3708 23.7795C14.4856 23.8942 14.5501 24.0498 14.5501 24.2121C14.5501 24.3744 14.4856 24.53 14.3708 24.6448C14.2561 24.7595 14.1005 24.824 13.9382 24.824Z" fill="#25ADF2"/>
<path d="M21.7783 24.9138H20.6524C20.4901 24.9138 20.3345 24.8493 20.2197 24.7346C20.105 24.6198 20.0405 24.4642 20.0405 24.3019C20.0405 24.1396 20.105 23.984 20.2197 23.8692C20.3345 23.7545 20.4901 23.69 20.6524 23.69H21.7783C21.9406 23.69 22.0962 23.7545 22.2109 23.8692C22.3257 23.984 22.3902 24.1396 22.3902 24.3019C22.3902 24.4642 22.3257 24.6198 22.2109 24.7346C22.0962 24.8493 21.9406 24.9138 21.7783 24.9138Z" fill="#25ADF2"/>
<path d="M22.7154 25.7725C25.9978 25.7725 28.6588 23.1116 28.6588 19.8291C28.6588 16.5467 25.9978 13.8857 22.7154 13.8857C19.4329 13.8857 16.772 16.5467 16.772 19.8291C16.772 23.1116 19.4329 25.7725 22.7154 25.7725Z" fill="white"/>
<path d="M22.715 26.7923C21.5737 26.7889 20.4508 26.505 19.4449 25.9657C18.4391 25.4263 17.5813 24.648 16.947 23.6992C16.3127 22.7504 15.9213 21.6603 15.8073 20.5247C15.6933 19.3891 15.8602 18.2429 16.2932 17.187C16.7263 16.131 17.4122 15.1977 18.2908 14.4692C19.1693 13.7406 20.2134 13.2392 21.3312 13.009C22.4491 12.7788 23.6064 12.8269 24.7012 13.1491C25.7961 13.4713 26.795 14.0576 27.61 14.8565C28.599 15.826 29.2764 17.0683 29.5558 18.4247C29.8351 19.7811 29.7036 21.19 29.1781 22.4713C28.6526 23.7526 27.757 24.8481 26.6058 25.6178C25.4545 26.3875 24.0999 26.7964 22.715 26.7923ZM22.715 14.9055H22.6661C21.3602 14.9114 20.1103 15.4359 19.1911 16.3634C18.272 17.291 17.7589 18.5457 17.7649 19.8515C17.7708 21.1573 18.2953 22.4073 19.2228 23.3265C20.1504 24.2456 21.4051 24.7586 22.7109 24.7527H22.7599C23.4064 24.7484 24.0457 24.616 24.6409 24.3633C25.236 24.1105 25.7751 23.7424 26.2272 23.2801C27.1427 22.3498 27.652 21.0944 27.6436 19.7892C27.6352 18.484 27.1097 17.2354 26.1823 16.3169C25.2592 15.4056 24.0121 14.898 22.715 14.9055Z" fill="white"/>
<path d="M22.7111 26.3844C21.6358 26.3841 20.5771 26.1193 19.6282 25.6132C18.6794 25.1072 17.8696 24.3756 17.2703 23.4827C16.671 22.5899 16.3005 21.5634 16.1915 20.4936C16.0825 19.4238 16.2383 18.3436 16.6453 17.3483C17.0522 16.3529 17.6978 15.473 18.5251 14.786C19.3524 14.099 20.3359 13.6261 21.3891 13.4089C22.4423 13.1918 23.5327 13.237 24.5642 13.5407C25.5958 13.8444 26.5368 14.3971 27.3043 15.1503C28.2297 16.0583 28.8651 17.2202 29.1301 18.4893C29.3952 19.7584 29.278 21.0775 28.7933 22.28C28.3087 23.4824 27.4784 24.5142 26.4074 25.2448C25.3364 25.9753 24.0728 26.3719 22.7764 26.3844H22.7111ZM22.7111 14.4976C21.4743 14.4969 20.2757 14.926 19.3202 15.7113C18.3648 16.4967 17.7118 17.5896 17.473 18.8031C17.2343 20.0167 17.4245 21.2755 18.0112 22.3643C18.5979 23.4531 19.5446 24.3042 20.6895 24.7722C21.8344 25.2401 23.1062 25.2958 24.2876 24.9297C25.469 24.5636 26.4865 23.7985 27.1661 22.7651C27.8458 21.7318 28.1453 20.4944 28.0135 19.2646C27.8817 18.0349 27.3268 16.8891 26.4436 16.0232C25.4499 15.0441 24.1103 14.4959 22.7152 14.4976H22.7111Z" fill="#12ADF6"/>
<path d="M22.7113 27.4042C20.7001 27.4134 18.7676 26.6233 17.3389 25.2077C15.9103 23.792 15.1025 21.8668 15.0933 19.8556C15.0841 17.8444 15.8743 15.912 17.2899 14.4833C18.7055 13.0547 20.6307 12.2469 22.6419 12.2377H22.6623C24.1582 12.2292 25.6232 12.6636 26.8728 13.4861C28.1223 14.3087 29.1004 15.4826 29.684 16.86C30.2676 18.2374 30.4305 19.7568 30.1523 21.2266C29.874 22.6965 29.167 24.0511 28.1203 25.1199C27.4257 25.8328 26.5963 26.4005 25.6803 26.7898C24.7643 27.1792 23.78 27.3825 22.7847 27.3879L22.7113 27.4042ZM22.7113 15.5174C21.7117 15.5196 20.744 15.869 19.9736 16.5058C19.2032 17.1426 18.678 18.0272 18.4877 19.0085C18.2975 19.9898 18.4541 21.0066 18.9307 21.8852C19.4073 22.7638 20.1744 23.4494 21.1007 23.825C22.027 24.2005 23.055 24.2425 24.0089 23.9439C24.9627 23.6453 25.7832 23.0245 26.33 22.1878C26.8768 21.3511 27.1159 20.3504 27.0064 19.3569C26.8969 18.3634 26.4457 17.4388 25.7299 16.7412C24.928 15.9463 23.8444 15.5006 22.7153 15.5011L22.7113 15.5174Z" fill="white"/>
<path d="M27.6683 23.5331L26.5083 24.7151L30.1244 28.2637L31.2844 27.0816L27.6683 23.5331Z" fill="white"/>
<path d="M27.655 22.0909L25.0664 24.7287L30.1382 29.7058L32.7268 27.068L27.655 22.0909Z" fill="white"/>
<path d="M30.127 28.8727C29.9737 28.8682 29.8278 28.8055 29.7191 28.6973L26.1008 25.1484C25.9862 25.0337 25.9219 24.8782 25.9219 24.716C25.9219 24.5539 25.9862 24.3984 26.1008 24.2836L27.2593 23.1007C27.3745 22.9862 27.5294 22.9205 27.6917 22.9171C27.772 22.915 27.8518 22.9295 27.9262 22.9597C28.0006 22.9899 28.068 23.0351 28.1241 23.0925L31.7424 26.6455C31.8 26.701 31.8459 26.7675 31.8775 26.8411C31.909 26.9147 31.9255 26.9938 31.9259 27.0738C31.9266 27.2366 31.8637 27.3932 31.7505 27.5103L30.592 28.6892C30.5318 28.7508 30.4593 28.799 30.3791 28.8306C30.299 28.8623 30.2131 28.8766 30.127 28.8727ZM27.3735 24.7038L30.1188 27.3961L30.4207 27.0901L27.6754 24.3978L27.3735 24.7038Z" fill="#12ADF6"/>
<path d="M30.127 29.8925C29.6981 29.8929 29.2863 29.7243 28.9807 29.4234L25.3666 25.8786C25.2133 25.7284 25.0913 25.5495 25.0073 25.3521C24.9233 25.1548 24.879 24.9428 24.877 24.7282C24.8724 24.2957 25.0396 23.879 25.3421 23.5697L26.5047 22.3868C26.7975 22.0896 27.1931 21.9159 27.6101 21.9014C27.8315 21.8896 28.0529 21.9249 28.2597 22.0051C28.4664 22.0853 28.6538 22.2084 28.8094 22.3664L32.4277 25.9153C32.5807 26.0655 32.7027 26.2444 32.7865 26.4417C32.8704 26.6391 32.9145 26.851 32.9164 27.0655C32.9183 27.2799 32.8779 27.4926 32.7976 27.6914C32.7172 27.8902 32.5984 28.0712 32.4481 28.2241L31.2896 29.403C31.1391 29.5592 30.9584 29.6831 30.7586 29.7672C30.5587 29.8514 30.3438 29.894 30.127 29.8925Z" fill="white"/>
<path d="M29.5343 26.0648L29.0771 26.5307C28.6842 26.931 28.6903 27.5741 29.0907 27.967L32.3137 31.1299C32.7141 31.5228 33.3572 31.5167 33.7501 31.1163L34.2072 30.6505C34.6001 30.2501 34.5941 29.607 34.1937 29.2141L30.9707 26.0513C30.5703 25.6584 29.9272 25.6644 29.5343 26.0648Z" fill="white"/>
<path d="M33.023 32.438C32.4891 32.4379 31.9765 32.2284 31.5953 31.8546L28.3727 28.6932C27.9878 28.3147 27.7686 27.799 27.7633 27.2592C27.7579 26.7193 27.9668 26.1994 28.3442 25.8133L28.8051 25.3483C29.1826 24.9707 29.6931 24.7563 30.227 24.7509C30.7609 24.7456 31.2756 24.9498 31.6606 25.3197L34.8831 28.4852C35.2607 28.8627 35.4752 29.3732 35.4805 29.9071C35.4858 30.441 35.2816 30.9557 34.9117 31.3406L34.4752 31.8179C34.2865 32.0126 34.0609 32.1677 33.8116 32.2742C33.5622 32.3806 33.2941 32.4363 33.023 32.438ZM30.2614 26.776L29.8086 27.241L33.0312 30.3983L33.484 29.9333L30.2614 26.776Z" fill="white"/>
<path d="M33.0235 32.03C32.5966 32.0304 32.1865 31.8634 31.8813 31.565L28.6587 28.3995C28.3535 28.0979 28.1793 27.6882 28.174 27.2591C28.1686 26.83 28.3325 26.4161 28.6302 26.107L29.087 25.642C29.3895 25.3348 29.8013 25.1598 30.2323 25.1552C30.6634 25.1506 31.0788 25.3168 31.3877 25.6175L34.6103 28.783C34.9187 29.0852 35.0947 29.4974 35.0998 29.9292C35.1034 30.3603 34.9362 30.7754 34.6348 31.0836L34.1738 31.5487C33.8725 31.8561 33.462 32.032 33.0316 32.0382L33.0235 32.03ZM30.2619 26.3681C30.2079 26.3683 30.1545 26.3792 30.1048 26.4002C30.0551 26.4212 30.01 26.4519 29.9722 26.4904L29.5154 26.9555C29.4406 27.0317 29.3987 27.1342 29.3987 27.241C29.3987 27.3478 29.4406 27.4503 29.5154 27.5266L32.7379 30.692C32.8142 30.7668 32.9167 30.8086 33.0235 30.8086C33.1302 30.8086 33.2328 30.7668 33.309 30.692L33.77 30.227C33.8438 30.1504 33.8848 30.0479 33.8842 29.9415C33.8827 29.8339 33.8387 29.7312 33.7618 29.6559L30.5392 26.4945C30.4666 26.4181 30.3672 26.3728 30.2619 26.3681Z" fill="#12ADF6"/>
<path d="M33.0439 33.0416C32.3494 33.0432 31.6824 32.7705 31.1878 32.2829L27.9653 29.1215C27.4656 28.6288 27.1813 27.9584 27.1744 27.2567C27.1676 26.5551 27.4387 25.8792 27.9285 25.3768L28.3895 24.9118C28.6304 24.6587 28.9193 24.4561 29.2394 24.316C29.5595 24.1759 29.9043 24.1011 30.2537 24.0959H30.2618C30.6065 24.0993 30.9471 24.1706 31.2641 24.3057C31.5812 24.4408 31.8685 24.637 32.1097 24.8832L35.3323 28.0487C35.581 28.2915 35.7793 28.581 35.9159 28.9007C36.0524 29.2203 36.1244 29.5638 36.1278 29.9114C36.1312 30.259 36.066 30.6038 35.9357 30.926C35.8055 31.2483 35.6129 31.5417 35.369 31.7893L34.9121 32.2544C34.6711 32.5073 34.3822 32.7097 34.0621 32.8498C33.742 32.9899 33.3973 33.0648 33.0479 33.0702L33.0439 33.0416Z" fill="white"/>
<path d="M22.7154 25.7725C25.9978 25.7725 28.6588 23.1116 28.6588 19.8291C28.6588 16.5467 25.9978 13.8857 22.7154 13.8857C19.4329 13.8857 16.772 16.5467 16.772 19.8291C16.772 23.1116 19.4329 25.7725 22.7154 25.7725Z" fill="white"/>
<path d="M22.7109 26.3844C21.8501 26.3884 20.9969 26.2228 20.2 25.8971C19.4032 25.5714 18.6783 25.0919 18.0667 24.486C16.8316 23.2624 16.1332 21.5983 16.1251 19.8597C16.117 18.1211 16.7998 16.4506 18.0234 15.2155C19.2471 13.9804 20.9112 13.2819 22.6498 13.2738H22.715C24.4325 13.2687 26.0823 13.9433 27.3041 15.1503C28.2295 16.0582 28.8649 17.2202 29.13 18.4893C29.395 19.7584 29.2778 21.0775 28.7931 22.28C28.3085 23.4824 27.4782 24.5142 26.4072 25.2447C25.3362 25.9753 24.0726 26.3719 22.7762 26.3844H22.7109ZM22.7109 14.4976C21.4741 14.4969 20.2755 14.926 19.3201 15.7113C18.3646 16.4967 17.7116 17.5896 17.4729 18.8031C17.2341 20.0167 17.4243 21.2754 18.011 22.3642C18.5977 23.453 19.5445 24.3042 20.6893 24.7721C21.8342 25.2401 23.1061 25.2958 24.2874 24.9297C25.4688 24.5636 26.4863 23.7984 27.166 22.7651C27.8456 21.7317 28.1451 20.4944 28.0133 19.2646C27.8815 18.0349 27.3266 16.8891 26.4434 16.0232C25.4497 15.044 24.1101 14.4959 22.715 14.4976H22.7109Z" fill="#12ADF6"/>
<path d="M27.6683 23.5331L26.5083 24.7151L30.1244 28.2637L31.2844 27.0816L27.6683 23.5331Z" fill="white"/>
<path d="M30.127 28.8727C29.9737 28.8682 29.8278 28.8055 29.7191 28.6973L26.1008 25.1484C25.9862 25.0337 25.9219 24.8782 25.9219 24.716C25.9219 24.5539 25.9862 24.3984 26.1008 24.2836L27.2593 23.1007C27.3745 22.9862 27.5294 22.9205 27.6917 22.9171C27.7721 22.9137 27.8523 22.9276 27.9269 22.9579C28.0015 22.9881 28.0688 23.034 28.1241 23.0925L31.7424 26.6455C31.8 26.701 31.8459 26.7675 31.8775 26.8411C31.909 26.9146 31.9255 26.9938 31.9259 27.0738C31.9266 27.2366 31.8637 27.3932 31.7505 27.5103L30.592 28.6892C30.5318 28.7508 30.4593 28.799 30.3791 28.8306C30.299 28.8622 30.2131 28.8766 30.127 28.8727ZM27.3735 24.7038L30.1188 27.3961L30.4207 27.0901L27.6754 24.3978L27.3735 24.7038Z" fill="#12ADF6"/>
<path d="M29.5343 26.0648L29.0771 26.5307C28.6842 26.931 28.6903 27.5741 29.0907 27.967L32.3137 31.1299C32.7141 31.5228 33.3572 31.5167 33.7501 31.1163L34.2072 30.6505C34.6001 30.2501 34.5941 29.607 34.1937 29.2141L30.9707 26.0513C30.5703 25.6584 29.9272 25.6644 29.5343 26.0648Z" fill="white"/>
<path d="M33.0235 32.03C32.5966 32.0304 32.1865 31.8634 31.8813 31.565L28.6587 28.3995C28.3535 28.0979 28.1793 27.6882 28.174 27.2591C28.1686 26.83 28.3325 26.4161 28.6302 26.107L29.087 25.642C29.3895 25.3348 29.8013 25.1598 30.2323 25.1552C30.6634 25.1506 31.0788 25.3168 31.3877 25.6175L34.6103 28.783C34.9187 29.0852 35.0947 29.4974 35.0998 29.9292C35.1034 30.3603 34.9362 30.7754 34.6348 31.0836L34.1738 31.5487C33.8725 31.8561 33.462 32.032 33.0316 32.0382L33.0235 32.03ZM30.2619 26.3681C30.2079 26.3683 30.1545 26.3792 30.1048 26.4002C30.0551 26.4212 30.01 26.4519 29.9722 26.4904L29.5154 26.9555C29.4406 27.0317 29.3987 27.1342 29.3987 27.241C29.3987 27.3478 29.4406 27.4503 29.5154 27.5266L32.7379 30.692C32.8142 30.7668 32.9167 30.8086 33.0235 30.8086C33.1302 30.8086 33.2328 30.7668 33.309 30.692L33.77 30.227C33.8438 30.1504 33.8848 30.0479 33.8842 29.9415C33.8827 29.8339 33.8387 29.7312 33.7618 29.6559L30.5392 26.4945C30.4666 26.4181 30.3672 26.3728 30.2619 26.3681Z" fill="#12ADF6"/>
</svg>
