<svg width="36" height="35" viewBox="0 0 36 35" fill="none" xmlns="http://www.w3.org/2000/svg">
<path d="M26.2024 33.5829C24.7915 33.5813 23.4087 33.1879 22.2082 32.4468C21.0076 31.7056 20.0364 30.6456 19.4028 29.385C19.1973 28.9751 19.0285 28.5478 18.8984 28.1081C18.5214 26.8298 18.4882 25.4747 18.802 24.1795C19.1159 22.8842 19.7658 21.6947 20.6861 20.7307C21.5538 19.8174 22.6347 19.1337 23.8318 18.7411C25.0289 18.3484 26.3048 18.2592 27.5449 18.4812C28.785 18.7032 29.9506 19.2297 30.9371 20.0133C31.9236 20.7969 32.7001 21.8131 33.197 22.9708C33.6939 24.1285 33.8957 25.3915 33.7841 26.6464C33.6725 27.9013 33.2512 29.1088 32.5579 30.1607C31.8645 31.2126 30.9209 32.0759 29.8117 32.6732C28.7024 33.2705 27.4622 33.5831 26.2024 33.5829Z" fill="white"/>
<path d="M28.2964 2.34314H26.5215V1.23541C26.5054 0.918207 26.368 0.619314 26.1378 0.400498C25.9076 0.181683 25.6021 0.0596678 25.2845 0.0596678C24.9669 0.0596678 24.6614 0.181683 24.4312 0.400498C24.201 0.619314 24.0636 0.918207 24.0475 1.23541V2.34314H7.60722V1.23541C7.60722 0.907762 7.47705 0.593529 7.24537 0.361844C7.01368 0.130159 6.69945 0 6.3718 0C6.04415 0 5.72992 0.130159 5.49823 0.361844C5.26655 0.593529 5.13639 0.907762 5.13639 1.23541V2.34314H2.39421C1.07261 2.34314 0 3.53067 0 4.99273V26.7322C0 28.1943 1.07261 29.385 2.39421 29.385H16.121C15.979 28.9669 15.8628 28.5404 15.7731 28.1081H2.39421C1.7781 28.1081 1.27691 27.492 1.27691 26.7322V9.81308H29.4137V15.8178C29.8493 15.9582 30.2758 16.1256 30.6906 16.319V4.99273C30.6906 3.53067 29.6148 2.34314 28.2964 2.34314ZM1.27691 8.54575V4.99273C1.27691 4.23616 1.7781 3.62005 2.39421 3.62005H5.13319V4.76608C5.13319 5.09373 5.26335 5.40796 5.49504 5.63965C5.72672 5.87133 6.04096 6.00149 6.36861 6.00149C6.69626 6.00149 7.01049 5.87133 7.24218 5.63965C7.47386 5.40796 7.60402 5.09373 7.60402 4.76608V3.62005H24.0315V4.76608C24.0476 5.08329 24.185 5.38218 24.4152 5.601C24.6454 5.81981 24.9509 5.94183 25.2685 5.94183C25.5861 5.94183 25.8916 5.81981 26.1218 5.601C26.3521 5.38218 26.4894 5.08329 26.5055 4.76608V3.62005H28.2932C28.9093 3.62005 29.4105 4.23616 29.4105 4.99273V8.54575H1.27691Z" fill="#FF6F6F"/>
<path d="M8.99266 12.3413H4.81396C4.37143 12.3413 4.0127 12.7 4.0127 13.1426V16.2902C4.0127 16.7327 4.37143 17.0914 4.81396 17.0914H8.99266C9.43518 17.0914 9.79392 16.7327 9.79392 16.2902V13.1426C9.79392 12.7 9.43518 12.3413 8.99266 12.3413Z" fill="#FFDCDC"/>
<path d="M17.3276 12.3413H13.1489C12.7064 12.3413 12.3477 12.7 12.3477 13.1426V16.2902C12.3477 16.7327 12.7064 17.0914 13.1489 17.0914H17.3276C17.7701 17.0914 18.1289 16.7327 18.1289 16.2902V13.1426C18.1289 12.7 17.7701 12.3413 17.3276 12.3413Z" fill="#FFDCDC"/>
<path d="M26.4609 15.3261V13.1426C26.4609 12.9301 26.3765 12.7263 26.2262 12.576C26.076 12.4257 25.8722 12.3413 25.6597 12.3413H21.481C21.2685 12.3413 21.0646 12.4257 20.9144 12.576C20.7641 12.7263 20.6797 12.9301 20.6797 13.1426V16.287C20.6789 16.4618 20.7374 16.6317 20.8457 16.769C22.4703 15.8174 24.3196 15.3171 26.2023 15.3197L26.4609 15.3261Z" fill="#FFDCDC"/>
<path d="M8.99266 19.5847H4.81396C4.37143 19.5847 4.0127 19.9435 4.0127 20.386V23.5336C4.0127 23.9761 4.37143 24.3348 4.81396 24.3348H8.99266C9.43518 24.3348 9.79392 23.9761 9.79392 23.5336V20.386C9.79392 19.9435 9.43518 19.5847 8.99266 19.5847Z" fill="#FFDCDC"/>
<path d="M17.3277 19.5847H13.149C12.9365 19.5847 12.7327 19.6691 12.5824 19.8194C12.4321 19.9697 12.3477 20.1735 12.3477 20.386V23.5336C12.3464 23.6396 12.3662 23.7448 12.4059 23.8431C12.4456 23.9415 12.5045 24.0309 12.579 24.1064C12.6535 24.1818 12.7423 24.2417 12.8401 24.2825C12.938 24.3234 13.0429 24.3444 13.149 24.3444H15.6677C15.9335 22.6471 16.606 21.0393 17.6278 19.6581C17.5339 19.6132 17.4317 19.5882 17.3277 19.5847Z" fill="#FFDCDC"/>
<path d="M30.6907 18.3014C30.2826 18.0606 29.8556 17.8535 29.4138 17.6821C27.8751 17.0812 26.1989 16.9227 24.5748 17.2245C22.9507 17.5263 21.4434 18.2764 20.2232 19.3899C20.1179 19.4857 20.0125 19.5815 19.904 19.6836C19.7188 19.8688 19.5433 20.0603 19.3773 20.2582C18.8727 20.8609 18.4498 21.5274 18.1195 22.2406C17.5801 23.4087 17.2991 24.6794 17.2959 25.966C17.2963 26.688 17.3842 27.4072 17.5577 28.1081C17.6668 28.5434 17.8076 28.9702 17.979 29.385C18.6394 30.9671 19.7429 32.3247 21.1569 33.2942C22.5708 34.2638 24.2348 34.804 25.9486 34.8499C27.6624 34.8957 29.3529 34.4453 30.8167 33.5528C32.2804 32.6602 33.455 31.3637 34.199 29.8191C34.7808 28.6181 35.082 27.3005 35.0801 25.966C35.0794 24.4168 34.674 22.8947 33.9042 21.5503C33.1343 20.2059 32.0266 19.086 30.6907 18.3014ZM26.2024 33.5828C24.7915 33.5812 23.4087 33.1879 22.2082 32.4467C21.0076 31.7055 20.0364 30.6456 19.4028 29.385C19.1973 28.9751 19.0285 28.5478 18.8984 28.1081C18.5214 26.8298 18.4882 25.4747 18.802 24.1794C19.1159 22.8842 19.7658 21.6946 20.6861 20.7307C21.5538 19.8173 22.6347 19.1336 23.8318 18.741C25.0289 18.3484 26.3048 18.2591 27.5449 18.4811C28.785 18.7032 29.9506 19.2296 30.9371 20.0132C31.9236 20.7968 32.7001 21.8131 33.197 22.9708C33.6939 24.1285 33.8956 25.3914 33.7841 26.6463C33.6725 27.9012 33.2512 29.1088 32.5579 30.1607C31.8645 31.2126 30.9209 32.0759 29.8116 32.6732C28.7024 33.2705 27.4622 33.583 26.2024 33.5828Z" fill="#FF6F6F"/>
<path d="M26.4131 19.9295C26.3833 19.9278 26.3535 19.9278 26.3237 19.9295C26.129 19.9501 25.9488 20.042 25.8179 20.1876C25.687 20.3333 25.6147 20.5222 25.615 20.718V25.4458L22.5536 26.8536C22.3619 26.9431 22.2134 27.1047 22.1405 27.3033C22.0675 27.5018 22.076 27.7211 22.1641 27.9134C22.1952 27.9801 22.2349 28.0423 22.2823 28.0986C22.3572 28.1863 22.4502 28.2568 22.5548 28.3053C22.6595 28.3538 22.7734 28.3791 22.8888 28.3795C22.9991 28.3767 23.1076 28.3518 23.208 28.3061L23.6581 28.0986L26.7323 26.6812C26.8712 26.6177 26.9889 26.5156 27.0715 26.3872C27.1541 26.2587 27.1982 26.1093 27.1984 25.9566V20.7276C27.1984 20.5181 27.1161 20.3171 26.9692 20.1677C26.8222 20.0184 26.6225 19.9329 26.4131 19.9295Z" fill="#FF6F6F"/>
</svg>
