<svg width="22" height="22" viewBox="0 0 22 22" fill="none" xmlns="http://www.w3.org/2000/svg">
<path d="M7.3125 18.995L7.97536 19.6957C8.02939 19.7523 8.09408 19.7977 8.16571 19.8292C8.23734 19.8607 8.31449 19.8777 8.39272 19.8792C8.47096 19.8808 8.54873 19.8669 8.62156 19.8383C8.69439 19.8097 8.76084 19.7669 8.81709 19.7125L17.0576 11.5057C17.228 11.3355 17.3369 11.1133 17.367 10.8744L17.6384 8.66064L7.3125 18.995Z" fill="#FFDCDC"/>
<path d="M8.41078 21.1582C8.17652 21.1598 7.94427 21.1149 7.72751 21.0261C7.51076 20.9372 7.31384 20.8061 7.14818 20.6405L0.517466 14.0014C0.186061 13.6685 0 13.2179 0 12.7482C0 12.2785 0.186061 11.828 0.517466 11.4951L8.54335 3.46922C9.04332 2.96956 9.70193 2.65997 10.4057 2.59382L16.7334 1.9983C17.06 1.96742 17.3893 2.00902 17.698 2.12013C18.0067 2.23125 18.287 2.40914 18.519 2.64111C18.7509 2.87308 18.9288 3.1534 19.0399 3.46205C19.151 3.77071 19.1926 4.1001 19.1618 4.42669L18.5662 10.7649C18.4993 11.4678 18.1898 12.1255 17.6908 12.6251L9.66495 20.6405C9.5003 20.8051 9.30474 20.9356 9.08951 21.0244C8.87428 21.1133 8.64362 21.1587 8.41078 21.1582ZM16.9438 2.82951C16.8989 2.82951 16.8547 2.82951 16.8112 2.82951L10.4835 3.43135C9.97566 3.47943 9.5003 3.70261 9.13887 4.06264L1.11299 12.0885C0.938998 12.2636 0.841339 12.5004 0.841339 12.7472C0.841339 12.994 0.938998 13.2308 1.11299 13.4058L7.74792 20.045C7.83432 20.1316 7.93698 20.2004 8.05 20.2473C8.16302 20.2942 8.28419 20.3184 8.40657 20.3184C8.52894 20.3184 8.65011 20.2942 8.76314 20.2473C8.87616 20.2004 8.97882 20.1316 9.06522 20.045L17.0953 12.0275C17.4551 11.6659 17.6782 11.1906 17.7266 10.6828L18.32 4.35514C18.3382 4.16308 18.3161 3.96934 18.2551 3.78631C18.1941 3.60328 18.0956 3.43499 17.9659 3.2922C17.8361 3.14941 17.6781 3.03525 17.5017 2.95703C17.3253 2.87881 17.1346 2.83824 16.9417 2.83793L16.9438 2.82951Z" fill="#FF6F6F"/>
<path d="M16.0178 6.69308C15.659 6.69321 15.3112 6.56893 15.0338 6.3414C14.7563 6.11387 14.5663 5.79718 14.4962 5.44528C14.4261 5.09339 14.4802 4.72807 14.6492 4.41157C14.8182 4.09507 15.0918 3.84697 15.4232 3.70955C15.7547 3.57213 16.1235 3.5539 16.4669 3.65795C16.8103 3.76201 17.107 3.98191 17.3065 4.28019C17.5059 4.57848 17.5957 4.93668 17.5607 5.29378C17.5256 5.65087 17.3678 5.98476 17.1141 6.23855C16.9703 6.38276 16.7994 6.49716 16.6113 6.57516C16.4231 6.65316 16.2214 6.69323 16.0178 6.69308ZM16.0178 4.43304C15.9011 4.43283 15.7861 4.46144 15.6831 4.51631C15.5801 4.57119 15.4922 4.65064 15.4273 4.74762C15.3624 4.84459 15.3224 4.9561 15.3108 5.07224C15.2993 5.18838 15.3167 5.30557 15.3613 5.41341C15.4059 5.52125 15.4765 5.6164 15.5667 5.69043C15.6569 5.76446 15.764 5.81508 15.8785 5.83779C15.993 5.8605 16.1113 5.85461 16.223 5.82063C16.3346 5.78666 16.4362 5.72565 16.5186 5.64302C16.6175 5.54385 16.6849 5.4176 16.7121 5.2802C16.7394 5.1428 16.7254 5.00041 16.6718 4.87098C16.6182 4.74155 16.5275 4.63089 16.4111 4.55295C16.2947 4.47501 16.1579 4.43328 16.0178 4.43304Z" fill="#FF6F6F"/>
<path d="M16.542 6.2596C16.3061 6.03428 16.1187 5.76313 15.9913 5.46279C15.864 5.16245 15.7993 4.83925 15.8013 4.51302C15.8013 3.42929 16.481 2.29927 17.8152 1.1461C18.9473 0.18022 19.991 -0.192245 20.7612 0.0939424C20.9886 0.183249 21.1865 0.334106 21.333 0.529606C21.4794 0.725106 21.5685 0.957524 21.5903 1.20082C21.7187 2.14986 21.1274 3.69233 19.0925 5.1843L18.5938 4.5046C20.2246 3.31145 20.8538 2.04254 20.757 1.31445C20.7544 1.22106 20.7251 1.13038 20.6725 1.05317C20.6199 0.975962 20.5462 0.915462 20.4603 0.878854C20.1131 0.746282 19.3787 0.912523 18.356 1.7795C17.2407 2.73276 16.6451 3.67339 16.6367 4.47935C16.6322 4.68764 16.6698 4.89471 16.7471 5.08816C16.8245 5.2816 16.9401 5.45744 17.0871 5.60516L16.542 6.2596Z" fill="#FF6F6F"/>
<path d="M11.3907 7.99986L10.8247 7.50535L10.4838 7.75997C10.5097 7.77364 10.5337 7.79062 10.5553 7.81047C10.6803 7.91768 10.7607 8.06783 10.7805 8.23134C10.7879 8.34267 10.7719 8.45432 10.7335 8.55908C10.695 8.66384 10.6351 8.75936 10.5574 8.83949C10.1134 9.34873 9.52208 9.34453 9.11805 8.9931C8.95952 8.8723 8.84734 8.70068 8.80029 8.507L9.20853 8.22503C9.24843 8.37608 9.33273 8.5117 9.45053 8.61433C9.49518 8.65695 9.54788 8.69025 9.60554 8.71229C9.6632 8.73434 9.72467 8.74468 9.78637 8.74272C9.84807 8.74076 9.90876 8.72654 9.96491 8.70088C10.0211 8.67523 10.0715 8.63865 10.1134 8.59328C10.2733 8.41021 10.2986 8.19977 9.98924 7.93042C9.91348 7.86519 9.85245 7.8231 9.7788 7.77049L10.932 6.91614L11.7926 7.66738L11.3907 7.99986Z" fill="#FF6F6F"/>
<path d="M12.5413 9.50236C11.9837 10.1337 11.0683 10.7039 10.5591 10.262C10.2266 9.97163 10.3802 9.52972 10.7358 9.12148C11.2998 8.47545 12.1962 7.96621 12.6908 8.39759C13.0359 8.6922 12.8591 9.132 12.5413 9.50236ZM11.0683 9.43923C10.9357 9.59074 10.7716 9.82011 10.9126 9.94216C11.1588 10.1526 11.9479 9.4708 12.1752 9.19934C12.293 9.06466 12.4614 8.8395 12.3246 8.72166C12.0973 8.50702 11.325 9.13411 11.0725 9.43292L11.0683 9.43923Z" fill="#FF6F6F"/>
<path d="M13.8797 10.6618C13.3221 11.2931 12.4067 11.8634 11.8975 11.4215C11.565 11.1311 11.7186 10.6892 12.0742 10.281C12.6361 9.63494 13.5325 9.12569 14.0291 9.55708C14.3742 9.8601 14.1975 10.2978 13.8797 10.6618ZM12.4067 10.6008C12.2741 10.7502 12.11 10.9796 12.251 11.1016C12.4972 11.3121 13.2863 10.6303 13.5136 10.3588C13.6314 10.2241 13.7998 10.0011 13.663 9.88114C13.4294 9.67282 12.6697 10.302 12.4109 10.6008H12.4067Z" fill="#FF6F6F"/>
<path d="M4.89844 11.2006L5.28353 10.8681L6.11474 10.8197C6.91017 10.7503 7.44888 10.6766 7.72665 10.3568C7.76766 10.3212 7.80055 10.2773 7.82309 10.2279C7.84563 10.1785 7.85729 10.1249 7.85729 10.0706C7.85729 10.0163 7.84563 9.96266 7.82309 9.91329C7.80055 9.86391 7.76766 9.81995 7.72665 9.7844C7.56675 9.64493 7.36415 9.56404 7.15217 9.55503L7.42573 9.0542C7.73497 9.07239 8.03012 9.18971 8.26746 9.38879C8.68832 9.75704 8.64413 10.2684 8.2885 10.6766C7.81713 11.2195 7.15006 11.3079 6.46826 11.3353H6.0979L6.84494 11.9876L6.32096 12.4485L4.89844 11.2006Z" fill="#FF6A6E"/>
<path d="M9.90277 12.419C9.18098 13.246 7.99204 13.9762 7.3355 13.4038C6.90201 13.0251 7.10192 12.4527 7.56276 11.9308C8.29296 11.0891 9.45665 10.4367 10.0879 10.9944C10.5446 11.3774 10.3152 11.9455 9.90277 12.419ZM8.00888 12.3369C7.83843 12.5326 7.62589 12.8294 7.79845 12.9893C8.1162 13.265 9.1389 12.3769 9.44403 12.0255C9.59764 11.8508 9.81649 11.5605 9.63973 11.4068C9.32829 11.1354 8.33505 11.9497 7.99836 12.3369H8.00888Z" fill="#FF6A6E"/>
<path d="M11.6365 13.932C10.9169 14.759 9.72791 15.4892 9.06926 14.9147C8.63577 14.538 8.83568 13.9656 9.29863 13.4417C10.0267 12.5999 11.1925 11.9455 11.8238 12.5052C12.2805 12.8903 12.049 13.4585 11.6365 13.932ZM9.74264 13.8499C9.57219 14.0456 9.35966 14.3423 9.53221 14.5001C9.84997 14.7779 10.8727 13.8899 11.1778 13.5385C11.3314 13.3638 11.5503 13.0734 11.3735 12.9198C11.0621 12.6588 10.0625 13.4627 9.73212 13.8499H9.74264Z" fill="#FF6A6E"/>
<path d="M14.9909 12.381C14.9405 12.3805 14.8919 12.3618 14.8541 12.3284L8.55797 6.84036C8.53612 6.82255 8.51807 6.80055 8.5049 6.77564C8.49172 6.75073 8.48368 6.72343 8.48125 6.69535C8.47882 6.66727 8.48206 6.639 8.49077 6.6122C8.49948 6.5854 8.51348 6.56062 8.53195 6.53933C8.55041 6.51804 8.57297 6.50068 8.59827 6.48828C8.62358 6.47588 8.65111 6.46868 8.67925 6.46712C8.70739 6.46556 8.73555 6.46967 8.76207 6.4792C8.78859 6.48873 8.81293 6.50349 8.83363 6.5226L15.1298 12.0107C15.1626 12.0387 15.186 12.0762 15.1968 12.1181C15.2076 12.1599 15.2052 12.2041 15.19 12.2445C15.1749 12.285 15.1476 12.3198 15.112 12.3442C15.0764 12.3686 15.0341 12.3815 14.9909 12.381Z" fill="#FF6A6E"/>
</svg>
