<svg width="37" height="23" viewBox="0 0 37 23" fill="none" xmlns="http://www.w3.org/2000/svg">
<path d="M36.4655 1.58635C36.2322 1.22221 35.9329 0.904622 35.5828 0.649877C35.0019 0.227714 34.3015 0.000173779 33.5826 0H3.41738C2.69971 0.000192678 2.00067 0.227773 1.42121 0.649877C1.06892 0.903367 0.768033 1.22113 0.534471 1.58635C0.186005 2.13003 0.000573757 2.76162 0 3.40681V19.5932C0.00107158 20.4964 0.36146 21.3623 1.00211 22.001C1.64276 22.6397 2.51136 22.9989 3.41738 23H33.5826C34.4886 22.9989 35.3572 22.6397 35.9979 22.001C36.6385 21.3623 36.9989 20.4964 37 19.5932V3.40681C36.9994 2.76162 36.814 2.13003 36.4655 1.58635ZM3.41738 1.27957H33.5826C33.9024 1.28194 34.2177 1.35501 34.5058 1.49351L20.6095 12.3921C20.0086 12.8648 19.2655 13.1219 18.5 13.1219C17.7345 13.1219 16.9914 12.8648 16.3905 12.3921L2.49825 1.49351C2.78472 1.35456 3.09881 1.28146 3.41738 1.27957ZM35.7124 19.5932C35.7113 20.156 35.4866 20.6954 35.0874 21.0933C34.6882 21.4913 34.1471 21.7153 33.5826 21.7164H3.41738C2.85285 21.7153 2.31175 21.4913 1.91257 21.0933C1.51339 20.6954 1.28866 20.156 1.28759 19.5932V3.40681C1.28779 3.04975 1.37831 2.69851 1.55078 2.38558L15.5968 13.3931C16.4237 14.044 17.4465 14.398 18.5 14.398C19.5535 14.398 20.5763 14.044 21.4032 13.3931L35.4492 2.38154C35.6212 2.69612 35.7117 3.04854 35.7124 3.40681V19.5932Z" fill="#FF8A8A"/>
<path d="M33.419 23H3.57703C2.62797 22.9989 1.71815 22.6246 1.04744 21.9592C0.376736 21.2937 -5.93726e-07 20.3917 0 19.4512V3.54884C0.000356615 2.87684 0.193454 2.21877 0.556782 1.65136C0.800327 1.27095 1.11428 0.939619 1.48208 0.674838C2.091 0.236365 2.82434 0.000137011 3.57703 0H33.419C34.1717 0.000137011 34.905 0.236365 35.5139 0.674838C35.8817 0.939619 36.1957 1.27095 36.4392 1.65136C36.8037 2.21844 36.9982 2.87648 37 3.54884V19.467C36.9895 20.4036 36.6084 21.2986 35.9386 21.9593C35.2688 22.6201 34.364 22.9938 33.419 23ZM3.57703 0.373146C2.90905 0.372762 2.25822 0.582659 1.71841 0.97256C1.39109 1.20884 1.11123 1.50369 0.893255 1.8419C0.565908 2.35169 0.394765 2.94462 0.400563 3.54884V19.467C0.411008 20.2976 0.749399 21.091 1.34319 21.6773C1.93698 22.2635 2.7389 22.5958 3.57703 22.603H33.419C34.2605 22.5968 35.0659 22.2627 35.6609 21.673C36.256 21.0832 36.5931 20.2852 36.5994 19.4512V3.54884C36.5956 2.95116 36.4191 2.36708 36.0907 1.86572C35.8807 1.52899 35.609 1.23414 35.2896 0.996376C34.75 0.60598 34.099 0.396029 33.431 0.396962L3.57703 0.373146ZM33.419 21.7297H3.57703C2.96543 21.7287 2.37919 21.4874 1.94673 21.0589C1.51427 20.6303 1.27084 20.0493 1.26978 19.4432V3.54884C1.27084 3.16332 1.36857 2.7841 1.55418 2.44529L1.67035 2.24284L1.85461 2.38574L15.7501 13.2149C16.5345 13.824 17.5015 14.1565 18.498 14.1596C19.4955 14.162 20.4642 13.829 21.2459 13.2149L35.3256 2.24284L35.4418 2.44529C35.6274 2.7841 35.7251 3.16332 35.7262 3.54884V19.467C35.7251 20.0731 35.4817 20.6541 35.0493 21.0827C34.6168 21.5113 34.0306 21.7525 33.419 21.7535V21.7297ZM1.80654 2.85416C1.71721 3.0751 1.671 3.31083 1.67035 3.54884V19.467C1.67141 19.9678 1.87263 20.4479 2.22997 20.802C2.58731 21.1561 3.07167 21.3555 3.57703 21.3566H33.419C33.9243 21.3555 34.4087 21.1561 34.766 20.802C35.1234 20.4479 35.3246 19.9678 35.3256 19.467V3.54884C35.3264 3.31108 35.2815 3.07534 35.1935 2.85416L21.4942 13.5245C20.6398 14.1969 19.581 14.5629 18.49 14.5629C17.399 14.5629 16.3401 14.1969 15.4858 13.5245L1.80654 2.85416ZM18.498 13.2943C17.6973 13.294 16.9199 13.027 16.2909 12.5361L2.29122 1.62755L2.57962 1.48861C2.89031 1.33827 3.23129 1.25956 3.57703 1.25837H33.419C33.7647 1.25956 34.1057 1.33827 34.4164 1.48861L34.7048 1.62755L20.7091 12.5361C20.0776 13.0254 19.2996 13.2922 18.498 13.2943ZM3.06831 1.72679L16.5352 12.2225C17.094 12.6604 17.7856 12.8986 18.498 12.8986C19.2104 12.8986 19.902 12.6604 20.4608 12.2225L33.9317 1.72679C33.765 1.67943 33.5924 1.65538 33.419 1.65534H3.57703C3.40489 1.65512 3.23361 1.67918 3.06831 1.72679Z" fill="#FF8A8A"/>
<path d="M35.6541 20.5802C35.6064 20.5466 35.5551 20.5179 35.5009 20.4947C34.7184 20.0396 27.8661 15.3096 23.3655 12.1861C23.2791 12.1168 23.1783 12.065 23.0696 12.0338C22.9609 12.0027 22.8466 11.9929 22.7337 12.0051C22.6208 12.0172 22.5117 12.0511 22.4134 12.1046C22.315 12.1581 22.2294 12.23 22.1619 12.3159C22.0944 12.4018 22.0464 12.4998 22.021 12.6039C21.9956 12.7079 21.9932 12.8158 22.0141 12.9207C22.0349 13.0257 22.0786 13.1255 22.1422 13.2139C22.2059 13.3023 22.2883 13.3775 22.3842 13.4347C34.8053 22.0506 34.8053 22.0467 35.2939 21.9922C35.5109 21.9563 35.705 21.8435 35.8362 21.6771C35.9019 21.5942 35.9494 21.4998 35.9758 21.3995C36.0022 21.2992 36.0071 21.1949 35.9901 21.0928C35.9731 20.9907 35.9347 20.8927 35.877 20.8047C35.8193 20.7167 35.7435 20.6404 35.6541 20.5802Z" fill="#FF8A8A"/>
<path d="M1.15724 21.6743C1.2211 21.758 1.30199 21.829 1.39523 21.8831C1.48848 21.9372 1.59223 21.9735 1.70048 21.9897C2.16908 22.0559 2.2064 22.0598 14.6345 13.4242C14.7274 13.3653 14.8066 13.2895 14.8674 13.2011C14.9281 13.1128 14.9692 13.0138 14.9881 12.9101C15.007 12.8065 15.0034 12.7003 14.9774 12.598C14.9514 12.4957 14.9036 12.3994 14.8369 12.3149C14.7701 12.2304 14.6859 12.1595 14.5892 12.1064C14.4925 12.0534 14.3853 12.0192 14.2742 12.0061C14.1631 11.993 14.0502 12.0011 13.9426 12.03C13.8349 12.0589 13.7345 12.108 13.6476 12.1744C9.13995 15.2891 2.2769 20.0352 1.49314 20.4907C1.38026 20.5377 1.27998 20.6078 1.19962 20.6958C1.11926 20.7839 1.06086 20.8876 1.02867 20.9996C0.996484 21.1115 0.991322 21.2288 1.01357 21.3428C1.03581 21.4569 1.0849 21.5648 1.15724 21.6588V21.6743Z" fill="#FF8A8A"/>
</svg>
