<svg width="54" height="44" viewBox="0 0 54 44" fill="none" xmlns="http://www.w3.org/2000/svg">
<path d="M37.7477 15.573H3.25211C1.83976 15.573 0.694824 16.7179 0.694824 18.1303V33.9327C0.694824 35.345 1.83976 36.4899 3.25211 36.4899H37.7477C39.1601 36.4899 40.305 35.345 40.305 33.9327V18.1303C40.305 16.7179 39.1601 15.573 37.7477 15.573Z" fill="white"/>
<path d="M37.7478 37.1848H3.2522C2.38995 37.1839 1.56327 36.841 0.953564 36.2313C0.343857 35.6216 0.00091974 34.7949 0 33.9326V18.1303C0.00091974 17.268 0.343857 16.4413 0.953564 15.8316C1.56327 15.2219 2.38995 14.879 3.2522 14.8781H37.7478C38.6101 14.879 39.4367 15.2219 40.0464 15.8316C40.6561 16.4413 40.9991 17.268 41 18.1303V33.9326C40.9991 34.7949 40.6561 35.6216 40.0464 36.2313C39.4367 36.841 38.6101 37.1839 37.7478 37.1848ZM3.2522 16.2679C2.75827 16.2679 2.28457 16.4641 1.93531 16.8134C1.58604 17.1626 1.38983 17.6363 1.38983 18.1303V33.9326C1.38983 34.4266 1.58604 34.9003 1.93531 35.2495C2.28457 35.5988 2.75827 35.795 3.2522 35.795H37.7478C38.2417 35.795 38.7154 35.5988 39.0647 35.2495C39.414 34.9003 39.6102 34.4266 39.6102 33.9326V18.1303C39.6102 17.6363 39.414 17.1626 39.0647 16.8134C38.7154 16.4641 38.2417 16.2679 37.7478 16.2679H3.2522Z" fill="#00BA77"/>
<path d="M36.8342 26.9835H4.16619C3.31609 26.9835 2.62695 27.6727 2.62695 28.5228V32.4178C2.62695 33.2679 3.31609 33.957 4.16619 33.957H36.8342C37.6842 33.957 38.3734 33.2679 38.3734 32.4178V28.5228C38.3734 27.6727 37.6842 26.9835 36.8342 26.9835Z" fill="#DCFFD4"/>
<path d="M52.4155 36.2397H45.2926C44.9088 36.2397 44.5977 36.5509 44.5977 36.9347C44.5977 37.3185 44.9088 37.6296 45.2926 37.6296H52.4155C52.7992 37.6296 53.1104 37.3185 53.1104 36.9347C53.1104 36.5509 52.7992 36.2397 52.4155 36.2397Z" fill="#00BA77"/>
<path d="M34.0927 21.4207H6.91112C6.43139 21.4207 6.04248 21.8096 6.04248 22.2894V23.6757C6.04248 24.1555 6.43139 24.5444 6.91112 24.5444H34.0927C34.5725 24.5444 34.9614 24.1555 34.9614 23.6757V22.2894C34.9614 21.8096 34.5725 21.4207 34.0927 21.4207Z" fill="white"/>
<path d="M34.089 25.0621H6.91083C6.54222 25.0621 6.18871 24.9156 5.92807 24.655C5.66742 24.3944 5.521 24.0408 5.521 23.6722V22.2824C5.521 21.9138 5.66742 21.5603 5.92807 21.2996C6.18871 21.039 6.54222 20.8926 6.91083 20.8926H34.089C34.4576 20.8926 34.8111 21.039 35.0717 21.2996C35.3324 21.5603 35.4788 21.9138 35.4788 22.2824V23.6722C35.4788 24.0408 35.3324 24.3944 35.0717 24.655C34.8111 24.9156 34.4576 25.0621 34.089 25.0621ZM6.91083 21.935C6.81868 21.935 6.7303 21.9716 6.66514 22.0367C6.59998 22.1019 6.56337 22.1903 6.56337 22.2824V23.6722C6.56337 23.7644 6.59998 23.8528 6.66514 23.9179C6.7303 23.9831 6.81868 24.0197 6.91083 24.0197H34.089C34.1811 24.0197 34.2695 23.9831 34.3347 23.9179C34.3998 23.8528 34.4364 23.7644 34.4364 23.6722V22.2824C34.4364 22.1903 34.3998 22.1019 34.3347 22.0367C34.2695 21.9716 34.1811 21.935 34.089 21.935H6.91083Z" fill="#00BA77"/>
<path d="M51.8939 36.5872H45.6396V42.8415H51.8939V36.5872Z" fill="white"/>
<path d="M52.2416 43.1889H45.2925V36.2397H52.2416V43.1889ZM45.9874 42.494H51.5467V36.9347H45.9874V42.494Z" fill="#00BA77"/>
<path d="M30.6772 22.3311V2.11603C30.6772 1.3235 30.0348 0.68103 29.2422 0.68103L11.7617 0.68103C10.9691 0.68103 10.3267 1.3235 10.3267 2.11603V22.3311C10.3267 23.1236 10.9691 23.7661 11.7617 23.7661H29.2422C30.0348 23.7661 30.6772 23.1236 30.6772 22.3311Z" fill="white"/>
<path d="M29.2419 24.461H11.7613C11.1961 24.461 10.654 24.2367 10.254 23.8374C9.85402 23.4381 9.62885 22.8963 9.62793 22.3311V2.12992C9.62885 1.56471 9.85402 1.02296 10.254 0.623627C10.654 0.22429 11.1961 -7.4962e-07 11.7613 0H29.2419C29.8065 0.000918808 30.3477 0.225616 30.747 0.624853C31.1462 1.02409 31.3709 1.56531 31.3718 2.12992V22.3311C31.3709 22.8957 31.1462 23.4369 30.747 23.8362C30.3477 24.2354 29.8065 24.4601 29.2419 24.461ZM11.7613 1.37593C11.6627 1.37545 11.5649 1.3947 11.4738 1.43256C11.3827 1.47041 11.3 1.52609 11.2308 1.59634C11.1615 1.66659 11.107 1.74999 11.0704 1.84162C11.0338 1.93325 11.0159 2.03127 11.0178 2.12992V22.3311C11.0187 22.5277 11.0974 22.7159 11.2368 22.8546C11.3761 22.9933 11.5647 23.0712 11.7613 23.0712H29.2419C29.4379 23.0703 29.6256 22.992 29.7642 22.8534C29.9028 22.7148 29.9811 22.5271 29.982 22.3311V2.12992C29.982 1.93363 29.904 1.74539 29.7652 1.6066C29.6264 1.4678 29.4382 1.38983 29.2419 1.38983L11.7613 1.37593Z" fill="#00BA77"/>
<path d="M27.5741 22.5291H13.4257C12.9587 22.5282 12.5112 22.3423 12.181 22.0121C11.8509 21.6819 11.665 21.2344 11.6641 20.7675V5.44807C11.665 4.98115 11.8509 4.53361 12.181 4.20344C12.5112 3.87327 12.9587 3.68738 13.4257 3.68646H27.5741C28.0414 3.68646 28.4894 3.87206 28.8198 4.20243C29.1502 4.53279 29.3358 4.98086 29.3358 5.44807V20.7675C29.3358 21.2347 29.1502 21.6828 28.8198 22.0131C28.4894 22.3435 28.0414 22.5291 27.5741 22.5291ZM13.4257 4.72884C13.2349 4.72884 13.052 4.80461 12.9171 4.93949C12.7822 5.07438 12.7064 5.25732 12.7064 5.44807V20.7675C12.7064 20.9582 12.7822 21.1412 12.9171 21.2761C13.052 21.4109 13.2349 21.4867 13.4257 21.4867H27.5741C27.7649 21.4867 27.9478 21.4109 28.0827 21.2761C28.2176 21.1412 28.2934 20.9582 28.2934 20.7675V5.44807C28.2934 5.25732 28.2176 5.07438 28.0827 4.93949C27.9478 4.80461 27.7649 4.72884 27.5741 4.72884H13.4257Z" fill="#00BA77"/>
<path d="M26.876 14.9198H14.1104C13.6786 14.9198 13.3286 15.2698 13.3286 15.7016V20.0379C13.3286 20.4696 13.6786 20.8196 14.1104 20.8196H26.876C27.3078 20.8196 27.6578 20.4696 27.6578 20.0379V15.7016C27.6578 15.2698 27.3078 14.9198 26.876 14.9198Z" fill="#DCFFD4"/>
</svg>
