<svg width="39" height="33" viewBox="0 0 39 33" fill="none" xmlns="http://www.w3.org/2000/svg">
<path d="M4.36364 13.4H1V8.89091V7.76364L2.12121 6.63636H8.28788M4.36364 13.4V29.1818V30.3091L5.48485 31.4364L6.60606 32H7.72727H13.3333M4.36364 13.4H10.5303M34.6364 13.4V30.3091L33.5152 31.4364L32.3939 32H25.6667M34.6364 13.4H38V7.76364L36.8788 6.63636H30.7121M34.6364 13.4H26.2273M13.3333 13.9636V32M13.3333 32H23.4242M15.5758 31.4364V13.4M15.5758 13.4H25.6667M15.5758 13.4H13.053M25.6667 32V13.4M25.6667 32H23.4242M25.6667 13.4H26.2273M23.4242 13.9636V32M10.5303 6.63636V12.8364V13.4M10.5303 6.63636H13.053M10.5303 6.63636H8.28788M10.5303 13.4H13.053M13.053 13.4V6.63636M13.053 6.63636H17.8182M26.2273 7.2V13.4M28.4697 12.8364V6.63636M28.4697 6.63636H21.1818M28.4697 6.63636H30.7121M17.8182 6.63636H19.5H21.1818M17.8182 6.63636L16.697 4.38182M16.697 4.38182L18.3788 3.25455H20.6212L22.303 4.38182M16.697 4.38182L13.3333 1H11.0909L8.84848 2.12727L8.28788 4.38182V6.63636M22.303 4.38182L21.1818 6.63636M22.303 4.38182L25.6667 1H27.9091L30.1515 2.12727L30.7121 4.38182V6.07273V6.63636" stroke="#FF6F6F" stroke-width="2"/>
</svg>
