<svg width="98" height="141" viewBox="0 0 98 141" fill="none" xmlns="http://www.w3.org/2000/svg">
<path d="M2.53823 140.97H95.476V115.339C95.476 106.567 91.9912 98.1535 85.7881 91.9504C79.585 85.7473 71.1718 82.2625 62.3993 82.2625H35.4868C31.1225 82.2623 26.8014 83.1259 22.7724 84.8034C18.7434 86.4808 15.0862 88.939 12.0115 92.0363C8.93686 95.1336 6.50553 98.8088 4.85766 102.85C3.20979 106.891 2.37795 111.219 2.41008 115.583C2.53823 128.808 2.60231 140.97 2.53823 140.97Z" fill="white"/>
<path d="M59.964 127.462C60.0736 127.87 60.0806 128.299 59.9845 128.711C59.8884 129.122 59.692 129.503 59.4129 129.82L51.3264 139.035C51.0905 139.303 50.801 139.52 50.4766 139.67C50.1521 139.82 49.7999 139.9 49.4425 139.906C49.0879 139.905 48.7374 139.831 48.4132 139.687C48.0889 139.544 47.7979 139.335 47.5586 139.073L39.0491 129.872C38.755 129.553 38.5466 129.164 38.4435 128.743C38.3404 128.322 38.346 127.881 38.4596 127.462L46.2899 98.807L35.2301 89.4901C20.9665 91.0408 9.90674 101.998 9.90674 115.275V140.778H88.0811V115.211C88.0811 101.998 77.1239 91.092 62.9628 89.4517L52.1337 98.7301L59.964 127.462Z" fill="#FFDCDC"/>
<path d="M49.3524 133.512L54.658 127.476L49.1858 107.535L43.7393 127.437L49.3524 133.512Z" fill="white"/>
<path d="M38.2798 85.2866L42.9574 89.2338L49.1729 94.4753L55.3116 89.2338L59.8995 85.2866H38.2798Z" fill="white"/>
<path d="M42.7267 17.7365C42.929 17.2323 43.2863 16.8055 43.7469 16.5175C44.2076 16.2296 44.7479 16.0955 45.2897 16.1346C45.827 16.1751 46.3378 16.3839 46.7496 16.7313C47.1614 17.0787 47.4532 17.547 47.5837 18.0697C47.7247 18.5311 51.313 29.7062 74.3168 28.1427C73.7203 21.7814 70.7497 15.8783 65.9964 11.6089C61.2431 7.33948 55.0561 5.01715 48.6676 5.10442C42.279 5.19169 36.1577 7.68216 31.5229 12.0798C26.888 16.4774 24.0797 22.4596 23.6572 28.8347C27.6941 29.1295 38.2797 28.8732 42.7267 17.7365Z" fill="white"/>
<path d="M54.5691 30.7444C50.9005 29.3793 47.6561 27.072 45.1625 24.0547C43.2964 26.8862 40.7782 29.2286 37.8192 30.8853C34.0471 32.9443 29.8138 34.0114 25.5164 33.9867C24.8372 33.9867 24.2348 33.9867 23.5684 33.897V46.3664C23.56 49.7137 24.2116 53.0298 25.4859 56.125C26.7603 59.2202 28.6323 62.0338 30.995 64.4048C33.3577 66.7759 36.1647 68.6578 39.2554 69.943C42.3461 71.2282 45.6599 71.8915 49.0072 71.8949C55.7518 71.8881 62.2183 69.2058 66.9875 64.4365C71.7568 59.6673 74.4391 53.2008 74.4459 46.4561V33.2178C65.6673 33.7816 59.2595 32.6282 54.5691 30.7444ZM36.9478 46.0076C36.268 46.0076 35.6161 45.7376 35.1354 45.2569C34.6547 44.7762 34.3847 44.1243 34.3847 43.4445V39.4717C34.3847 38.7919 34.6547 38.14 35.1354 37.6593C35.6161 37.1787 36.268 36.9086 36.9478 36.9086C37.6276 36.9086 38.2795 37.1787 38.7602 37.6593C39.2408 38.14 39.5109 38.7919 39.5109 39.4717V43.4445C39.5109 44.1243 39.2408 44.7762 38.7602 45.2569C38.2795 45.7376 37.6276 46.0076 36.9478 46.0076ZM57.2347 58.1439C54.7822 59.2015 52.1394 59.7467 49.4685 59.7458C46.3566 59.7683 43.2833 59.0571 40.4977 57.6697C39.9029 57.34 39.4634 56.7875 39.2759 56.1338C39.0885 55.4801 39.1684 54.7787 39.4981 54.1839C39.8278 53.5891 40.3802 53.1496 41.034 52.9621C41.6877 52.7747 42.3891 52.8546 42.9839 53.1843C44.8787 54.0888 46.9444 54.5795 49.0436 54.6237C51.1428 54.6678 53.2274 54.2645 55.1586 53.4406C55.4702 53.2888 55.8094 53.2019 56.1557 53.185C56.5019 53.1681 56.848 53.2216 57.1729 53.3422C57.4979 53.4629 57.795 53.6483 58.0463 53.887C58.2975 54.1258 58.4978 54.4131 58.6348 54.7315C58.7719 55.0499 58.843 55.3928 58.8437 55.7394C58.8445 56.086 58.7749 56.4292 58.6392 56.7482C58.5036 57.0672 58.3046 57.3554 58.0544 57.5952C57.8041 57.8351 57.5079 58.0218 57.1834 58.1439H57.2347ZM63.6424 43.4445C63.6424 44.1243 63.3724 44.7762 62.8917 45.2569C62.411 45.7376 61.7591 46.0076 61.0793 46.0076C60.3996 46.0076 59.7476 45.7376 59.2669 45.2569C58.7863 44.7762 58.5162 44.1243 58.5162 43.4445V39.4717C58.5162 38.7919 58.7863 38.14 59.2669 37.6593C59.7476 37.1787 60.3996 36.9086 61.0793 36.9086C61.7591 36.9086 62.411 37.1787 62.8917 37.6593C63.3724 38.14 63.6424 38.7919 63.6424 39.4717V43.4445Z" fill="white"/>
<path d="M49.0073 0C40.9041 0.0101735 33.1357 3.23366 27.4059 8.96349C21.676 14.6933 18.4526 22.4617 18.4424 30.5649V46.4177C18.4424 54.524 21.6626 62.2983 27.3946 68.0303C33.1267 73.7623 40.901 76.9826 49.0073 76.9826C57.1136 76.9826 64.8879 73.7623 70.6199 68.0303C76.352 62.2983 79.5722 54.524 79.5722 46.4177V30.5649C79.562 22.4617 76.3385 14.6933 70.6087 8.96349C64.8789 3.23366 57.1105 0.0101735 49.0073 0ZM49.0073 71.8948C42.2559 71.888 35.7836 69.2004 31.0133 64.4229C26.243 59.6454 23.5652 53.169 23.5686 46.4177V33.9482C24.1837 33.9482 24.8501 34.0379 25.5165 34.0379C29.8184 34.0469 34.052 32.9621 37.8194 30.8853C40.7783 29.2286 43.2965 26.8861 45.1626 24.0546C47.6421 27.0646 50.8679 29.3713 54.5179 30.7443C59.17 32.6282 65.5905 33.7816 74.3947 33.2177V46.4177C74.3982 53.1601 71.7274 59.6288 66.9681 64.4048C62.2089 69.1809 55.7497 71.8745 49.0073 71.8948ZM74.3179 28.1428C51.3141 29.6678 47.7257 18.4927 47.5848 18.0698C47.446 17.5503 47.1473 17.0876 46.731 16.7472C46.3147 16.4068 45.8019 16.206 45.2652 16.1731C44.7233 16.1341 44.1831 16.2682 43.7224 16.5561C43.2617 16.844 42.9044 17.2709 42.7021 17.7751C38.2551 28.9117 27.6695 29.168 23.6326 28.8348C24.0551 22.4597 26.8634 16.4775 31.4983 12.0799C36.1332 7.68224 42.2544 5.19178 48.643 5.10451C55.0315 5.01724 61.2186 7.33957 65.9718 11.609C70.7251 15.8784 73.6958 21.7815 74.2922 28.1428H74.3179Z" fill="#FF6F6F"/>
<path d="M39.51 39.4713C39.51 38.7915 39.2399 38.1396 38.7593 37.6589C38.2786 37.1782 37.6267 36.9082 36.9469 36.9082C36.2671 36.9082 35.6152 37.1782 35.1345 37.6589C34.6538 38.1396 34.3838 38.7915 34.3838 39.4713V43.4441C34.3838 44.1239 34.6538 44.7758 35.1345 45.2565C35.6152 45.7371 36.2671 46.0072 36.9469 46.0072C37.6267 46.0072 38.2786 45.7371 38.7593 45.2565C39.2399 44.7758 39.51 44.1239 39.51 43.4441V39.4713Z" fill="#FF6F6F"/>
<path d="M61.066 36.9082C60.3862 36.9082 59.7343 37.1782 59.2536 37.6589C58.773 38.1396 58.5029 38.7915 58.5029 39.4713V43.4441C58.5029 44.1239 58.773 44.7758 59.2536 45.2565C59.7343 45.7371 60.3862 46.0072 61.066 46.0072C61.7458 46.0072 62.3977 45.7371 62.8784 45.2565C63.3591 44.7758 63.6291 44.1239 63.6291 43.4441V39.4713C63.6291 38.7915 63.3591 38.1396 62.8784 37.6589C62.3977 37.1782 61.7458 36.9082 61.066 36.9082Z" fill="#FF6F6F"/>
<path d="M55.2095 53.4403C53.2783 54.2643 51.1938 54.6676 49.0946 54.6234C46.9954 54.5792 44.9297 54.0885 43.0348 53.184C42.44 52.8543 41.7386 52.7744 41.0849 52.9619C40.4312 53.1494 39.8787 53.5888 39.549 54.1836C39.2193 54.7784 39.1394 55.4799 39.3269 56.1336C39.5144 56.7873 39.9538 57.3398 40.5486 57.6694C43.3342 59.0568 46.4076 59.7681 49.5195 59.7455C52.1903 59.7464 54.8331 59.2013 57.2856 58.1436C57.6101 58.0215 57.9064 57.8349 58.1566 57.595C58.4068 57.3551 58.6058 57.067 58.7415 56.748C58.8771 56.429 58.9467 56.0858 58.9459 55.7392C58.9452 55.3925 58.8741 55.0496 58.737 54.7313C58.6 54.4129 58.3997 54.1256 58.1485 53.8868C57.8972 53.648 57.6001 53.4627 57.2751 53.342C56.9502 53.2213 56.6041 53.1678 56.2579 53.1847C55.9117 53.2016 55.5724 53.2886 55.2608 53.4403H55.2095Z" fill="#FF6F6F"/>
<path d="M61.1939 80.1736H36.8445C16.532 80.1736 0 95.1805 0 113.648V138.407C0 139.087 0.270043 139.739 0.750716 140.219C1.23139 140.7 1.88332 140.97 2.5631 140.97C3.24287 140.97 3.89481 140.7 4.37548 140.219C4.85615 139.739 5.12619 139.087 5.12619 138.407V113.648C5.12619 99.7684 16.3397 88.1961 31.0903 85.774C31.2184 85.9625 31.369 86.1346 31.5389 86.2866L35.2554 89.4264L46.2895 98.8073L38.4208 127.527C38.3071 127.945 38.3016 128.386 38.4047 128.807C38.5078 129.229 38.7162 129.617 39.0103 129.936L47.5198 139.138C47.7591 139.399 48.0501 139.608 48.3744 139.752C48.6986 139.895 49.0491 139.97 49.4037 139.971C49.7611 139.965 50.1133 139.884 50.4378 139.734C50.7622 139.584 51.0517 139.368 51.2875 139.099L59.3741 129.885C59.6532 129.568 59.8495 129.186 59.9457 128.775C60.0418 128.364 60.0348 127.935 59.9252 127.527L52.0565 98.7945L62.8855 89.5161L66.4739 86.4404C66.6703 86.2663 66.8389 86.0632 66.9737 85.838C81.6987 88.2986 92.8738 99.8453 92.8738 113.712V138.407C92.8738 139.087 93.1438 139.739 93.6245 140.219C94.1051 140.7 94.7571 140.97 95.4368 140.97C96.1166 140.97 96.7686 140.7 97.2492 140.219C97.7299 139.739 97.9999 139.087 97.9999 138.407V113.648C98.0384 95.1805 81.5064 80.1736 61.1939 80.1736ZM54.6452 127.475L49.3524 133.512L43.7392 127.437L49.1858 107.535L54.6452 127.475ZM55.3116 89.2341L49.173 94.4757L42.9447 89.2341L38.2798 85.2998H59.8995L55.3116 89.2341Z" fill="#FF6F6F"/>
</svg>
