<svg width="13" height="21" viewBox="0 0 13 21" fill="none" xmlns="http://www.w3.org/2000/svg">
<path d="M7 10C6.01088 10 5.04399 9.70663 4.22164 9.157C3.39929 8.60738 2.75843 7.8262 2.38013 6.91228C2.00184 5.99837 1.90311 4.99278 2.09644 4.02275C2.28976 3.05271 2.76645 2.1618 3.4662 1.46273C4.16596 0.763665 5.05733 0.287851 6.02756 0.0954792C6.99779 -0.0968924 8.00328 0.00282128 8.91682 0.382012C9.83036 0.761203 10.6109 1.40283 11.1597 2.22572C11.7086 3.04861 12.001 4.01579 12 5.00491C11.9974 6.32974 11.4696 7.5995 10.5324 8.53584C9.59511 9.47218 8.32484 9.9987 7 10ZM7 1.96762C6.39928 1.96762 5.81205 2.14575 5.31257 2.47949C4.81309 2.81323 4.42379 3.28759 4.19391 3.84259C3.96402 4.39758 3.90388 5.00828 4.02107 5.59745C4.13826 6.18663 4.42754 6.72782 4.85231 7.1526C5.27708 7.57737 5.81828 7.86664 6.40745 7.98384C6.99663 8.10103 7.60733 8.04088 8.16232 7.811C8.71731 7.58111 9.19167 7.19182 9.52542 6.69234C9.85916 6.19286 10.0373 5.60563 10.0373 5.00491C10.036 4.20022 9.71542 3.42893 9.14596 2.86039C8.57649 2.29185 7.80469 1.97252 7 1.97252V1.96762Z" fill="#FF6F6F"/>
<path d="M12.055 21C11.8005 21 11.5565 20.8987 11.3766 20.7184C11.1967 20.538 11.0956 20.2935 11.0956 20.0385V17.25C11.0956 16.1024 10.6407 15.0019 9.83105 14.1904C9.02139 13.3789 7.92326 12.9231 6.77823 12.9231H6.23616C5.09113 12.9231 3.993 13.3789 3.18334 14.1904C2.37368 15.0019 1.91882 16.1024 1.91882 17.25V20.0385C1.91882 20.2935 1.81774 20.538 1.63782 20.7184C1.45789 20.8987 1.21386 21 0.95941 21C0.704958 21 0.460928 20.8987 0.281004 20.7184C0.10108 20.538 0 20.2935 0 20.0385V17.25C0 15.5924 0.657023 14.0027 1.82653 12.8306C2.99604 11.6585 4.58223 11 6.23616 11H6.76384C8.41777 11 10.004 11.6585 11.1735 12.8306C12.343 14.0027 13 15.5924 13 17.25V20.0385C13 20.291 12.9009 20.5334 12.7241 20.7133C12.5473 20.8932 12.3069 20.9962 12.055 21Z" fill="#FF6F6F"/>
</svg>
