<svg width="41" height="26" viewBox="0 0 41 26" fill="none" xmlns="http://www.w3.org/2000/svg">
<path d="M36.2913 25.1145H3.97523C2.9224 25.1117 1.91342 24.6925 1.16863 23.9484C0.423831 23.2042 0.0037184 22.1956 2.46232e-05 21.1428V3.9962C-0.0018164 3.47266 0.0995967 2.9539 0.298459 2.4696C0.497322 1.98529 0.789731 1.54495 1.15895 1.17378C1.52818 0.802605 1.96697 0.507883 2.45022 0.306472C2.93347 0.105061 3.45169 0.000916872 3.97523 0H36.2913C36.8151 0.000457076 37.3337 0.10426 37.8174 0.305465C38.301 0.506671 38.7402 0.801323 39.1098 1.17254C39.4794 1.54376 39.7721 1.98426 39.9712 2.46879C40.1703 2.95332 40.2718 3.47237 40.27 3.9962V21.1428C40.2663 22.1962 39.8457 23.2054 39.1002 23.9496C38.3546 24.6938 37.3447 25.1126 36.2913 25.1145ZM3.97523 1.39972C3.63537 1.40017 3.29895 1.4678 2.98531 1.5987C2.67168 1.72961 2.38701 1.92121 2.14767 2.1625C1.90833 2.40379 1.71904 2.69001 1.59068 3.0047C1.46233 3.31939 1.39744 3.65635 1.39975 3.9962V21.1428C1.39974 21.8262 1.67098 22.4816 2.15388 22.9652C2.63677 23.4487 3.29185 23.7208 3.97523 23.7218H36.2913C36.975 23.7208 37.6304 23.4488 38.1139 22.9654C38.5973 22.4819 38.8693 21.8265 38.8703 21.1428V3.9962C38.8703 3.31221 38.5986 2.65624 38.1149 2.17258C37.6313 1.68893 36.9753 1.41722 36.2913 1.41722L3.97523 1.39972Z" fill="#FF6F6F"/>
<path d="M10.0848 12.1706C9.37944 12.1706 8.68989 11.9614 8.10342 11.5695C7.51696 11.1775 7.05992 10.6204 6.79014 9.96861C6.52036 9.31684 6.44995 8.59971 6.58782 7.90791C6.72569 7.21612 7.06564 6.58077 7.56468 6.08222C8.06371 5.58368 8.6994 5.24435 9.39133 5.10715C10.0833 4.96996 10.8003 5.04107 11.4518 5.3115C12.1033 5.58192 12.66 6.0395 13.0514 6.62635C13.4428 7.2132 13.6513 7.90296 13.6506 8.60835C13.6488 9.55317 13.2724 10.4587 12.604 11.1265C11.9356 11.7942 11.0296 12.1697 10.0848 12.1706ZM10.0848 6.44228C9.65642 6.44228 9.23764 6.56932 8.88143 6.80733C8.52522 7.04534 8.24759 7.38364 8.08364 7.77943C7.9197 8.17523 7.87681 8.61076 7.96038 9.03093C8.04396 9.45111 8.25026 9.83706 8.55319 10.14C8.85612 10.4429 9.24208 10.6492 9.66225 10.7328C10.0824 10.8164 10.518 10.7735 10.9137 10.6095C11.3095 10.4456 11.6478 10.168 11.8859 9.81176C12.1239 9.45555 12.2509 9.03676 12.2509 8.60835C12.25 8.03448 12.0214 7.48443 11.6152 7.07897C11.2091 6.67351 10.6587 6.44578 10.0848 6.44578V6.44228Z" fill="#FF6F6F"/>
<path d="M14.137 19.8061C13.9514 19.8061 13.7734 19.7324 13.6421 19.6012C13.5109 19.4699 13.4371 19.2919 13.4371 19.1063V17.0767C13.4371 16.2414 13.1053 15.4404 12.5147 14.8497C11.9241 14.2591 11.123 13.9273 10.2878 13.9273H9.89235C9.05709 13.9273 8.25603 14.2591 7.66541 14.8497C7.07479 15.4404 6.74298 16.2414 6.74298 17.0767V19.1063C6.74298 19.2919 6.66925 19.4699 6.538 19.6012C6.40675 19.7324 6.22874 19.8061 6.04312 19.8061C5.85751 19.8061 5.67949 19.7324 5.54825 19.6012C5.417 19.4699 5.34326 19.2919 5.34326 19.1063V17.0767C5.34326 15.8702 5.82254 14.7131 6.67566 13.86C7.52878 13.0069 8.68586 12.5276 9.89235 12.5276H10.2773C11.4838 12.5276 12.6409 13.0069 13.494 13.86C14.3471 14.7131 14.8264 15.8702 14.8264 17.0767V19.1063C14.8264 19.2901 14.7541 19.4665 14.6251 19.5975C14.4961 19.7284 14.3208 19.8034 14.137 19.8061Z" fill="#FF6F6F"/>
<path d="M20.1454 16.0932C19.9319 15.6313 19.7045 15.1659 19.4665 14.6935C19.0676 13.8747 18.5497 12.8284 18.1088 11.8941V15.8833C18.1088 16.0225 18.0535 16.156 17.9551 16.2544C17.8566 16.3529 17.7231 16.4082 17.5839 16.4082C17.4447 16.4082 17.3112 16.3529 17.2127 16.2544C17.1143 16.156 17.059 16.0225 17.059 15.8833V9.61254C17.0542 9.49432 17.0917 9.37827 17.1649 9.28525C17.238 9.19224 17.3419 9.12837 17.4579 9.10514C17.5722 9.0786 17.692 9.09188 17.7977 9.1428C17.9033 9.19371 17.9884 9.2792 18.0388 9.38509C18.2558 9.84699 18.4832 10.3124 18.7387 10.7848C19.1376 11.6036 19.631 12.6499 20.0964 13.5842V9.61254C20.0964 9.47333 20.1517 9.33982 20.2501 9.24138C20.3486 9.14295 20.4821 9.08765 20.6213 9.08765C20.7605 9.08765 20.894 9.14295 20.9924 9.24138C21.0909 9.33982 21.1462 9.47333 21.1462 9.61254V15.8658C21.1463 15.9829 21.107 16.0966 21.0347 16.1886C20.9623 16.2807 20.8611 16.3457 20.7473 16.3732C20.63 16.4066 20.5047 16.3967 20.3942 16.3453C20.2837 16.2939 20.1954 16.2044 20.1454 16.0932Z" fill="#FF6F6F"/>
<path d="M20.6107 16.4293C20.5049 16.4308 20.401 16.4014 20.3115 16.3449C20.222 16.2884 20.1509 16.2071 20.1069 16.1108C19.8934 15.6524 19.6694 15.194 19.435 14.7111L19.1165 14.0603C18.8121 13.4374 18.4692 12.7375 18.1577 12.0831V15.8764C18.1639 15.9539 18.1539 16.0318 18.1284 16.1052C18.103 16.1787 18.0626 16.246 18.0099 16.3031C17.9571 16.3602 17.8931 16.4058 17.8219 16.4369C17.7507 16.4681 17.6738 16.4841 17.5961 16.4841C17.5184 16.4841 17.4415 16.4681 17.3703 16.4369C17.2991 16.4058 17.2351 16.3602 17.1823 16.3031C17.1296 16.246 17.0892 16.1787 17.0638 16.1052C17.0383 16.0318 17.0283 15.9539 17.0345 15.8764V9.61264C17.0302 9.48456 17.0715 9.35913 17.1509 9.25856C17.2303 9.158 17.3428 9.08881 17.4684 9.06325C17.5919 9.03594 17.721 9.05073 17.8351 9.10527C17.9493 9.1598 18.0419 9.25094 18.0983 9.36419C18.3222 9.84009 18.5532 10.316 18.7806 10.7639C18.9311 11.0753 19.0956 11.4218 19.2705 11.7787C19.5295 12.3141 19.7954 12.8705 20.0544 13.3989V9.61264C20.0482 9.53516 20.0582 9.45724 20.0837 9.3838C20.1091 9.31036 20.1495 9.24299 20.2022 9.1859C20.255 9.12882 20.319 9.08327 20.3902 9.05212C20.4614 9.02097 20.5383 9.00488 20.616 9.00488C20.6937 9.00488 20.7706 9.02097 20.8418 9.05212C20.913 9.08327 20.977 9.12882 21.0298 9.1859C21.0825 9.24299 21.1229 9.31036 21.1483 9.3838C21.1738 9.45724 21.1838 9.53516 21.1776 9.61264V15.8659C21.1791 15.94 21.1656 16.0136 21.138 16.0823C21.1104 16.1511 21.0692 16.2136 21.017 16.2662C20.9648 16.3187 20.9025 16.3602 20.8339 16.3883C20.7654 16.4163 20.6918 16.4302 20.6177 16.4293H20.6107ZM18.0633 11.6947L18.1472 11.8732C18.4972 12.573 18.8471 13.3464 19.197 14.0253C19.309 14.2527 19.4175 14.4697 19.5155 14.6761C19.7534 15.1625 19.9739 15.6174 20.1908 16.0758C20.2358 16.1738 20.3135 16.2529 20.4107 16.2996C20.5078 16.3462 20.6182 16.3574 20.7227 16.3313C20.8244 16.3034 20.9138 16.2426 20.9772 16.1584C21.0405 16.0741 21.0741 15.9713 21.0727 15.8659V9.61264C21.0783 9.54695 21.0702 9.4808 21.049 9.41839C21.0277 9.35598 20.9937 9.29867 20.9491 9.25009C20.9046 9.20151 20.8504 9.16273 20.79 9.13619C20.7297 9.10966 20.6644 9.09596 20.5985 9.09596C20.5326 9.09596 20.4674 9.10966 20.407 9.13619C20.3466 9.16273 20.2924 9.20151 20.2479 9.25009C20.2033 9.29867 20.1693 9.35598 20.148 9.41839C20.1268 9.4808 20.1187 9.54695 20.1243 9.61264V13.7943L20.0439 13.6263C19.7534 13.042 19.4595 12.4296 19.1725 11.8347C19.0011 11.4848 18.8226 11.1348 18.6826 10.8199C18.4587 10.358 18.2242 9.88208 18.0038 9.42018C17.9568 9.32397 17.8787 9.24642 17.7822 9.20007C17.6857 9.15372 17.5763 9.14126 17.4719 9.16473C17.3687 9.18976 17.2773 9.24985 17.2135 9.33474C17.1497 9.41962 17.1173 9.52403 17.1219 9.63013V15.8834C17.1163 15.9491 17.1244 16.0152 17.1456 16.0776C17.1669 16.14 17.2009 16.1974 17.2455 16.2459C17.29 16.2945 17.3442 16.3333 17.4046 16.3598C17.465 16.3864 17.5302 16.4001 17.5961 16.4001C17.662 16.4001 17.7272 16.3864 17.7876 16.3598C17.848 16.3333 17.9022 16.2945 17.9467 16.2459C17.9913 16.1974 18.0253 16.14 18.0466 16.0776C18.0678 16.0152 18.0759 15.9491 18.0703 15.8834L18.0633 11.6947Z" fill="#FF6F6F"/>
<path d="M25.7444 16.3626C25.6796 16.3819 25.6117 16.3881 25.5445 16.3809C25.4773 16.3737 25.4121 16.3532 25.3529 16.3207C25.2937 16.2881 25.2415 16.2441 25.1994 16.1913C25.1573 16.1384 25.126 16.0777 25.1075 16.0127C25.0761 15.9287 25.0551 15.8203 25.0236 15.7013C24.9676 15.4983 24.8836 15.2149 24.7961 14.8824H22.9625C22.8645 15.2324 22.791 15.4983 22.735 15.7013C22.7035 15.8203 22.6825 15.9287 22.651 16.0127C22.6058 16.1348 22.5163 16.2354 22.4003 16.2944C22.2843 16.3535 22.1502 16.3667 22.0249 16.3314C21.8996 16.2961 21.7922 16.2149 21.7241 16.104C21.6559 15.993 21.6321 15.8605 21.6572 15.7328L23.3824 9.47952C23.4117 9.37012 23.4762 9.27344 23.5661 9.20448C23.6559 9.13552 23.766 9.09814 23.8793 9.09814C23.9925 9.09814 24.1026 9.13552 24.1925 9.20448C24.2823 9.27344 24.3469 9.37012 24.3762 9.47952L26.1013 15.7328C26.1369 15.8636 26.1193 16.0032 26.0524 16.1211C25.9856 16.2391 25.8749 16.3259 25.7444 16.3626ZM23.8898 11.5651C23.6833 12.265 23.4699 13.0943 23.2634 13.8397H24.5162C24.2992 13.0943 24.0857 12.265 23.8898 11.5651Z" fill="#FF6F6F"/>
<path d="M22.1574 16.4256C22.1054 16.4255 22.0536 16.4185 22.0035 16.4047C21.9313 16.3854 21.8638 16.3517 21.8049 16.3058C21.746 16.2598 21.697 16.2025 21.6607 16.1372C21.6245 16.0718 21.6017 15.9999 21.5939 15.9256C21.5861 15.8513 21.5932 15.7762 21.615 15.7048L23.3402 9.44804C23.3733 9.33061 23.4438 9.2272 23.5411 9.15355C23.6384 9.0799 23.7571 9.04004 23.8791 9.04004C24.0011 9.04004 24.1198 9.0799 24.217 9.15355C24.3143 9.2272 24.3849 9.33061 24.418 9.44804L26.1431 15.7013C26.165 15.7725 26.1723 15.8474 26.1647 15.9215C26.1571 15.9956 26.1346 16.0674 26.0987 16.1327C26.0628 16.1979 26.0142 16.2553 25.9557 16.3015C25.8972 16.3476 25.8301 16.3815 25.7582 16.4012C25.687 16.4235 25.612 16.4312 25.5378 16.4238C25.4635 16.4164 25.3915 16.3941 25.3261 16.3581C25.2607 16.3222 25.2033 16.2733 25.1573 16.2146C25.1112 16.1558 25.0776 16.0883 25.0583 16.0162C25.0358 15.9509 25.0171 15.8843 25.0024 15.8168C25.0024 15.7818 25.0024 15.7433 24.9744 15.7013C24.9464 15.6593 24.9219 15.5193 24.8939 15.4109C24.8659 15.3024 24.8029 15.0994 24.7539 14.914H23.0043C22.9098 15.2639 22.8363 15.5228 22.7873 15.7013C22.7873 15.7433 22.7873 15.7818 22.7593 15.8168C22.7446 15.8858 22.7247 15.9537 22.6998 16.0197C22.6689 16.1389 22.5984 16.244 22.4998 16.3178C22.4012 16.3916 22.2805 16.4296 22.1574 16.4256ZM23.8896 9.1366C23.7848 9.13244 23.6818 9.16519 23.5987 9.22914C23.5156 9.29308 23.4575 9.38418 23.4347 9.48653L21.7095 15.7468C21.6756 15.8674 21.6911 15.9966 21.7524 16.1059C21.8138 16.2151 21.9161 16.2955 22.0367 16.3294C22.1574 16.3633 22.2865 16.3479 22.3958 16.2865C22.505 16.2251 22.5855 16.1229 22.6193 16.0022C22.6403 15.9427 22.6578 15.8763 22.6753 15.8063C22.6928 15.7363 22.6753 15.7293 22.7033 15.6908C22.7523 15.5053 22.8293 15.2219 22.9308 14.8685V14.837H24.8309V14.872C24.8799 15.0679 24.9324 15.2429 24.9779 15.4004C25.0234 15.5578 25.0339 15.6068 25.0583 15.6908C25.0828 15.7748 25.0793 15.7678 25.0863 15.8063C25.1015 15.8714 25.1202 15.9356 25.1423 15.9987C25.1591 16.0585 25.1875 16.1143 25.2258 16.1631C25.2642 16.2119 25.3118 16.2526 25.3659 16.283C25.42 16.3134 25.4795 16.3328 25.5412 16.3402C25.6028 16.3475 25.6652 16.3427 25.725 16.3259C25.7847 16.3091 25.8406 16.2808 25.8893 16.2424C25.9381 16.2041 25.9788 16.1565 26.0092 16.1024C26.0396 16.0483 26.059 15.9887 26.0664 15.9271C26.0738 15.8655 26.0689 15.803 26.0522 15.7433L24.327 9.49003C24.3048 9.39032 24.2495 9.30108 24.17 9.23688C24.0906 9.17269 23.9917 9.13734 23.8896 9.1366ZM24.5894 13.8817H23.1897V13.8292C23.2597 13.5737 23.3332 13.3078 23.4032 13.0418C23.5397 12.5344 23.6796 12.013 23.8161 11.5511L23.8581 11.4077L23.9001 11.5511C24.0331 12.0095 24.173 12.5309 24.3095 13.0348L24.5265 13.8292L24.5894 13.8817ZM23.3402 13.7942H24.474C24.4075 13.5562 24.341 13.3078 24.2745 13.0558C24.152 12.6079 24.0296 12.1425 23.9246 11.7191C23.8021 12.1425 23.6761 12.6114 23.5537 13.0628L23.3402 13.7942Z" fill="#FF6F6F"/>
<path d="M26.6296 15.866V9.61274C26.6283 9.49463 26.6677 9.37968 26.7412 9.2872C26.8147 9.19472 26.9177 9.13035 27.0331 9.1049C27.1484 9.07945 27.269 9.09447 27.3746 9.14744C27.4802 9.20041 27.5643 9.2881 27.6129 9.39578C27.7528 9.70722 27.9033 10.0222 28.0538 10.3336C28.3022 10.883 28.6242 11.5304 28.8726 12.0588C29.1211 11.5304 29.436 10.883 29.6809 10.3336C29.8244 10.0222 29.9749 9.70722 30.1254 9.39578C30.1741 9.28731 30.2587 9.1989 30.3649 9.14542C30.4711 9.09194 30.5925 9.07664 30.7086 9.10209C30.8248 9.12754 30.9286 9.19218 31.0028 9.28517C31.0769 9.37816 31.1168 9.49383 31.1157 9.61274V15.866C31.1157 16.0052 31.0604 16.1387 30.9619 16.2372C30.8635 16.3356 30.73 16.3909 30.5908 16.3909C30.4516 16.3909 30.318 16.3356 30.2196 16.2372C30.1212 16.1387 30.0659 16.0052 30.0659 15.866V11.9293C29.8839 12.3177 29.7159 12.7061 29.562 13.0001C29.485 13.1715 29.3975 13.35 29.324 13.4935C29.2841 13.5837 29.219 13.6605 29.1364 13.7146C29.0538 13.7686 28.9573 13.7975 28.8586 13.7979C28.7578 13.8033 28.6579 13.7768 28.5731 13.7222C28.4883 13.6675 28.4229 13.5875 28.3862 13.4935C28.3092 13.3325 28.2217 13.1715 28.1483 13.0001C28.0083 12.7061 27.8228 12.3002 27.6514 11.9293V15.866C27.6514 16.0052 27.5961 16.1387 27.4976 16.2372C27.3992 16.3356 27.2657 16.3909 27.1265 16.3909C26.9872 16.3909 26.8537 16.3356 26.7553 16.2372C26.6569 16.1387 26.6016 16.0052 26.6016 15.866H26.6296Z" fill="#FF6F6F"/>
<path d="M30.5979 16.4294C30.5239 16.4298 30.4506 16.4156 30.3823 16.3874C30.3139 16.3592 30.2518 16.3176 30.1997 16.2652C30.1476 16.2127 30.1064 16.1504 30.0787 16.0819C30.0509 16.0133 30.0371 15.9399 30.038 15.866V12.1252C29.884 12.4542 29.7336 12.7691 29.6146 13.0175C29.5691 13.119 29.5201 13.2205 29.4711 13.3185L29.3766 13.5144C29.3325 13.6112 29.2616 13.6932 29.1723 13.7509C29.083 13.8086 28.979 13.8394 28.8727 13.8399C28.7639 13.8453 28.6561 13.8169 28.564 13.7587C28.4719 13.7004 28.4001 13.6151 28.3583 13.5144C28.3303 13.448 28.2953 13.3815 28.2639 13.3115C28.2324 13.2415 28.1659 13.119 28.1204 13.0175C27.9699 12.6991 27.8299 12.4017 27.711 12.1357V15.866C27.7171 15.9435 27.7071 16.0214 27.6817 16.0948C27.6562 16.1682 27.6158 16.2356 27.5631 16.2927C27.5103 16.3498 27.4463 16.3953 27.3751 16.4265C27.3039 16.4576 27.2271 16.4737 27.1493 16.4737C27.0716 16.4737 26.9947 16.4576 26.9235 16.4265C26.8523 16.3953 26.7883 16.3498 26.7356 16.2927C26.6828 16.2356 26.6424 16.1682 26.617 16.0948C26.5915 16.0214 26.5816 15.9435 26.5877 15.866V9.61272C26.5834 9.48196 26.6269 9.3541 26.7099 9.25301C26.793 9.15192 26.91 9.0845 27.0391 9.06333C27.1644 9.03302 27.2963 9.04801 27.4116 9.10565C27.5269 9.16329 27.6181 9.25986 27.669 9.37827C27.8019 9.67571 27.9489 9.98015 28.0889 10.2741L28.1099 10.3161C28.2604 10.666 28.4423 11.0159 28.6138 11.3659C28.7118 11.5653 28.8062 11.7613 28.8902 11.9433L29.1002 11.5023C29.2926 11.0999 29.4886 10.68 29.6601 10.3021C29.7965 9.99764 29.9435 9.68971 30.0905 9.39227V9.36427C30.1445 9.24816 30.2364 9.15389 30.3511 9.097C30.4658 9.04011 30.5964 9.02399 30.7215 9.05129C30.8466 9.07859 30.9587 9.14768 31.0393 9.24719C31.1198 9.3467 31.1641 9.47069 31.1648 9.59873V15.852C31.1671 15.9276 31.1542 16.0028 31.1267 16.0733C31.0991 16.1437 31.0577 16.2078 31.0047 16.2618C30.9517 16.3157 30.8883 16.3584 30.8184 16.3872C30.7485 16.416 30.6735 16.4303 30.5979 16.4294ZM30.1255 11.7368V15.866C30.1198 15.9317 30.1279 15.9978 30.1492 16.0602C30.1704 16.1226 30.2044 16.1799 30.249 16.2285C30.2936 16.2771 30.3478 16.3159 30.4081 16.3424C30.4685 16.369 30.5337 16.3827 30.5996 16.3827C30.6656 16.3827 30.7308 16.369 30.7911 16.3424C30.8515 16.3159 30.9057 16.2771 30.9503 16.2285C30.9949 16.1799 31.0289 16.1226 31.0501 16.0602C31.0714 15.9978 31.0794 15.9317 31.0738 15.866V9.61272C31.0759 9.50355 31.0395 9.39711 30.9711 9.31203C30.9026 9.22695 30.8065 9.16864 30.6994 9.14732C30.5927 9.12336 30.4811 9.13712 30.3835 9.18626C30.2858 9.23539 30.2083 9.31685 30.164 9.41676V9.44476C30.0205 9.7422 29.8735 10.0501 29.7371 10.3511C29.5656 10.729 29.3661 11.1489 29.1737 11.5548L28.9287 12.0797L28.8867 12.1637L28.8482 12.0797L28.5333 11.4184C28.3583 11.0684 28.1834 10.687 28.0294 10.3686L28.0084 10.3266C27.8649 10.0326 27.7215 9.7317 27.585 9.43076C27.5405 9.33277 27.4637 9.25308 27.3674 9.20504C27.2711 9.157 27.1612 9.14355 27.0561 9.16694C26.9511 9.19033 26.8573 9.24913 26.7905 9.33349C26.7237 9.41784 26.6879 9.52261 26.6892 9.63022V15.8835C26.6835 15.9492 26.6916 16.0153 26.7128 16.0777C26.7341 16.1401 26.7681 16.1974 26.8127 16.246C26.8573 16.2946 26.9115 16.3334 26.9718 16.3599C27.0322 16.3864 27.0974 16.4001 27.1633 16.4001C27.2293 16.4001 27.2945 16.3864 27.3548 16.3599C27.4152 16.3334 27.4694 16.2946 27.514 16.246C27.5585 16.1974 27.5925 16.1401 27.6138 16.0777C27.6351 16.0153 27.6431 15.9492 27.6375 15.8835V11.7228L27.718 11.9118C27.8579 12.2267 28.0259 12.5871 28.2149 12.9616C28.2604 13.063 28.3093 13.161 28.3548 13.2555L28.4528 13.4585C28.4862 13.5448 28.5463 13.6182 28.6244 13.6679C28.7024 13.7177 28.7944 13.7411 28.8867 13.7349C28.9765 13.735 29.0644 13.7089 29.1396 13.6598C29.2148 13.6107 29.2741 13.5407 29.3101 13.4585L29.4081 13.259C29.4536 13.1645 29.5026 13.0665 29.5481 12.9651C29.6881 12.6711 29.8735 12.2652 30.0555 11.8943L30.1255 11.7368Z" fill="#FF6F6F"/>
<path d="M32.6171 9.13677H34.7761C34.9153 9.13677 35.0489 9.19207 35.1473 9.29051C35.2457 9.38894 35.301 9.52245 35.301 9.66166C35.301 9.80087 35.2457 9.93438 35.1473 10.0328C35.0489 10.1313 34.9153 10.1866 34.7761 10.1866H33.135V12.1287H34.5592C34.6984 12.1287 34.8319 12.184 34.9303 12.2824C35.0288 12.3808 35.0841 12.5144 35.0841 12.6536C35.0841 12.7928 35.0288 12.9263 34.9303 13.0247C34.8319 13.1232 34.6984 13.1785 34.5592 13.1785H33.135V15.334H34.7761C34.9153 15.334 35.0489 15.3893 35.1473 15.4878C35.2457 15.5862 35.301 15.7197 35.301 15.8589C35.301 15.9981 35.2457 16.1316 35.1473 16.2301C35.0489 16.3285 34.9153 16.3838 34.7761 16.3838H32.6171C32.5488 16.3848 32.481 16.372 32.4178 16.3463C32.3545 16.3206 32.297 16.2825 32.2488 16.2342C32.2005 16.186 32.1624 16.1285 32.1367 16.0652C32.111 16.002 32.0982 15.9342 32.0992 15.8659V9.65466C32.0982 9.58639 32.111 9.51862 32.1367 9.45536C32.1624 9.3921 32.2005 9.33464 32.2488 9.28636C32.297 9.23808 32.3545 9.19996 32.4178 9.17427C32.481 9.14858 32.5488 9.13583 32.6171 9.13677Z" fill="#FF6F6F"/>
<path d="M34.7761 16.3836H32.6171C32.5433 16.3845 32.47 16.3707 32.4017 16.3429C32.3333 16.3151 32.2712 16.2739 32.2191 16.2217C32.1669 16.1695 32.1257 16.1074 32.0979 16.0391C32.0701 15.9707 32.0562 15.8975 32.0572 15.8237V9.65442C32.0562 9.58063 32.0701 9.5074 32.0979 9.43905C32.1257 9.3707 32.1669 9.3086 32.2191 9.25642C32.2712 9.20424 32.3333 9.16303 32.4017 9.13523C32.47 9.10743 32.5433 9.09359 32.6171 9.09453H34.7761C34.9246 9.09453 35.067 9.15351 35.172 9.25851C35.277 9.36351 35.336 9.50592 35.336 9.65442C35.336 9.80291 35.277 9.94532 35.172 10.0503C35.067 10.1553 34.9246 10.2143 34.7761 10.2143H33.1805V12.0689H34.5592C34.7005 12.0801 34.8324 12.1441 34.9286 12.2482C35.0248 12.3523 35.0782 12.4888 35.0782 12.6306C35.0782 12.7723 35.0248 12.9088 34.9286 13.0129C34.8324 13.117 34.7005 13.181 34.5592 13.1922H33.1805V15.2638H34.7761C34.9246 15.2638 35.067 15.3228 35.172 15.4278C35.277 15.5328 35.336 15.6752 35.336 15.8237C35.336 15.9722 35.277 16.1146 35.172 16.2196C35.067 16.3246 34.9246 16.3836 34.7761 16.3836ZM32.6171 9.18201C32.5548 9.18107 32.4929 9.19264 32.4352 9.21605C32.3774 9.23945 32.325 9.27422 32.2809 9.31827C32.2369 9.36233 32.2021 9.41478 32.1787 9.47252C32.1553 9.53026 32.1437 9.59212 32.1447 9.65442V15.8237C32.1437 15.886 32.1553 15.9478 32.1787 16.0056C32.2021 16.0633 32.2369 16.1158 32.2809 16.1598C32.325 16.2039 32.3774 16.2386 32.4352 16.2621C32.4929 16.2855 32.5548 16.297 32.6171 16.2961H34.7761C34.9014 16.2961 35.0216 16.2463 35.1102 16.1577C35.1988 16.0691 35.2485 15.949 35.2485 15.8237C35.2485 15.6984 35.1988 15.5782 35.1102 15.4896C35.0216 15.4011 34.9014 15.3513 34.7761 15.3513H33.093V13.0942H34.5592C34.6779 13.084 34.7885 13.0296 34.869 12.9419C34.9496 12.8541 34.9943 12.7392 34.9943 12.6201C34.9943 12.5009 34.9496 12.3861 34.869 12.2983C34.7885 12.2105 34.6779 12.1561 34.5592 12.1459H33.093V10.1163H34.7761C34.9014 10.1163 35.0216 10.0666 35.1102 9.97796C35.1988 9.88937 35.2485 9.76921 35.2485 9.64392C35.2485 9.51863 35.1988 9.39847 35.1102 9.30988C35.0216 9.22128 34.9014 9.17151 34.7761 9.17151L32.6171 9.18201Z" fill="#FF6F6F"/>
</svg>
