<svg width="28" height="27" viewBox="0 0 28 27" fill="none" xmlns="http://www.w3.org/2000/svg">
<path d="M22.3967 24.1463C22.3967 24.559 22.2328 24.9548 21.941 25.2466C21.6492 25.5384 21.2534 25.7023 20.8407 25.7023H2.85043C2.43747 25.7023 2.04137 25.5385 1.74906 25.2468C1.45675 24.9551 1.2921 24.5593 1.29125 24.1463V2.84075C1.2921 2.42778 1.45675 2.03203 1.74906 1.74032C2.04137 1.44862 2.43747 1.28479 2.85043 1.28479H20.8407C21.0728 1.28621 21.3016 1.3394 21.5104 1.44048C21.7193 1.54156 21.903 1.68799 22.0481 1.86908C22.2421 1.8356 22.4386 1.81833 22.6356 1.81743C22.9397 1.81794 23.2425 1.85809 23.5362 1.93687C23.3444 1.373 22.9812 0.883173 22.4973 0.535894C22.0134 0.188614 21.4331 0.00124845 20.8375 0H2.85043C2.09527 0.000852323 1.37124 0.300995 0.836954 0.834672C0.302672 1.36835 0.00170803 2.09204 0 2.8472V24.1528C0.00170803 24.908 0.302672 25.6316 0.836954 26.1653C1.37124 26.699 2.09527 26.9991 2.85043 27H20.8407C21.5956 26.9991 22.3193 26.6989 22.8531 26.1651C23.3868 25.6314 23.6871 24.9077 23.6879 24.1528V15.311L22.3967 16.6022V24.1463Z" fill="#FF6F6F"/>
<path d="M27.1126 6.8919L24.1073 3.88652C23.9144 3.69297 23.6853 3.53939 23.4329 3.43461C23.1806 3.32982 22.9101 3.27588 22.6369 3.27588C22.3636 3.27588 22.0931 3.32982 21.8408 3.43461C21.5885 3.53939 21.3593 3.69297 21.1664 3.88652L20.0076 5.04541L11.2497 13.8033C11.1867 13.867 11.1373 13.9428 11.1044 14.026C11.021 14.1161 10.965 14.2281 10.943 14.3489L9.70985 20.5146C9.69046 20.6095 9.69267 20.7075 9.71631 20.8014C9.73995 20.8953 9.78442 20.9827 9.84642 21.0571C9.90842 21.1315 9.98637 21.191 10.0745 21.2312C10.1626 21.2714 10.2586 21.2913 10.3555 21.2893C10.3974 21.2925 10.4395 21.2925 10.4814 21.2893L16.6697 20.0562C16.7904 20.0342 16.9024 19.9782 16.9925 19.8948C17.0772 19.8627 17.1542 19.8132 17.2185 19.7495L25.9538 10.9916L25.9957 10.9496L27.1126 9.83272C27.3062 9.63987 27.4598 9.41071 27.5646 9.15839C27.6693 8.90606 27.7233 8.63553 27.7233 8.36231C27.7233 8.08909 27.6693 7.81855 27.5646 7.56622C27.4598 7.3139 27.3062 7.08474 27.1126 6.8919ZM11.1657 19.8334L11.9728 15.7789L15.2203 19.0264L11.1657 19.8334ZM16.7407 18.3808L12.6184 14.2585L20.4627 6.41413L24.585 10.5364L16.7407 18.3808ZM26.1991 8.91916L25.5373 9.56478L21.4182 5.45861L22.0639 4.81299C22.2116 4.66534 22.4119 4.5824 22.6207 4.5824C22.8296 4.5824 23.0299 4.66534 23.1776 4.81299L26.1829 7.8216C26.3287 7.96608 26.412 8.1619 26.415 8.36708C26.418 8.57226 26.3405 8.77045 26.1991 8.91916Z" fill="#FF6F6F"/>
<path d="M9.9523 7.01146H4.97131C4.80008 7.01146 4.63586 6.94344 4.51478 6.82236C4.3937 6.70129 4.32568 6.53707 4.32568 6.36584C4.32568 6.19461 4.3937 6.03039 4.51478 5.90931C4.63586 5.78824 4.80008 5.72021 4.97131 5.72021H9.9523C10.1235 5.72021 10.2877 5.78824 10.4088 5.90931C10.5299 6.03039 10.5979 6.19461 10.5979 6.36584C10.5979 6.53707 10.5299 6.70129 10.4088 6.82236C10.2877 6.94344 10.1235 7.01146 9.9523 7.01146Z" fill="#FF6F6F"/>
<path d="M9.9523 10.2266H4.97131C4.80008 10.2266 4.63586 10.1585 4.51478 10.0375C4.3937 9.91637 4.32568 9.75216 4.32568 9.58093C4.32568 9.4097 4.3937 9.24548 4.51478 9.1244C4.63586 9.00333 4.80008 8.9353 4.97131 8.9353H9.9523C10.1235 8.9353 10.2877 9.00333 10.4088 9.1244C10.5299 9.24548 10.5979 9.4097 10.5979 9.58093C10.5979 9.75216 10.5299 9.91637 10.4088 10.0375C10.2877 10.1585 10.1235 10.2266 9.9523 10.2266Z" fill="#FF6F6F"/>
<path d="M21.7759 8.79689L15.0946 15.4781C14.9232 15.6496 14.9232 15.9276 15.0946 16.099L16.5875 17.5918C16.7589 17.7633 17.0369 17.7633 17.2083 17.5918L23.8896 10.9106C24.061 10.7392 24.061 10.4612 23.8896 10.2897L22.3967 8.79689C22.2253 8.62544 21.9473 8.62544 21.7759 8.79689Z" fill="#FFE9B3"/>
</svg>
