<svg width="52" height="43" viewBox="0 0 52 43" fill="none" xmlns="http://www.w3.org/2000/svg">
<path d="M12.9466 23.0686L41.8863 17.2071C43.1559 16.9499 43.9766 15.7123 43.7195 14.4427L41.3244 2.61767C41.0672 1.3481 39.8296 0.52737 38.56 0.784514L9.62035 6.64606C8.35078 6.9032 7.53005 8.14085 7.78719 9.41042L10.1823 21.2354C10.4394 22.505 11.6771 23.3257 12.9466 23.0686Z" fill="white"/>
<path d="M12.4806 23.8675C11.7671 23.8643 11.0765 23.6152 10.5253 23.1623C9.97401 22.7093 9.59574 22.0801 9.45421 21.3808L7.04824 9.57799C6.88612 8.77144 7.0505 7.93352 7.50531 7.24799C7.96012 6.56246 8.66825 6.08529 9.47438 5.92112L38.4115 0.0600498C39.218 -0.100685 40.0552 0.0642571 40.7404 0.518846C41.4256 0.973434 41.903 1.68072 42.0684 2.48619L44.4643 14.3092C44.625 15.1156 44.4601 15.9529 44.0055 16.6381C43.5509 17.3233 42.8436 17.8007 42.0382 17.9661L13.101 23.807C12.8966 23.8471 12.6888 23.8674 12.4806 23.8675ZM39.0269 1.50766C38.9219 1.50775 38.8172 1.51788 38.7142 1.53793L9.77198 7.38387C9.35904 7.46893 8.99663 7.71414 8.76408 8.0658C8.53153 8.41747 8.44778 8.84694 8.53116 9.26022L10.9371 21.0832C11.021 21.4958 11.2652 21.8582 11.6161 22.0908C11.9669 22.3235 12.3958 22.4073 12.8084 22.3241L41.7456 16.463C41.9508 16.423 42.1459 16.342 42.3192 16.2251C42.4925 16.1081 42.6405 15.9574 42.7544 15.7821C42.8705 15.6091 42.9512 15.4149 42.9919 15.2106C43.0326 15.0063 43.0324 14.7959 42.9915 14.5917L40.5855 2.76865C40.5101 2.41138 40.3141 2.09096 40.0302 1.8613C39.7463 1.63164 39.392 1.50676 39.0269 1.50766Z" fill="#FF6F6F"/>
<path d="M13.4152 23.1708L42.811 20.3869C44.1006 20.2648 45.047 19.1204 44.9249 17.8308L43.7873 5.81939C43.6652 4.52981 42.5208 3.5834 41.2312 3.70553L11.8354 6.48943C10.5459 6.61156 9.59945 7.75597 9.72158 9.04555L10.8591 21.0569C10.9812 22.3465 12.1256 23.2929 13.4152 23.1708Z" fill="white"/>
<path d="M13.1915 23.938C12.42 23.9365 11.6766 23.6481 11.1061 23.1288C10.5355 22.6095 10.1785 21.8965 10.1046 21.1285L8.96974 9.11884C8.93082 8.71337 8.97226 8.30421 9.09171 7.91478C9.21115 7.52536 9.40624 7.16332 9.66581 6.8494C9.92538 6.53548 10.2443 6.27585 10.6044 6.08538C10.9644 5.89491 11.3585 5.77733 11.7641 5.73939L41.1602 2.95513C41.9789 2.87789 42.7947 3.12884 43.4284 3.65281C44.062 4.17679 44.4618 4.93092 44.5397 5.74948L45.6796 17.7591C45.7185 18.165 45.6765 18.5746 45.5562 18.9642C45.4358 19.3538 45.2395 19.7156 44.9785 20.0289C44.7216 20.3457 44.4033 20.6074 44.0427 20.798C43.6821 20.9887 43.2867 21.1046 42.8802 21.1386L13.4841 23.9228C13.3869 23.9329 13.2892 23.938 13.1915 23.938ZM41.4377 4.45319H41.2863L11.9053 7.24249C11.4856 7.28336 11.0991 7.48891 10.8306 7.81413C10.5621 8.13935 10.4335 8.55772 10.4728 8.97761L11.6128 20.9873C11.6317 21.1951 11.6916 21.3972 11.789 21.5819C11.8863 21.7665 12.0192 21.9301 12.1799 22.0632C12.3407 22.1964 12.5262 22.2964 12.7258 22.3576C12.9254 22.4188 13.1351 22.4399 13.3428 22.4197L42.739 19.6355C43.1582 19.5933 43.5439 19.3874 43.8121 19.0625C44.0803 18.7376 44.2095 18.32 44.1715 17.9004L43.0316 5.89071C42.994 5.49781 42.8115 5.13296 42.5196 4.86723C42.2278 4.60149 41.8475 4.4539 41.4528 4.45319H41.4377Z" fill="#FF6F6F"/>
<path d="M39.6574 6.49609H10.1301C8.83476 6.49609 7.78467 7.54618 7.78467 8.84153V20.9067C7.78467 22.202 8.83476 23.2521 10.1301 23.2521H39.6574C40.9528 23.2521 42.0028 22.202 42.0028 20.9067V8.84153C42.0028 7.54618 40.9528 6.49609 39.6574 6.49609Z" fill="white"/>
<path d="M39.6572 24.0087H10.1299C9.30756 24.0074 8.51932 23.6801 7.93787 23.0987C7.35641 22.5172 7.02917 21.729 7.02783 20.9067V8.84153C7.02917 8.01923 7.35641 7.23099 7.93787 6.64954C8.51932 6.06808 9.30756 5.74084 10.1299 5.7395H39.6572C40.4795 5.74084 41.2677 6.06808 41.8492 6.64954C42.4306 7.23099 42.7579 8.01923 42.7592 8.84153V20.9067C42.7579 21.729 42.4306 22.5172 41.8492 23.0987C41.2677 23.6801 40.4795 24.0074 39.6572 24.0087ZM10.1299 7.25269C9.70848 7.25269 9.30435 7.42008 9.00638 7.71805C8.70841 8.01602 8.54102 8.42015 8.54102 8.84153V20.9067C8.54102 21.1153 8.58212 21.3219 8.66196 21.5147C8.74181 21.7075 8.85884 21.8826 9.00638 22.0302C9.15392 22.1777 9.32907 22.2947 9.52184 22.3746C9.71461 22.4544 9.92121 22.4955 10.1299 22.4955H39.6572C40.0781 22.4942 40.4815 22.3264 40.7792 22.0287C41.0769 21.731 41.2447 21.3276 41.246 20.9067V8.84153C41.2447 8.42056 41.0769 8.0172 40.7792 7.71952C40.4815 7.42184 40.0781 7.25402 39.6572 7.25269H10.1299Z" fill="#FF6F6F"/>
<path d="M16.0822 16.3218V12.327C16.0799 11.8927 16.2218 11.4698 16.4856 11.1248C16.7494 10.7798 17.1202 10.532 17.5399 10.4204C17.9599 10.301 18.4078 10.3267 18.8114 10.4933C19.215 10.6599 19.5507 10.9576 19.7643 11.3384C19.8014 11.4015 19.8256 11.4714 19.8355 11.544C19.8454 11.6166 19.8408 11.6904 19.8221 11.7612C19.8033 11.832 19.7707 11.8984 19.7262 11.9566C19.6816 12.0147 19.626 12.0635 19.5625 12.1C19.4306 12.1708 19.2764 12.1883 19.1319 12.1489C18.9874 12.1095 18.8635 12.0162 18.7858 11.8882C18.6941 11.7252 18.55 11.5981 18.3769 11.5276C18.2038 11.4571 18.0119 11.4473 17.8325 11.4998C17.6539 11.5477 17.4962 11.6533 17.384 11.8002C17.2718 11.9471 17.2113 12.127 17.2121 12.3118V16.3067C17.2062 16.4952 17.2642 16.6801 17.3765 16.8316C17.4889 16.983 17.6492 17.0921 17.8313 17.1412C18.0134 17.1902 18.2067 17.1763 18.38 17.1017C18.5532 17.0272 18.6962 16.8963 18.7858 16.7303C18.8635 16.6023 18.9874 16.509 19.1319 16.4696C19.2764 16.4302 19.4306 16.4477 19.5625 16.5185C19.6281 16.555 19.6855 16.6044 19.7314 16.6638C19.7773 16.7231 19.8107 16.7911 19.8296 16.8637C19.8484 16.9363 19.8524 17.012 19.8411 17.0862C19.8299 17.1604 19.8038 17.2315 19.7643 17.2953C19.5467 17.674 19.2096 17.9698 18.8058 18.1362C18.402 18.3027 17.9543 18.3303 17.5331 18.2149C17.1119 18.0995 16.7408 17.8476 16.4783 17.4985C16.2157 17.1495 16.0764 16.7232 16.0822 16.2865V16.3218Z" fill="#FF6F6F"/>
<path d="M24.7174 18.2737C24.6462 18.2951 24.5714 18.302 24.4975 18.294C24.4236 18.286 24.352 18.2632 24.2871 18.2269C24.2222 18.1907 24.1652 18.1418 24.1195 18.0831C24.0739 18.0244 24.0405 17.9572 24.0213 17.8853C23.9843 17.7746 23.954 17.6617 23.9305 17.5474C23.87 17.3204 23.7742 17.043 23.6834 16.6546H21.6658C21.5599 17.0178 21.4792 17.3204 21.4186 17.5474C21.3833 17.6735 21.3632 17.7945 21.3278 17.8853C21.2785 18.0181 21.1811 18.1275 21.0549 18.1918C20.9287 18.2561 20.7829 18.2707 20.6465 18.2326C20.51 18.1945 20.3929 18.1066 20.3182 17.9862C20.2436 17.8658 20.2169 17.7218 20.2434 17.5827L22.1248 10.7582C22.1591 10.6409 22.2304 10.538 22.3282 10.4647C22.426 10.3914 22.5448 10.3518 22.667 10.3518C22.7892 10.3518 22.9081 10.3914 23.0058 10.4647C23.1036 10.538 23.175 10.6409 23.2092 10.7582L25.0906 17.5827C25.1116 17.6526 25.1185 17.7259 25.1111 17.7984C25.1037 17.871 25.082 17.9414 25.0473 18.0056C25.0126 18.0698 24.9657 18.1265 24.909 18.1725C24.8524 18.2185 24.7873 18.2529 24.7174 18.2737ZM22.6998 13.0431C22.4779 13.8048 22.2408 14.7127 22.0189 15.5247H23.3858C23.1386 14.7127 22.9066 13.8048 22.6796 13.0431H22.6998Z" fill="#FF6F6F"/>
<path d="M28.2932 16.337C28.3059 16.2084 28.2903 16.0786 28.2476 15.9566C28.2049 15.8346 28.1361 15.7234 28.046 15.6308L26.1646 13.699C25.9673 13.5026 25.8153 13.2653 25.7195 13.0039C25.6236 12.7425 25.5862 12.4632 25.6098 12.1858C25.6298 11.9069 25.7096 11.6356 25.8436 11.3902C25.9776 11.1448 26.1628 10.931 26.3866 10.7634C26.6116 10.5957 26.8691 10.4768 27.1427 10.4143C27.4163 10.3517 27.6999 10.3469 27.9754 10.4002C28.25 10.4565 28.5094 10.5706 28.7364 10.735C28.9634 10.8993 29.1528 11.1102 29.2919 11.3535C29.3564 11.4804 29.372 11.6266 29.3357 11.7643C29.2995 11.9019 29.2138 12.0214 29.0952 12.1001C28.9653 12.173 28.8118 12.1916 28.6682 12.1519C28.5246 12.1123 28.4025 12.0175 28.3285 11.8882C28.2675 11.7844 28.1859 11.6941 28.0888 11.623C27.9916 11.5519 27.881 11.5014 27.7636 11.4746C27.6448 11.4515 27.5224 11.4544 27.4048 11.4831C27.2873 11.5119 27.1774 11.5658 27.0826 11.6411C26.985 11.711 26.9047 11.8024 26.8479 11.9082C26.7911 12.014 26.7592 12.1314 26.7548 12.2514C26.7421 12.37 26.7568 12.4899 26.7979 12.6019C26.8391 12.7138 26.9054 12.8148 26.9918 12.897L28.8581 14.8238C29.0627 15.0297 29.2204 15.2774 29.3205 15.5498C29.4206 15.8223 29.4607 16.1132 29.4382 16.4025C29.4144 16.6896 29.3307 16.9686 29.1926 17.2214C29.0545 17.4742 28.8649 17.6952 28.6362 17.8703C28.4075 18.0467 28.1437 18.1719 27.8626 18.2375C27.5814 18.3031 27.2894 18.3077 27.0064 18.2508C26.7233 18.1939 26.4557 18.0769 26.2218 17.9077C25.9878 17.7385 25.7929 17.5211 25.6501 17.2701C25.6098 17.2072 25.5829 17.1367 25.5709 17.063C25.559 16.9893 25.5624 16.9139 25.5808 16.8415C25.5993 16.7691 25.6324 16.7013 25.6782 16.6423C25.724 16.5833 25.7814 16.5343 25.8469 16.4984C25.9783 16.425 26.1333 16.4061 26.2785 16.4457C26.4237 16.4853 26.5477 16.5803 26.6236 16.7102C26.6874 16.8222 26.7746 16.9191 26.8793 16.9942C26.984 17.0693 27.1037 17.1208 27.2302 17.1453C27.3568 17.1697 27.4871 17.1665 27.6122 17.1358C27.7374 17.1051 27.8544 17.0477 27.9552 16.9675C28.0534 16.8927 28.1343 16.7977 28.1926 16.6889C28.2509 16.5801 28.2852 16.4601 28.2932 16.337Z" fill="#FF6F6F"/>
<path d="M33.7157 10.3497C33.7901 10.349 33.8638 10.3632 33.9327 10.3913C34.0015 10.4195 34.0641 10.4611 34.1167 10.5137C34.1693 10.5662 34.2108 10.6288 34.239 10.6976C34.2672 10.7665 34.2813 10.8402 34.2806 10.9146V17.734C34.2806 17.8839 34.2211 18.0276 34.1152 18.1335C34.0092 18.2394 33.8655 18.299 33.7157 18.299C33.5659 18.299 33.4222 18.2394 33.3162 18.1335C33.2103 18.0276 33.1508 17.8839 33.1508 17.734V14.7732H31.456V17.734C31.456 17.8839 31.3965 18.0276 31.2906 18.1335C31.1846 18.2394 31.0409 18.299 30.8911 18.299C30.7413 18.299 30.5976 18.2394 30.4916 18.1335C30.3857 18.0276 30.3262 17.8839 30.3262 17.734V10.9146C30.3262 10.7648 30.3857 10.6211 30.4916 10.5152C30.5976 10.4092 30.7413 10.3497 30.8911 10.3497C31.0409 10.3497 31.1846 10.4092 31.2906 10.5152C31.3965 10.6211 31.456 10.7648 31.456 10.9146V13.6434H33.1306V10.9146C33.1298 10.8385 33.1446 10.763 33.174 10.6928C33.2034 10.6226 33.2468 10.5591 33.3016 10.5062C33.3563 10.4533 33.4213 10.4122 33.4925 10.3853C33.5637 10.3584 33.6397 10.3463 33.7157 10.3497Z" fill="#FF6F6F"/>
<path d="M49.5437 21.1135H19.1388C18.2 21.1135 17.439 21.8746 17.439 22.8133V40.0334C17.439 40.9722 18.2 41.7332 19.1388 41.7332H49.5437C50.4825 41.7332 51.2435 40.9722 51.2435 40.0334V22.8133C51.2435 21.8746 50.4825 21.1135 49.5437 21.1135Z" fill="white"/>
<path d="M49.5435 42.4948H19.1385C18.4875 42.4935 17.8634 42.2343 17.4031 41.7739C16.9427 41.3135 16.6835 40.6895 16.6821 40.0384V22.8133C16.6835 22.1623 16.9427 21.5382 17.4031 21.0779C17.8634 20.6175 18.4875 20.3583 19.1385 20.3569H49.5435C50.1946 20.3583 50.8186 20.6175 51.279 21.0779C51.7393 21.5382 51.9986 22.1623 51.9999 22.8133V40.0384C51.9986 40.6895 51.7393 41.3135 51.279 41.7739C50.8186 42.2343 50.1946 42.4935 49.5435 42.4948ZM19.1385 21.8701C19.0147 21.8701 18.892 21.8945 18.7776 21.9419C18.6631 21.9893 18.5592 22.0588 18.4716 22.1464C18.384 22.234 18.3145 22.3379 18.2671 22.4524C18.2197 22.5668 18.1953 22.6895 18.1953 22.8133V40.0384C18.1953 40.1623 18.2197 40.285 18.2671 40.3994C18.3145 40.5138 18.384 40.6178 18.4716 40.7054C18.5592 40.793 18.6631 40.8625 18.7776 40.9099C18.892 40.9573 19.0147 40.9817 19.1385 40.9817H49.5435C49.6674 40.9817 49.79 40.9573 49.9044 40.9099C50.0189 40.8625 50.1229 40.793 50.2104 40.7054C50.298 40.6178 50.3675 40.5138 50.4149 40.3994C50.4623 40.285 50.4867 40.1623 50.4867 40.0384V22.8133C50.4867 22.6895 50.4623 22.5668 50.4149 22.4524C50.3675 22.3379 50.298 22.234 50.2104 22.1464C50.1229 22.0588 50.0189 21.9893 49.9044 21.9419C49.79 21.8945 49.6674 21.8701 49.5435 21.8701H19.1385Z" fill="#FF6F6F"/>
<path d="M50.5576 24.8662H18.1553V29.9253H50.5576V24.8662Z" fill="#FFB7B2"/>
<path d="M28.2579 38.278C29.8207 38.278 31.0875 37.0111 31.0875 35.4483C31.0875 33.8855 29.8207 32.6187 28.2579 32.6187C26.6951 32.6187 25.4282 33.8855 25.4282 35.4483C25.4282 37.0111 26.6951 38.278 28.2579 38.278Z" fill="#FDE561"/>
<path d="M23.4107 38.278C24.9735 38.278 26.2404 37.0111 26.2404 35.4483C26.2404 33.8855 24.9735 32.6187 23.4107 32.6187C21.8479 32.6187 20.5811 33.8855 20.5811 35.4483C20.5811 37.0111 21.8479 38.278 23.4107 38.278Z" fill="#FD6A6E"/>
<path d="M48.2625 33.7891H44.1265C44.0728 33.7953 44.0184 33.79 43.9669 33.7737C43.9153 33.7574 43.8678 33.7304 43.8275 33.6944C43.7871 33.6584 43.7549 33.6144 43.7328 33.565C43.7106 33.5157 43.6992 33.4623 43.6992 33.4082C43.6992 33.3542 43.7106 33.3008 43.7328 33.2514C43.7549 33.2021 43.7871 33.158 43.8275 33.1221C43.8678 33.0861 43.9153 33.0591 43.9669 33.0428C44.0184 33.0265 44.0728 33.0212 44.1265 33.0274H48.2625C48.3162 33.0212 48.3706 33.0265 48.4221 33.0428C48.4736 33.0591 48.5211 33.0861 48.5615 33.1221C48.6018 33.158 48.6341 33.2021 48.6562 33.2514C48.6783 33.3008 48.6897 33.3542 48.6897 33.4082C48.6897 33.4623 48.6783 33.5157 48.6562 33.565C48.6341 33.6144 48.6018 33.6584 48.5615 33.6944C48.5211 33.7304 48.4736 33.7574 48.4221 33.7737C48.3706 33.79 48.3162 33.7953 48.2625 33.7891Z" fill="#FF6F6F"/>
<path d="M48.2625 35.8066H44.1265C44.0728 35.8128 44.0184 35.8076 43.9669 35.7913C43.9153 35.775 43.8678 35.7479 43.8275 35.712C43.7871 35.676 43.7549 35.6319 43.7328 35.5826C43.7106 35.5333 43.6992 35.4799 43.6992 35.4258C43.6992 35.3718 43.7106 35.3183 43.7328 35.269C43.7549 35.2197 43.7871 35.1756 43.8275 35.1397C43.8678 35.1037 43.9153 35.0767 43.9669 35.0604C44.0184 35.044 44.0728 35.0388 44.1265 35.045H48.2625C48.3162 35.0388 48.3706 35.044 48.4221 35.0604C48.4736 35.0767 48.5211 35.1037 48.5615 35.1397C48.6018 35.1756 48.6341 35.2197 48.6562 35.269C48.6783 35.3183 48.6897 35.3718 48.6897 35.4258C48.6897 35.4799 48.6783 35.5333 48.6562 35.5826C48.6341 35.6319 48.6018 35.676 48.5615 35.712C48.5211 35.7479 48.4736 35.775 48.4221 35.7913C48.3706 35.8076 48.3162 35.8128 48.2625 35.8066Z" fill="#FF6F6F"/>
<path d="M48.2625 37.7939H44.1265C44.0728 37.8001 44.0184 37.7949 43.9669 37.7786C43.9153 37.7623 43.8678 37.7353 43.8275 37.6993C43.7871 37.6633 43.7549 37.6192 43.7328 37.5699C43.7106 37.5206 43.6992 37.4672 43.6992 37.4131C43.6992 37.3591 43.7106 37.3056 43.7328 37.2563C43.7549 37.207 43.7871 37.1629 43.8275 37.127C43.8678 37.091 43.9153 37.064 43.9669 37.0477C44.0184 37.0314 44.0728 37.0261 44.1265 37.0323H48.2625C48.3162 37.0261 48.3706 37.0314 48.4221 37.0477C48.4736 37.064 48.5211 37.091 48.5615 37.127C48.6018 37.1629 48.6341 37.207 48.6562 37.2563C48.6783 37.3056 48.6897 37.3591 48.6897 37.4131C48.6897 37.4672 48.6783 37.5206 48.6562 37.5699C48.6341 37.6192 48.6018 37.6633 48.5615 37.6993C48.5211 37.7353 48.4736 37.7623 48.4221 37.7786C48.3706 37.7949 48.3162 37.8001 48.2625 37.7939Z" fill="#FF6F6F"/>
<path d="M19.9811 26.9189C19.8117 26.7068 19.5686 26.5664 19.3002 26.5255L19.0631 26.4801L17.7315 26.2229C17.6596 25.8786 17.5583 25.5411 17.4289 25.2141L17.9333 24.74L18.5688 24.1296C18.6804 24.0346 18.7718 23.918 18.8375 23.787C18.9032 23.6559 18.9419 23.513 18.9513 23.3667C18.9607 23.2203 18.9407 23.0736 18.8923 22.9352C18.8439 22.7968 18.7682 22.6696 18.6697 22.561C18.1653 21.9422 17.6609 21.3269 17.1565 20.7149C17.068 20.5993 16.9575 20.5023 16.8314 20.4296C16.7053 20.3568 16.5661 20.3097 16.4217 20.291C16.2773 20.2722 16.1307 20.2822 15.9901 20.3203C15.8496 20.3584 15.7181 20.424 15.603 20.5131L14.9472 20.9671L14.3218 21.4009C14.0309 21.2065 13.7238 21.0378 13.4038 20.8965C13.4038 20.503 13.4038 20.1146 13.4038 19.7212V19.3328C13.4147 19.1855 13.3959 19.0376 13.3484 18.8977C13.3009 18.7578 13.2257 18.629 13.1273 18.5188C13.0289 18.4087 12.9094 18.3195 12.7758 18.2565C12.6421 18.1936 12.4972 18.1582 12.3496 18.1526L10.0193 17.9256C9.87462 17.902 9.72667 17.9078 9.58426 17.9425C9.44184 17.9773 9.30785 18.0403 9.19024 18.1278C9.07263 18.2153 8.97379 18.3255 8.8996 18.4519C8.8254 18.5784 8.77736 18.7184 8.75832 18.8638C8.66248 19.3681 8.56665 19.8725 8.47586 20.4072C8.12815 20.4676 7.78929 20.571 7.46707 20.7149L6.90214 20.1701L6.39775 19.6304C6.20668 19.4222 5.94248 19.2959 5.66044 19.2781C5.37839 19.2602 5.10037 19.3521 4.88456 19.5346L3.0183 21.0478C2.795 21.2248 2.64952 21.4819 2.61279 21.7644C2.57605 22.047 2.65096 22.3328 2.82158 22.561C2.98299 22.7879 3.13935 23.02 3.30076 23.252C3.46217 23.484 3.56809 23.6454 3.70932 23.8472C3.51707 24.1375 3.34839 24.4428 3.20492 24.7601H1.62112C1.47367 24.7492 1.32553 24.7682 1.18563 24.816C1.04574 24.8639 0.91699 24.9396 0.807158 25.0386C0.697327 25.1376 0.608691 25.2578 0.546599 25.392C0.484506 25.5262 0.450245 25.6716 0.445883 25.8194C0.370223 26.6113 0.289521 27.4032 0.213861 28.1951C0.193245 28.3376 0.201083 28.4828 0.236924 28.6222C0.272765 28.7617 0.335896 28.8927 0.422668 29.0076C0.509441 29.1225 0.618132 29.2191 0.742458 29.2917C0.866784 29.3644 1.00428 29.4116 1.14699 29.4308C1.65139 29.5267 2.15578 29.6225 2.70557 29.7133C2.77671 30.0572 2.87625 30.3946 3.00317 30.7221L2.49877 31.2265L1.85819 31.8015C1.74935 31.8963 1.66043 32.0118 1.59661 32.1413C1.53278 32.2708 1.49533 32.4116 1.48641 32.5557C1.47749 32.6998 1.49729 32.8442 1.54467 32.9805C1.59204 33.1169 1.66603 33.2425 1.76235 33.35C2.26675 33.9704 2.77115 34.5858 3.27554 35.2062C3.36359 35.3216 3.47362 35.4184 3.59929 35.4911C3.72497 35.5638 3.86379 35.6109 4.00775 35.6297C4.15171 35.6484 4.29797 35.6385 4.43807 35.6004C4.57817 35.5624 4.70935 35.4969 4.82403 35.4079L5.53523 34.9035L6.1052 34.5101C6.39801 34.7012 6.70489 34.8698 7.0232 35.0145C7.0232 35.5189 7.0232 36.0636 7.0232 36.5882C7.01365 36.7332 7.03307 36.8787 7.08034 37.0161C7.1276 37.1535 7.20176 37.2801 7.29848 37.3886C7.3952 37.4971 7.51254 37.5852 7.64368 37.6478C7.77481 37.7104 7.9171 37.7463 8.06225 37.7534L10.4279 37.9854C10.5665 38.0084 10.7079 38.0084 10.8465 37.9854C11.0605 37.9329 11.2538 37.8173 11.4013 37.6536C11.5488 37.4899 11.6437 37.2857 11.6737 37.0674L11.704 36.8959C11.7897 36.4419 11.8704 35.988 11.9562 35.5189C12.3004 35.4491 12.638 35.3496 12.965 35.2213L13.4694 35.7257C13.6711 35.9274 13.8678 36.1342 14.0646 36.336C14.1591 36.4467 14.2749 36.5373 14.4051 36.6025C14.5353 36.6677 14.6773 36.7061 14.8225 36.7155C14.9678 36.7249 15.1136 36.7051 15.2511 36.6573C15.3886 36.6094 15.5151 36.5345 15.6231 36.4369L17.4692 34.9237C17.5867 34.836 17.6853 34.7256 17.7593 34.5991C17.8333 34.4726 17.8811 34.3325 17.9 34.1871C17.9188 34.0417 17.9082 33.8941 17.8689 33.7529C17.8295 33.6117 17.7622 33.4798 17.671 33.3651L17.1666 32.6388L16.7832 32.084C16.9776 31.7949 17.1463 31.4894 17.2876 31.171H18.9017C19.1763 31.1801 19.444 31.0847 19.6509 30.904C19.8578 30.7233 19.9885 30.4708 20.0164 30.1975C20.0971 29.446 20.1728 28.6843 20.2434 27.9378V27.7008C20.2554 27.5594 20.2382 27.4172 20.1931 27.2827C20.148 27.1483 20.0759 27.0245 19.9811 26.9189ZM16.4857 30.1219C16.3948 30.1924 16.3279 30.2893 16.294 30.3993C16.1101 30.8587 15.8767 31.2967 15.5979 31.7057C15.5114 31.8098 15.464 31.941 15.464 32.0764C15.464 32.2118 15.5114 32.343 15.5979 32.4471C15.951 32.9515 16.3091 33.4559 16.6622 33.9603C16.6607 33.9703 16.6607 33.9805 16.6622 33.9906H16.637L14.8565 35.4533L13.545 34.1015C13.4619 34.0014 13.3474 33.9325 13.22 33.9059C13.0927 33.8793 12.9601 33.8967 12.8439 33.9553C12.3807 34.1543 11.8969 34.3015 11.4013 34.3941C11.2731 34.41 11.1538 34.4682 11.0625 34.5596C10.9711 34.651 10.9128 34.7702 10.897 34.8985L10.5388 36.8152H10.5136L8.21357 36.5882H8.18331L8.21357 34.732C8.2331 34.588 8.19926 34.4418 8.11842 34.321C8.03758 34.2002 7.91534 34.1132 7.77475 34.0763C7.33054 33.8933 6.9063 33.6651 6.50872 33.3954C6.40186 33.3041 6.26592 33.2539 6.12537 33.2539C5.98483 33.2539 5.84889 33.3041 5.74203 33.3954L4.22885 34.4496H4.19858C4.18612 34.4401 4.1758 34.428 4.16832 34.4143L2.71566 32.6489V32.6186L2.74592 32.5883L3.99178 31.3778C4.11927 31.2632 4.20668 31.1107 4.24117 30.9428C4.27567 30.7748 4.25544 30.6003 4.18345 30.4447C4.01182 30.0272 3.88501 29.5926 3.80516 29.1484C3.78801 29.0155 3.72538 28.8926 3.62792 28.8007C3.53045 28.7087 3.40416 28.6534 3.2705 28.644L1.4345 28.306H1.35379V28.2405L1.58077 25.9555V25.9202H1.61103H3.48234C3.61918 25.9357 3.75712 25.9028 3.87226 25.8273C3.98741 25.7517 4.07251 25.6383 4.11284 25.5066C4.29526 25.0532 4.5252 24.6204 4.79882 24.2154C4.88654 24.1088 4.9345 23.9751 4.9345 23.8371C4.9345 23.6991 4.88654 23.5653 4.79882 23.4588L3.73454 21.9456V21.9153H3.75976L5.52514 20.4627H5.56045H5.59072L6.90214 21.7993C6.98757 21.9117 7.11101 21.989 7.24936 22.0168C7.3877 22.0447 7.53145 22.0212 7.65369 21.9506C8.09257 21.7519 8.55546 21.6112 9.03069 21.532C9.17243 21.5236 9.30616 21.4635 9.40656 21.3631C9.50696 21.2627 9.56704 21.129 9.57544 20.9873L9.89321 19.1613H9.92851L12.2487 19.3883V21.2748C12.2304 21.414 12.2633 21.5552 12.3412 21.6721C12.4191 21.789 12.5368 21.8736 12.6724 21.9103C13.1231 22.0919 13.5527 22.3219 13.9536 22.5963C14.0605 22.6876 14.1964 22.7377 14.3369 22.7377C14.4775 22.7377 14.6134 22.6876 14.7203 22.5963L16.2637 21.527L17.7769 23.3478H17.7517C17.3129 23.7816 16.869 24.2103 16.4251 24.6391C16.3141 24.7242 16.2369 24.846 16.2074 24.9827C16.1778 25.1194 16.1978 25.2622 16.2637 25.3856C16.4554 25.8362 16.5974 26.3064 16.6874 26.7878C16.7061 26.9192 16.7686 27.0404 16.8647 27.1319C16.9608 27.2235 17.0849 27.2799 17.217 27.2922L19.0682 27.6301H19.0934V27.6554L18.8664 29.9705L16.985 29.9403C16.8934 29.9306 16.8009 29.9419 16.7143 29.9733C16.6278 30.0048 16.5496 30.0556 16.4857 30.1219Z" fill="#FF6F6F"/>
<path d="M10.5639 38.1771H10.4076L8.047 37.9451C7.7071 37.9256 7.38866 37.7726 7.16101 37.5194C6.93335 37.2662 6.81489 36.9334 6.83141 36.5933C6.83141 36.089 6.83141 35.6249 6.83141 35.1407C6.58312 35.0264 6.34222 34.8967 6.11013 34.7523L5.53511 35.1508L4.93488 35.5694C4.8014 35.6735 4.64861 35.7502 4.48533 35.7949C4.32206 35.8396 4.15154 35.8515 3.98363 35.83C3.81573 35.8084 3.65376 35.7537 3.50709 35.6692C3.36043 35.5847 3.23197 35.4719 3.12915 35.3374L1.61596 33.4762C1.39451 33.2215 1.28204 32.89 1.3028 32.5531C1.32355 32.2163 1.47588 31.9011 1.72693 31.6755L2.29185 31.1307L2.35238 31.0702L2.76598 30.6667C2.67318 30.4122 2.59404 30.1529 2.52892 29.8899L1.09644 29.6276C0.761922 29.5789 0.460229 29.3999 0.257098 29.1297C0.0539677 28.8595 -0.0341363 28.52 0.011985 28.1851C0.0876443 27.3932 0.163303 26.6013 0.244006 25.8094C0.252368 25.6415 0.293948 25.4769 0.366342 25.3252C0.438735 25.1735 0.540504 25.0376 0.665755 24.9255C0.791006 24.8134 0.937253 24.7273 1.09603 24.672C1.2548 24.6168 1.42295 24.5937 1.59074 24.6039H1.7471H3.04845C3.16197 24.3578 3.28998 24.1186 3.43179 23.8876L3.04845 23.3278L2.6298 22.6922C2.43231 22.4239 2.34666 22.0894 2.39088 21.7591C2.4351 21.4289 2.60574 21.1287 2.86686 20.9218C3.48559 20.4073 4.10936 19.9029 4.73817 19.4086C4.99119 19.1878 5.32106 19.0756 5.65626 19.0963C5.99146 19.1171 6.30496 19.2692 6.52877 19.5196L7.53756 20.5586C7.79263 20.4561 8.05584 20.3751 8.32442 20.3165C8.41017 19.8121 8.50096 19.3683 8.58671 18.8992C8.60949 18.7308 8.66566 18.5687 8.75191 18.4224C8.83817 18.276 8.95278 18.1484 9.08902 18.0469C9.22526 17.9454 9.38039 17.8722 9.54531 17.8314C9.71024 17.7907 9.88163 17.7833 10.0495 17.8097L12.3848 18.0366C12.5558 18.045 12.7234 18.0873 12.8779 18.161C13.0324 18.2347 13.1707 18.3384 13.2848 18.4661C13.3989 18.5938 13.4864 18.7428 13.5423 18.9046C13.5982 19.0664 13.6214 19.2378 13.6105 19.4086V19.7919C13.6105 20.145 13.6105 20.493 13.6105 20.8461C13.8587 20.9586 14.0997 21.0866 14.3318 21.2295L14.8362 20.8663L15.4919 20.4123C15.6259 20.3091 15.779 20.2334 15.9424 20.1895C16.1058 20.1455 16.2762 20.1342 16.4439 20.1562C16.6117 20.1783 16.7734 20.2332 16.9199 20.3178C17.0664 20.4024 17.1947 20.5151 17.2976 20.6494L18.8108 22.4955C18.9234 22.6229 19.0097 22.7712 19.0648 22.932C19.1199 23.0928 19.1428 23.2629 19.132 23.4325C19.1212 23.6022 19.077 23.768 19.002 23.9206C18.927 24.0731 18.8226 24.2093 18.6948 24.3214L18.0492 24.9116L17.6507 25.2999C17.7465 25.5534 17.8257 25.8129 17.8878 26.0767L19.0983 26.2986L19.3354 26.339C19.6469 26.3893 19.9288 26.5527 20.1273 26.798C20.2355 26.9272 20.3166 27.0768 20.366 27.238C20.4154 27.3991 20.432 27.5685 20.4148 27.7362L20.3896 27.9682C20.3189 28.7248 20.2483 29.4814 20.1676 30.2329C20.1359 30.5521 19.9847 30.8475 19.7442 31.0599C19.5038 31.2722 19.192 31.3858 18.8713 31.3779H17.3581C17.2482 31.6115 17.1252 31.8389 16.9899 32.0588L17.3531 32.5632C17.4994 32.7801 17.6507 32.997 17.802 33.2089C17.9068 33.3432 17.9838 33.497 18.0286 33.6614C18.0735 33.8258 18.0852 33.9974 18.0631 34.1663C18.0411 34.3353 17.9857 34.4981 17.9002 34.6455C17.8146 34.7928 17.7007 34.9217 17.5649 35.0247C16.9496 35.5291 16.3342 36.0335 15.7189 36.5379C15.5923 36.6501 15.4448 36.7363 15.2849 36.7912C15.1249 36.8462 14.9556 36.869 14.7868 36.8582C14.618 36.8474 14.4529 36.8033 14.3013 36.7284C14.1496 36.6535 14.0142 36.5493 13.903 36.4219C13.7063 36.2151 13.5096 36.0133 13.3078 35.8115L12.8993 35.3929C12.6455 35.4879 12.3861 35.5671 12.1225 35.63C12.0469 36.0536 11.9712 36.4672 11.8955 36.8809L11.8602 37.0523C11.8236 37.3067 11.7118 37.5444 11.5393 37.7349C11.3668 37.9254 11.1413 38.06 10.8918 38.1217C10.7846 38.1511 10.6748 38.1696 10.5639 38.1771ZM6.1303 34.2933L6.23622 34.3639C6.51878 34.5458 6.81568 34.7044 7.12396 34.8381L7.23997 34.8885V35.0146C7.23997 35.519 7.23997 36.0688 7.23997 36.5933C7.23107 36.7148 7.24683 36.8368 7.2863 36.952C7.32578 37.0672 7.38815 37.1732 7.46967 37.2637C7.55119 37.3542 7.65017 37.4272 7.76066 37.4785C7.87114 37.5297 7.99085 37.558 8.11258 37.5618L10.4731 37.7989C10.5918 37.8168 10.7126 37.8168 10.8313 37.7989C11.0094 37.7548 11.1702 37.6581 11.2925 37.5213C11.4149 37.3846 11.4932 37.2141 11.5172 37.0322L11.5475 36.8556C11.6333 36.4017 11.714 35.9477 11.7997 35.4837V35.3525H11.9258C12.2548 35.2854 12.5772 35.1892 12.8892 35.065L13.0052 35.0196L13.091 35.1104C13.2524 35.2819 13.4188 35.4484 13.5954 35.6148L14.1905 36.2352C14.2688 36.3289 14.3653 36.4055 14.4742 36.4606C14.5831 36.5157 14.7021 36.548 14.8238 36.5555C14.9456 36.5631 15.0677 36.5457 15.1825 36.5045C15.2974 36.4633 15.4027 36.3992 15.4919 36.3159C16.1123 35.8115 16.7276 35.3071 17.338 34.8027C17.4379 34.7304 17.522 34.6382 17.585 34.5321C17.6479 34.426 17.6884 34.308 17.704 34.1856C17.7196 34.0632 17.71 33.9388 17.6756 33.8203C17.6413 33.7017 17.583 33.5915 17.5044 33.4964L17.0353 32.7801L16.5309 32.0487L16.6016 31.9428C16.7865 31.6621 16.9452 31.3649 17.0757 31.0551L17.1261 30.9391H17.2573C17.7919 30.9391 18.3316 30.9643 18.8663 30.9693C19.0929 30.9756 19.3135 30.8959 19.4838 30.7462C19.6541 30.5965 19.7614 30.3879 19.7843 30.1623C19.865 29.4108 19.9356 28.6491 20.0113 27.9026V27.6706C20.0226 27.555 20.0106 27.4382 19.9759 27.3273C19.9412 27.2164 19.8847 27.1136 19.8095 27.025C19.6705 26.8624 19.4767 26.7565 19.2648 26.7274L19.0075 26.6668L17.6961 26.4247H17.57L17.5448 26.2986C17.4721 25.9705 17.3743 25.6484 17.2522 25.3352L17.2068 25.2142L17.7818 24.6543L18.4174 24.044C18.5173 23.9646 18.5994 23.8651 18.6585 23.7519C18.7176 23.6388 18.7523 23.5145 18.7604 23.3871C18.7684 23.2598 18.7497 23.1321 18.7054 23.0124C18.6611 22.8927 18.5922 22.7836 18.5031 22.6922L16.9899 20.8461C16.9159 20.7498 16.8234 20.6691 16.718 20.6088C16.6125 20.5484 16.4961 20.5096 16.3755 20.4946C16.2549 20.4796 16.1326 20.4886 16.0155 20.5213C15.8985 20.5539 15.7891 20.6095 15.6936 20.6847L15.0329 21.1387L14.4074 21.5725L14.3015 21.6481L14.1956 21.5725C13.9132 21.3903 13.6163 21.2317 13.3078 21.0983L13.1918 21.0479V20.9218C13.1918 20.5334 13.1918 20.14 13.1918 19.7465V19.3632C13.2059 19.2375 13.1936 19.1102 13.1555 18.9895C13.1175 18.8688 13.0547 18.7574 12.9711 18.6624C12.8876 18.5674 12.785 18.491 12.6702 18.4379C12.5553 18.3849 12.4306 18.3564 12.3041 18.3544L10.0041 18.1527C9.88279 18.132 9.75857 18.1361 9.63896 18.1649C9.51935 18.1937 9.40684 18.2465 9.30825 18.32C9.20966 18.3936 9.12705 18.4865 9.06545 18.593C9.00384 18.6995 8.96452 18.8174 8.94987 18.9395C8.85404 19.4439 8.7582 19.9483 8.66741 20.483V20.6091H8.54131C8.21105 20.6668 7.88918 20.7651 7.58296 20.9016L7.4619 20.9571L6.27657 19.7264C6.19565 19.6352 6.09729 19.5612 5.9873 19.5087C5.8773 19.4562 5.75791 19.4262 5.63615 19.4206C5.51439 19.4149 5.39274 19.4337 5.27836 19.4758C5.16398 19.518 5.0592 19.5826 4.97019 19.6658L3.10393 21.179C3.00711 21.2509 2.92577 21.3415 2.86474 21.4455C2.80371 21.5495 2.76425 21.6647 2.74872 21.7843C2.73318 21.9038 2.74189 22.0253 2.77432 22.1414C2.80675 22.2576 2.86224 22.366 2.93748 22.4602L3.37126 23.126L3.90087 23.8927L3.83026 23.9986C3.65155 24.2787 3.49795 24.5741 3.37126 24.8813L3.32082 25.0023H3.19472H1.76728H1.61092C1.49053 24.9934 1.36959 25.0089 1.25533 25.0478C1.14106 25.0867 1.03581 25.1483 0.945876 25.2288C0.855941 25.3093 0.783168 25.4072 0.731904 25.5164C0.680641 25.6257 0.651941 25.7442 0.647522 25.8649C0.566819 26.6568 0.491161 27.4487 0.410458 28.2406C0.380468 28.478 0.445969 28.7176 0.592568 28.9068C0.739166 29.0959 0.954867 29.2192 1.19227 29.2494L2.74581 29.5318H2.87191V29.6529C2.94387 29.9812 3.0417 30.3033 3.16446 30.6163L3.20985 30.7323L3.11906 30.8231L2.61467 31.3275L2.55414 31.388L1.98921 31.9327C1.89773 32.0113 1.82292 32.1074 1.76919 32.2154C1.71546 32.3233 1.6839 32.441 1.67638 32.5613C1.66885 32.6817 1.68552 32.8023 1.72539 32.9162C1.76526 33.03 1.82752 33.1346 1.90851 33.224C2.41291 33.8444 2.9173 34.4598 3.4217 35.0802C3.49405 35.1779 3.58539 35.26 3.69024 35.3215C3.79509 35.3831 3.91129 35.4228 4.03188 35.4384C4.15246 35.4539 4.27495 35.4449 4.39198 35.412C4.50901 35.379 4.61818 35.3228 4.71295 35.2466C4.91471 35.1054 5.11647 34.9641 5.32327 34.828L6.1303 34.2933ZM10.5185 37.0221L7.99656 36.7749L7.97134 36.5984L7.99656 34.722C8.00993 34.668 8.01226 34.6118 8.0034 34.5569C7.99455 34.5019 7.97469 34.4493 7.94502 34.4022C7.91535 34.3551 7.87647 34.3145 7.83073 34.2828C7.78498 34.2511 7.73331 34.2289 7.67879 34.2176C7.22813 34.0382 6.7985 33.8099 6.39763 33.5367C6.32213 33.4669 6.22306 33.4281 6.12021 33.4281C6.01736 33.4281 5.9183 33.4669 5.8428 33.5367L4.32961 34.5909L4.15812 34.6968L4.01688 34.5405L2.44821 32.6036L2.58945 32.4573L3.82521 31.2669C3.92448 31.1777 3.99233 31.0588 4.01868 30.928C4.04503 30.7972 4.02848 30.6613 3.97149 30.5406C3.79808 30.1108 3.66797 29.6647 3.5831 29.209C3.57692 29.1116 3.53478 29.0201 3.46488 28.952C3.39498 28.884 3.30229 28.8443 3.20481 28.8408L1.18723 28.4726L1.16201 28.3011L1.40916 25.7791L1.58065 25.7438L3.48223 25.7741C3.58121 25.7887 3.6821 25.7664 3.76577 25.7116C3.84944 25.6567 3.91008 25.5731 3.93618 25.4765C4.12332 25.0102 4.36007 24.5655 4.64233 24.1499C4.71039 24.0755 4.74813 23.9784 4.74813 23.8775C4.74813 23.7767 4.71039 23.6796 4.64233 23.6052L3.48223 21.9306L3.6285 21.7641L5.55529 20.1904L5.6713 20.2963L5.56538 20.4527L5.70661 20.3316L7.01804 21.6834C7.07633 21.7681 7.16544 21.8266 7.2663 21.8464C7.36717 21.8662 7.47177 21.8457 7.55774 21.7893C8.01192 21.5871 8.48984 21.443 8.98013 21.3606C9.08322 21.3593 9.18179 21.3182 9.25516 21.2457C9.32852 21.1733 9.37096 21.0753 9.37356 20.9722L9.74177 18.9546H9.9284L12.4504 19.2018V19.3733V21.2698C12.4336 21.3711 12.4562 21.475 12.5133 21.5602C12.5705 21.6455 12.658 21.7058 12.7581 21.7288C13.2206 21.917 13.6619 22.1537 14.0745 22.435C14.1492 22.5045 14.2474 22.5431 14.3494 22.5431C14.4514 22.5431 14.5496 22.5045 14.6243 22.435L16.1728 21.3657L16.3241 21.2648L16.4351 21.406C16.9395 22.0062 17.4439 22.6166 17.9483 23.2269L18.0038 23.3378L17.9079 23.5093L16.8184 24.5686L16.5814 24.8006C16.4961 24.8582 16.4364 24.9465 16.4148 25.0471C16.3931 25.1477 16.4113 25.2528 16.4654 25.3403C16.6634 25.8034 16.8089 26.2873 16.8991 26.7829C16.9062 26.8795 16.9477 26.9704 17.0163 27.039C17.0848 27.1075 17.1757 27.1491 17.2724 27.1561L19.29 27.5294V27.7109L19.0428 30.2329H18.8713H16.9748C16.9199 30.225 16.864 30.2281 16.8103 30.2419C16.7567 30.2558 16.7063 30.2801 16.6621 30.3136C16.6022 30.3659 16.5585 30.4341 16.536 30.5103C16.3453 30.9832 16.1053 31.4346 15.8197 31.8571C15.7606 31.9278 15.7283 32.0171 15.7283 32.1093C15.7283 32.2015 15.7606 32.2907 15.8197 32.3615C16.1728 32.8659 16.5309 33.3703 16.879 33.8747L16.9798 34.0159L16.8689 34.1571L14.937 35.7409L14.7857 35.6501L13.3986 34.2933C13.3421 34.217 13.2595 34.1641 13.1665 34.1446C13.0736 34.1251 12.9767 34.1403 12.8942 34.1874C12.4165 34.393 11.9175 34.5453 11.4063 34.6413C11.312 34.6486 11.2236 34.69 11.1577 34.7578C11.0917 34.8256 11.0528 34.9151 11.0482 35.0095L10.6799 37.0271L10.5185 37.0221ZM8.36982 36.4269L10.3874 36.6287L10.7001 34.9188C10.7208 34.7497 10.7968 34.5922 10.9163 34.4709C11.0358 34.3495 11.1922 34.2711 11.3609 34.2479C11.8447 34.1588 12.3168 34.015 12.7681 33.8192C12.9205 33.748 13.092 33.7281 13.2566 33.7627C13.4212 33.7973 13.5702 33.8843 13.6811 34.0108L14.8967 35.2617L16.4553 33.9806C16.1224 33.4762 15.7996 33.0273 15.4465 32.5582C15.3371 32.4234 15.2775 32.2551 15.2775 32.0815C15.2775 31.908 15.3371 31.7397 15.4465 31.6049C15.7156 31.206 15.9421 30.78 16.1224 30.3338C16.17 30.1966 16.2537 30.0746 16.3645 29.9807C16.4429 29.9147 16.5337 29.8651 16.6316 29.8347C16.7295 29.8044 16.8325 29.794 16.9345 29.8042H18.6544L18.8512 27.7866L17.1463 27.4739C16.9805 27.4517 16.8265 27.3762 16.7073 27.2589C16.5881 27.1415 16.5103 26.9886 16.4855 26.8232C16.3984 26.356 16.2614 25.8994 16.077 25.4613C15.9945 25.3029 15.9696 25.1208 16.0064 24.9461C16.0432 24.7713 16.1394 24.6147 16.2787 24.503L16.5158 24.271L17.5246 23.3076L16.2384 21.749C15.7643 22.0718 15.3002 22.3997 14.8311 22.7225C14.6927 22.8347 14.52 22.8959 14.3419 22.8959C14.1637 22.8959 13.991 22.8347 13.8526 22.7225C13.4617 22.4577 13.0441 22.2346 12.6067 22.0567C12.4352 22.0049 12.287 21.895 12.1876 21.7459C12.0882 21.5969 12.0438 21.4178 12.062 21.2396V19.5196L10.0444 19.3229L9.73168 21.0126C9.71662 21.193 9.63778 21.3622 9.5093 21.4897C9.38082 21.6173 9.2111 21.6949 9.03057 21.7086C8.57113 21.785 8.12353 21.9207 7.69897 22.1122C7.54185 22.2001 7.35852 22.2291 7.18194 22.1939C7.00536 22.1588 6.84709 22.0618 6.73557 21.9205L5.55025 20.6746L3.98662 21.9608L4.96515 23.3782C5.07657 23.515 5.13741 23.686 5.13741 23.8624C5.13741 24.0388 5.07657 24.2099 4.96515 24.3466C4.69857 24.7409 4.47375 25.1618 4.2943 25.6026C4.2364 25.7674 4.12623 25.9089 3.98055 26.0054C3.83488 26.1019 3.66167 26.1482 3.48727 26.1372L1.76224 26.112L1.56552 28.1296L3.26534 28.4423C3.4387 28.4587 3.60111 28.5344 3.72516 28.6566C3.84921 28.7788 3.9273 28.9401 3.94627 29.1132C4.02682 29.5453 4.1519 29.9678 4.31952 30.3742C4.40266 30.5654 4.4245 30.7776 4.38204 30.9818C4.33959 31.1859 4.23493 31.3719 4.08246 31.5141L2.92739 32.6338L4.2136 34.1975L5.62591 33.224C5.76428 33.1118 5.93702 33.0505 6.11517 33.0505C6.29332 33.0505 6.46606 33.1118 6.60443 33.224C6.98908 33.4889 7.40183 33.7105 7.83516 33.8847C8.01235 33.9351 8.16568 34.0472 8.26744 34.2008C8.36919 34.3543 8.41267 34.5392 8.38999 34.722L8.36982 36.4269Z" fill="#FF6F6F"/>
<path d="M9.42361 24.6747C8.92348 24.7888 8.45706 25.0186 8.06174 25.3455C7.71419 25.6277 7.4257 25.9756 7.21278 26.3694C6.99987 26.7632 6.86671 27.1952 6.82093 27.6405C6.77525 28.0833 6.81818 28.5308 6.94721 28.9569C7.07624 29.3829 7.28879 29.7791 7.57248 30.1221C8.13849 30.8199 8.95804 31.2648 9.85151 31.3593C10.745 31.4539 11.6395 31.1904 12.339 30.6265C13.0389 30.0586 13.485 29.2363 13.5796 28.3399C13.6741 27.4436 13.4094 26.5463 12.8434 25.8449C12.4403 25.3489 11.906 24.9762 11.3013 24.7693C10.6967 24.5624 10.046 24.5296 9.42361 24.6747Z" fill="white"/>
<path d="M19.0427 27.6554L17.1915 27.3174C17.0633 27.3016 16.944 27.2433 16.8526 27.1519C16.7613 27.0606 16.703 26.9413 16.6871 26.813C16.5949 26.3322 16.4529 25.8623 16.2634 25.4108C16.1949 25.2885 16.1729 25.1455 16.2017 25.0083C16.2304 24.871 16.3079 24.7488 16.4198 24.6643L17.7514 23.3731L16.2382 21.5522C15.7338 21.9053 15.2294 22.2634 14.6897 22.6215C14.5829 22.7128 14.4469 22.763 14.3064 22.763C14.1658 22.763 14.0299 22.7128 13.923 22.6215C13.5227 22.3461 13.093 22.116 12.6419 21.9355C12.5068 21.8979 12.3898 21.8131 12.312 21.6964C12.2343 21.5798 12.201 21.4391 12.2182 21.3V19.4136L9.92824 19.1311L9.59029 20.9671C9.58178 21.1097 9.52098 21.2441 9.41953 21.3446C9.31809 21.4451 9.18313 21.5047 9.0405 21.5119C8.56559 21.5924 8.10287 21.7331 7.6635 21.9305C7.54126 22.001 7.39751 22.0245 7.25916 21.9967C7.12082 21.9688 6.99738 21.8915 6.91195 21.7792L5.59044 20.4677H5.55513L3.78975 21.9204C3.77976 21.9184 3.76947 21.9184 3.75948 21.9204V21.9507L4.82376 23.4639C4.91333 23.5696 4.9625 23.7036 4.9625 23.8422C4.9625 23.9807 4.91333 24.1148 4.82376 24.2205C4.54663 24.6241 4.31489 25.0572 4.13273 25.5117C4.09328 25.6439 4.00837 25.7579 3.893 25.8336C3.77763 25.9093 3.63923 25.9418 3.50224 25.9253H1.63598H1.60571C1.60293 25.9369 1.60293 25.949 1.60571 25.9606L1.35352 28.2405V28.2758H1.38378L3.22482 28.6137C3.3534 28.6288 3.47315 28.6867 3.56469 28.7783C3.65622 28.8698 3.71419 28.9896 3.72922 29.1181C3.81143 29.5618 3.93817 29.9961 4.10751 30.4144C4.1793 30.5697 4.19991 30.7437 4.16637 30.9114C4.13282 31.0791 4.04686 31.2319 3.92089 31.3476L2.67503 32.5581L2.63972 32.5884V32.6186L4.08734 34.384C4.09482 34.3978 4.10513 34.4098 4.1176 34.4193H4.14787L5.66105 33.3651C5.76791 33.2738 5.90384 33.2237 6.04439 33.2237C6.18494 33.2237 6.32087 33.2738 6.42773 33.3651C6.82595 33.6338 7.25007 33.8619 7.69376 34.0461C7.83494 34.0819 7.95785 34.1688 8.03887 34.2898C8.11988 34.4109 8.15326 34.5576 8.13259 34.7018L8.10737 36.558H8.13259L10.4377 36.7849L10.7807 34.9338C10.7965 34.8056 10.8548 34.6863 10.9462 34.5949C11.0375 34.5035 11.1568 34.4453 11.2851 34.4294C11.7806 34.3368 12.2644 34.1896 12.7276 33.9906C12.8448 33.9326 12.9779 33.9155 13.1059 33.942C13.2339 33.9685 13.3493 34.0371 13.4338 34.1369L14.7402 35.4886H14.7704L16.5459 34.0259H16.5711V33.9956L15.5119 32.4824C15.4253 32.3783 15.378 32.2471 15.378 32.1117C15.378 31.9763 15.4253 31.8451 15.5119 31.741C15.7925 31.3332 16.026 30.8949 16.208 30.4346C16.2459 30.3267 16.3121 30.2309 16.3996 30.1572C16.5239 30.0551 16.6834 30.0061 16.8435 30.021L18.7249 30.0513L18.9569 27.7361V27.7109L19.0427 27.6554ZM13.111 31.4888C12.5712 31.9337 11.936 32.2479 11.2548 32.4068C10.2509 32.6535 9.19293 32.5502 8.25574 32.114C7.31854 31.6778 6.55829 30.9348 6.1007 30.0079C5.64312 29.081 5.5156 28.0256 5.73923 27.0163C5.96287 26.0071 6.52427 25.1044 7.3306 24.4575C7.79227 24.0771 8.32457 23.7917 8.89691 23.6177C9.46926 23.4436 10.0703 23.3845 10.6656 23.4435C11.2609 23.5026 11.8387 23.6787 12.3657 23.9618C12.8927 24.2449 13.3585 24.6293 13.7364 25.0931C14.1159 25.5538 14.4007 26.0849 14.5747 26.6559C14.7486 27.2269 14.8082 27.8266 14.7501 28.4206C14.6921 29.0147 14.5174 29.5915 14.2361 30.1179C13.9548 30.6444 13.5725 31.1103 13.111 31.4888Z" fill="#FFDCDC"/>
<path d="M10.6648 23.4537C10.07 23.3939 9.46936 23.452 8.89718 23.6249C8.32501 23.7977 7.79259 24.0819 7.33051 24.461C6.86842 24.8401 6.48576 25.3068 6.20448 25.8342C5.9232 26.3616 5.74884 26.9394 5.69142 27.5343C5.60523 28.4272 5.78551 29.3256 6.20951 30.1161C6.6335 30.9066 7.2822 31.5538 8.07371 31.976C8.86521 32.3981 9.76405 32.5763 10.6567 32.488C11.5494 32.3997 12.3959 32.0489 13.0894 31.4799C13.7829 30.9109 14.2923 30.1492 14.5532 29.291C14.8142 28.4327 14.815 27.5164 14.5556 26.6577C14.2961 25.799 13.7881 25.0364 13.0957 24.4661C12.4032 23.8959 11.5573 23.5436 10.6648 23.4537ZM13.5902 28.3161C13.5486 28.7607 13.4183 29.1925 13.2069 29.5858C12.9955 29.9791 12.7074 30.3261 12.3595 30.6061C11.66 31.1699 10.7655 31.4334 9.87202 31.3389C8.97855 31.2443 8.159 30.7994 7.59299 30.1017C7.3093 29.7586 7.09675 29.3625 6.96772 28.9364C6.83869 28.5104 6.79576 28.0629 6.84144 27.62C6.88722 27.1747 7.02038 26.7428 7.2333 26.349C7.44621 25.9552 7.7347 25.6072 8.08225 25.3251C8.47366 25.0081 8.93273 24.7855 9.42394 24.6744C10.0415 24.5311 10.6868 24.5628 11.2873 24.7659C11.8878 24.9691 12.4198 25.3356 12.8236 25.8244C13.1102 26.1681 13.3256 26.5655 13.4573 26.9932C13.5889 27.421 13.6341 27.8707 13.5902 28.3161Z" fill="#FF6F6F"/>
</svg>
