<svg width="21" height="32" viewBox="0 0 21 32" fill="none" xmlns="http://www.w3.org/2000/svg">
<path d="M0.575195 28.1047C0.575195 28.8144 0.848418 29.495 1.33476 29.9969C1.8211 30.4987 2.48073 30.7806 3.16852 30.7806H17.8053C18.148 30.7842 18.488 30.7176 18.8056 30.5847C19.1233 30.4518 19.4122 30.2552 19.6558 30.0064C19.8994 29.7576 20.0927 29.4614 20.2247 29.1349C20.3566 28.8085 20.4245 28.4584 20.4245 28.1047V25.0273H0.575195V28.1047Z" fill="white"/>
<path d="M17.845 31.3562H3.12888C2.30116 31.3494 1.50926 31.0205 0.923957 30.4403C0.338648 29.8601 0.00681288 29.0752 0 28.2547V25.2567C0 25.1196 0.0549411 24.9881 0.152738 24.8911C0.250534 24.7942 0.383175 24.7397 0.52148 24.7397H20.4785C20.6168 24.7397 20.7495 24.7942 20.8473 24.8911C20.9451 24.9881 21 25.1196 21 25.2567V28.2185C21.0007 28.6299 20.9196 29.0374 20.7614 29.4177C20.6033 29.798 20.3711 30.1437 20.0781 30.435C19.7851 30.7264 19.4371 30.9577 19.054 31.1158C18.6708 31.2738 18.26 31.3555 17.845 31.3562ZM1.01689 25.7736V28.2185C1.02497 28.7644 1.24733 29.2857 1.63677 29.6717C2.02622 30.0578 2.5521 30.2782 3.10281 30.2862H17.819C18.3742 30.2849 18.9067 30.0674 19.3017 29.6807C19.6968 29.2939 19.9228 28.7689 19.931 28.2185V25.7736H1.01689Z" fill="#FF6F6F"/>
<path d="M20.4245 4.89038H0.575195V25.8904H20.4245V4.89038Z" fill="#FFDCDC"/>
<path d="M20.4792 26.4658H0.520833C0.3827 26.4658 0.250223 26.4114 0.152548 26.3145C0.054873 26.2177 0 26.0863 0 25.9493V5.11927C0 4.98229 0.054873 4.85092 0.152548 4.75406C0.250223 4.6572 0.3827 4.60278 0.520833 4.60278H20.4792C20.6173 4.60278 20.7498 4.6572 20.8475 4.75406C20.9451 4.85092 21 4.98229 21 5.11927V25.9493C21 26.0863 20.9451 26.2177 20.8475 26.3145C20.7498 26.4114 20.6173 26.4658 20.4792 26.4658ZM1.04167 25.4328H19.9583V5.63576H1.04167V25.4328Z" fill="#FF6F6F"/>
<path d="M20.4244 3.08888C20.4278 2.7579 20.3625 2.42959 20.2321 2.12315C20.1017 1.81672 19.9089 1.53833 19.665 1.30428C19.421 1.07023 19.1309 0.885232 18.8116 0.760104C18.4922 0.634976 18.1501 0.572238 17.8052 0.575565H3.16862C2.82587 0.575549 2.48652 0.640728 2.17018 0.767337C1.85385 0.893946 1.5668 1.07947 1.32565 1.31319C1.0845 1.5469 0.894025 1.82417 0.765236 2.12896C0.636446 2.43375 0.571897 2.76001 0.575325 3.08888V4.89051H20.4244V3.08888Z" fill="white"/>
<path d="M20.5046 5.46575H0.52148C0.383175 5.46575 0.250534 5.41178 0.152738 5.31572C0.0549411 5.21965 1.84245e-09 5.08936 1.84245e-09 4.9535V3.09914C-2.84205e-05 2.28161 0.328785 1.49719 0.914826 0.916723C1.50087 0.336252 2.29666 0.0067564 3.12888 0H17.845C18.6814 0.00135454 19.483 0.328303 20.0744 0.909211C20.6658 1.49012 20.9986 2.27761 21 3.09914V4.9535C21.0002 5.08503 20.9488 5.21159 20.8566 5.30695C20.7644 5.40232 20.6383 5.45918 20.5046 5.46575ZM1.04296 4.44125H19.9831V3.09914C19.9831 2.54891 19.7606 2.02122 19.3645 1.63215C18.9684 1.24308 18.4313 1.02451 17.8711 1.02451H3.15495C2.59935 1.03125 2.06883 1.25279 1.67837 1.64114C1.28792 2.02948 1.06899 2.55332 1.06903 3.09914L1.04296 4.44125Z" fill="#FF6F6F"/>
<path d="M12.6949 2.87669H8.30506C8.16238 2.87669 8.02555 2.83122 7.92466 2.7503C7.82377 2.66938 7.76709 2.55962 7.76709 2.44518C7.76709 2.33074 7.82377 2.22098 7.92466 2.14006C8.02555 2.05914 8.16238 2.01367 8.30506 2.01367H12.6949C12.8376 2.01367 12.9744 2.05914 13.0753 2.14006C13.1762 2.22098 13.2328 2.33074 13.2328 2.44518C13.2328 2.55962 13.1762 2.66938 13.0753 2.7503C12.9744 2.83122 12.8376 2.87669 12.6949 2.87669Z" fill="#FF6F6F"/>
<path d="M10.5 29.3426C11.0561 29.3426 11.5069 28.8918 11.5069 28.3357C11.5069 27.7796 11.0561 27.3289 10.5 27.3289C9.94395 27.3289 9.49316 27.7796 9.49316 28.3357C9.49316 28.8918 9.94395 29.3426 10.5 29.3426Z" fill="white"/>
<path d="M10.505 29.63C10.2487 29.631 9.99797 29.5559 9.78445 29.4143C9.57092 29.2726 9.40424 29.0708 9.30551 28.8343C9.20678 28.5979 9.18045 28.3374 9.22985 28.086C9.27924 27.8346 9.40215 27.6034 9.58299 27.4219C9.76384 27.2404 9.99449 27.1166 10.2457 27.0663C10.497 27.0159 10.7575 27.0413 10.9943 27.1391C11.2312 27.2369 11.4336 27.4028 11.5761 27.6158C11.7186 27.8288 11.7946 28.0793 11.7946 28.3355C11.7946 28.678 11.6589 29.0065 11.4172 29.2492C11.1755 29.4918 10.8475 29.6288 10.505 29.63ZM10.505 27.5344C10.3451 27.5334 10.1886 27.58 10.0553 27.6682C9.92205 27.7564 9.81798 27.8822 9.75637 28.0297C9.69476 28.1772 9.67839 28.3396 9.70933 28.4965C9.74028 28.6533 9.81714 28.7973 9.93016 28.9103C10.0432 29.0234 10.1872 29.1002 10.344 29.1312C10.5009 29.1621 10.6633 29.1457 10.8108 29.0841C10.9583 29.0225 11.0841 28.9185 11.1723 28.7852C11.2605 28.6519 11.3071 28.4954 11.3061 28.3355C11.3048 28.1234 11.22 27.9204 11.07 27.7705C10.9201 27.6205 10.7171 27.5357 10.505 27.5344Z" fill="#FF6F6F"/>
</svg>
