<svg width="66" height="41" viewBox="0 0 66 41" fill="none" xmlns="http://www.w3.org/2000/svg">
<path d="M59.4791 41H6.51515C4.78962 40.9955 3.13598 40.3111 1.91531 39.0963C0.694632 37.8814 0.00609422 36.2349 4.03558e-05 34.5161V6.52389C-0.00297696 5.6692 0.163233 4.82231 0.489156 4.03167C0.815079 3.24104 1.29432 2.52217 1.89945 1.91622C2.50459 1.31027 3.22374 0.829131 4.01575 0.500323C4.80777 0.171514 5.6571 0.00149682 6.51515 0H59.4791C60.3377 0.000746188 61.1876 0.170207 61.9803 0.498679C62.773 0.827152 63.4928 1.30818 64.0985 1.9142C64.7043 2.52023 65.184 3.23934 65.5103 4.03035C65.8366 4.82136 66.003 5.66872 66 6.52389V34.5161C65.9939 36.2358 65.3046 37.8833 64.0827 39.0983C62.8607 40.3133 61.2056 40.997 59.4791 41ZM6.51515 2.28508C5.95814 2.28582 5.40677 2.39621 4.89274 2.60992C4.37871 2.82362 3.91215 3.13642 3.51989 3.53034C3.12762 3.92425 2.81739 4.39151 2.60703 4.90525C2.39667 5.41899 2.29031 5.96908 2.29409 6.52389V34.5161C2.29409 35.6317 2.73863 36.7018 3.53007 37.4912C4.3215 38.2806 5.39513 38.7248 6.51515 38.7263H59.4791C60.5997 38.7248 61.6739 38.2808 62.4662 37.4915C63.2586 36.7023 63.7044 35.6323 63.7059 34.5161V6.52389C63.7059 5.40727 63.2606 4.33637 62.4679 3.54679C61.6752 2.75722 60.6001 2.31364 59.4791 2.31364L6.51515 2.28508Z" fill="#FF6F6F"/>
<path d="M16.5 20C15.412 20 14.3484 19.648 13.4438 18.9884C12.5392 18.3289 11.8343 17.3914 11.4181 16.2947C11.002 15.198 10.8934 13.9913 11.1061 12.8273C11.3187 11.6632 11.8431 10.5942 12.6128 9.75528C13.3826 8.9164 14.3631 8.34542 15.4303 8.11457C16.4976 7.88373 17.6036 8.00339 18.6085 8.45841C19.6134 8.91344 20.472 9.68339 21.0757 10.6709C21.6794 11.6583 22.0011 12.819 22 14.0059C21.9971 15.5957 21.4166 17.1194 20.3856 18.243C19.3546 19.3666 17.9573 19.9984 16.5 20ZM16.5 10.3611C15.8392 10.3611 15.1933 10.5749 14.6438 10.9754C14.0944 11.3759 13.6662 11.9451 13.4133 12.6111C13.1604 13.2771 13.0943 14.0099 13.2232 14.7169C13.3521 15.424 13.6703 16.0734 14.1375 16.5831C14.6048 17.0928 15.2001 17.44 15.8482 17.5806C16.4963 17.7212 17.1681 17.6491 17.7785 17.3732C18.389 17.0973 18.9108 16.6302 19.278 16.0308C19.6451 15.4314 19.841 14.7268 19.841 14.0059C19.8396 13.0403 19.487 12.1147 18.8606 11.4325C18.2341 10.7502 17.3852 10.367 16.5 10.367V10.3611Z" fill="#FF6F6F"/>
<path d="M22.9096 32C22.616 32 22.3344 31.8784 22.1268 31.662C21.9192 31.4457 21.8026 31.1522 21.8026 30.8462V27.5C21.8026 26.1229 21.2777 24.8022 20.3435 23.8285C19.4093 22.8547 18.1422 22.3077 16.821 22.3077H16.1956C14.8744 22.3077 13.6073 22.8547 12.6731 23.8285C11.7389 24.8022 11.214 26.1229 11.214 27.5V30.8462C11.214 31.1522 11.0974 31.4457 10.8898 31.662C10.6822 31.8784 10.4006 32 10.107 32C9.81341 32 9.53184 31.8784 9.32424 31.662C9.11663 31.4457 9 31.1522 9 30.8462V27.5C9 25.5109 9.7581 23.6032 11.1075 22.1967C12.457 20.7902 14.2872 20 16.1956 20H16.8044C18.7128 20 20.543 20.7902 21.8925 22.1967C23.2419 23.6032 24 25.5109 24 27.5V30.8462C24 31.1492 23.8857 31.4401 23.6817 31.656C23.4776 31.8719 23.2003 31.9955 22.9096 32Z" fill="#FF6F6F"/>
<path d="M33.5 25H57" stroke="#FF6F6F" stroke-width="2"/>
<path d="M33.5 13H57" stroke="#FF6F6F" stroke-width="2"/>
<path d="M33.5 19H57" stroke="#FF6F6F" stroke-width="2"/>
</svg>
