<svg width="36" height="52" viewBox="0 0 36 52" fill="none" xmlns="http://www.w3.org/2000/svg">
<path d="M24.6339 48.2535H4.1673C3.06203 48.2517 2.00259 47.8116 1.22136 47.0297C0.44013 46.2479 0.000897137 45.1881 0 44.0828V16.1673C0.00179478 15.0626 0.441425 14.0037 1.22256 13.2226C2.00369 12.4414 3.06262 12.0018 4.1673 12H24.6339C25.7386 12.0018 26.7975 12.4414 27.5787 13.2226C28.3598 14.0037 28.7994 15.0626 28.8012 16.1673V44.0828C28.8003 45.1881 28.3611 46.2479 27.5799 47.0297C26.7986 47.8116 25.7392 48.2517 24.6339 48.2535ZM4.1673 13.3574C3.42263 13.3592 2.70897 13.6559 2.1824 14.1824C1.65583 14.709 1.35922 15.4226 1.35743 16.1673V44.0828C1.35832 44.8281 1.65454 45.5426 2.1812 46.0699C2.70787 46.5972 3.42204 46.8943 4.1673 46.8961H24.6339C25.3792 46.8943 26.0933 46.5972 26.62 46.0699C27.1467 45.5426 27.4429 44.8281 27.4438 44.0828V16.1673C27.442 15.4226 27.1454 14.709 26.6188 14.1824C26.0922 13.6559 25.3786 13.3592 24.6339 13.3574H4.1673Z" fill="#FF3F44"/>
<path d="M21.564 0.70852L3.81086 5.49205C3.48331 5.58031 3.28932 5.91739 3.37758 6.24494L3.47558 6.60866C3.56384 6.93621 3.90092 7.13019 4.22847 7.04193L21.9817 2.2584C22.3092 2.17015 22.5032 1.83307 22.4149 1.50552L22.3169 1.1418C22.2287 0.81425 21.8916 0.620263 21.564 0.70852Z" fill="#FF3F44"/>
<path d="M24.6358 12.117L6.88263 16.9005C6.55508 16.9888 6.3611 17.3258 6.44936 17.6534L6.54736 18.0171C6.63561 18.3447 6.97269 18.5386 7.30024 18.4504L25.0534 13.6669C25.381 13.5786 25.575 13.2415 25.4867 12.914L25.3887 12.5502C25.3005 12.2227 24.9634 12.0287 24.6358 12.117Z" fill="#FF3F44"/>
<path d="M5.67438 7.87851C5.79767 7.80697 5.94404 7.78645 6.08226 7.82132C6.22047 7.85619 6.33959 7.94369 6.41418 8.06516C6.69585 8.54026 6.97751 9.02554 7.26257 9.51421C7.75803 10.3524 8.36209 11.3841 8.87452 12.2291C8.87452 11.2348 8.87452 10.0402 8.87452 9.06626C8.87452 8.50293 8.87452 7.9396 8.87452 7.38984C8.8771 7.31643 8.89436 7.24428 8.92529 7.17765C8.95622 7.11102 9.00019 7.05127 9.0546 7.00192C9.10901 6.95257 9.17276 6.91462 9.24209 6.89032C9.31141 6.86602 9.3849 6.85586 9.45821 6.86044C9.5306 6.85808 9.6027 6.8706 9.67006 6.89723C9.73741 6.92385 9.79859 6.96401 9.8498 7.01522C9.90101 7.06643 9.94117 7.12761 9.9678 7.19496C9.99442 7.26232 10.0069 7.33442 10.0046 7.40681L9.96385 14.1939C9.96039 14.3123 9.91882 14.4263 9.84534 14.5191C9.77185 14.6119 9.67037 14.6786 9.55598 14.7091C9.4416 14.7396 9.32043 14.7323 9.21049 14.6884C9.10054 14.6445 9.00771 14.5663 8.94578 14.4654L5.47756 8.62171C5.43972 8.56051 5.41475 8.49224 5.40418 8.42107C5.39361 8.3499 5.39766 8.27732 5.41608 8.20777C5.4345 8.13821 5.46691 8.07314 5.51132 8.01653C5.55573 7.95992 5.61121 7.91296 5.67438 7.87851Z" fill="#FF3F44"/>
<path d="M9.39337 14.7913C9.29296 14.7895 9.19461 14.7625 9.10742 14.7126C9.02022 14.6628 8.947 14.5918 8.89452 14.5062L5.43987 8.64211C5.3981 8.57635 5.37042 8.50265 5.35859 8.42565C5.34675 8.34865 5.35102 8.27004 5.37111 8.19478C5.3912 8.11951 5.42669 8.04923 5.47532 7.98838C5.52395 7.92753 5.58468 7.87742 5.65366 7.84123C5.78652 7.76256 5.94501 7.73939 6.09482 7.77675C6.23785 7.8179 6.35944 7.91274 6.43418 8.04145C6.71585 8.51655 6.99751 9.00183 7.28257 9.48711L7.62193 10.0742C8.0088 10.7325 8.4296 11.4316 8.80968 12.0832C8.80968 11.1873 8.80968 10.0742 8.80968 9.0697C8.80968 8.50976 8.80968 7.94643 8.80968 7.39327C8.81408 7.24021 8.87776 7.09485 8.9873 6.98785C9.09683 6.88085 9.24365 6.82058 9.39677 6.81976C9.47185 6.81786 9.54656 6.83099 9.61649 6.85838C9.68643 6.88577 9.75018 6.92687 9.804 6.97926C9.86038 7.03503 9.90481 7.10172 9.93456 7.17523C9.96432 7.24875 9.97878 7.32756 9.97707 7.40685L9.93635 14.194C9.93431 14.3209 9.89121 14.4437 9.81351 14.544C9.73581 14.6443 9.6277 14.7168 9.50536 14.7505C9.46965 14.7682 9.43209 14.7819 9.39337 14.7913ZM5.94551 7.84462C5.85731 7.84496 5.77074 7.86835 5.69439 7.91249C5.63627 7.94443 5.58506 7.98757 5.54371 8.03941C5.50235 8.09125 5.47167 8.15076 5.45344 8.21452C5.42324 8.34653 5.44512 8.4851 5.51452 8.60138L8.96579 14.4621C9.02293 14.5553 9.10874 14.6275 9.21037 14.6678C9.31199 14.7081 9.42395 14.7144 9.52946 14.6857C9.63496 14.6571 9.72833 14.595 9.79557 14.5088C9.86281 14.4226 9.9003 14.3169 9.90241 14.2076L9.94313 7.42042C9.94607 7.35046 9.93463 7.28064 9.90954 7.21527C9.88444 7.1499 9.84621 7.09036 9.79721 7.04034C9.70552 6.9535 9.58414 6.90495 9.45785 6.9046C9.32665 6.90543 9.20092 6.95723 9.1072 7.04905C9.01348 7.14087 8.95912 7.26552 8.9556 7.39667C8.9556 7.94643 8.9556 8.50976 8.9556 9.07309C8.9556 10.1353 8.9556 11.3162 8.9556 12.2359C8.9559 12.2451 8.95303 12.2542 8.94748 12.2616C8.94193 12.269 8.93402 12.2743 8.92506 12.2766C8.91837 12.2821 8.90998 12.2852 8.90131 12.2852C8.89264 12.2852 8.88424 12.2821 8.87755 12.2766C8.47711 11.5979 8.02237 10.8377 7.60836 10.1353L7.269 9.54819C6.98734 9.06291 6.70227 8.57763 6.424 8.10253C6.38488 8.04043 6.33219 7.988 6.26988 7.94921C6.20757 7.91041 6.13728 7.88625 6.06428 7.87856C6.02677 7.86095 5.98666 7.8495 5.94551 7.84462Z" fill="#FF3F44"/>
<path d="M12.0133 12.0968L10.9952 8.36386C10.9217 8.1203 10.8978 7.86446 10.9249 7.61149C10.9521 7.35852 11.0298 7.11357 11.1533 6.89118C11.2769 6.66879 11.4439 6.47349 11.6444 6.31684C11.8449 6.1602 12.0748 6.0454 12.3205 5.97927C12.5661 5.91313 12.8226 5.897 13.0746 5.93183C13.3267 5.96667 13.5691 6.05175 13.7877 6.18204C14.0062 6.31233 14.1963 6.48518 14.3468 6.69033C14.4973 6.89548 14.6051 7.12876 14.6637 7.37633L15.6818 11.0889C15.8011 11.5713 15.7266 12.0813 15.4744 12.5095C15.2222 12.9377 14.8123 13.2501 14.3325 13.3797C13.8527 13.5093 13.3413 13.4458 12.9078 13.2028C12.4742 12.9598 12.1532 12.5567 12.0133 12.0798V12.0968ZM12.0608 8.09916L13.0789 11.8117C13.103 11.9189 13.1486 12.02 13.2129 12.1091C13.2771 12.1982 13.3587 12.2733 13.4528 12.3301C13.5468 12.3868 13.6514 12.4239 13.7602 12.4392C13.8689 12.4545 13.9797 12.4476 14.0857 12.4189C14.1917 12.3903 14.2909 12.3405 14.3772 12.2726C14.4635 12.2047 14.5352 12.12 14.5879 12.0236C14.6406 11.9273 14.6733 11.8212 14.684 11.7119C14.6947 11.6026 14.6832 11.4923 14.6501 11.3875L13.632 7.67496C13.6079 7.56782 13.5623 7.46666 13.4981 7.37758C13.4338 7.28851 13.3522 7.21335 13.2582 7.15662C13.1641 7.0999 13.0595 7.06278 12.9508 7.04751C12.842 7.03224 12.7313 7.03912 12.6252 7.06775C12.5192 7.09638 12.4201 7.14616 12.3337 7.21409C12.2474 7.28203 12.1758 7.36673 12.1231 7.46308C12.0703 7.55943 12.0376 7.66545 12.0269 7.77476C12.0162 7.88407 12.0278 7.99442 12.0608 8.09916Z" fill="#FF3F44"/>
<path d="M13.8425 13.5425C13.4164 13.5421 13.0022 13.4013 12.6642 13.1418C12.3262 12.8823 12.0831 12.5186 11.9727 12.107L10.9546 8.39442C10.8196 7.89716 10.8877 7.36663 11.1438 6.91954C11.4 6.47246 11.8232 6.14545 12.3205 6.01044C12.8178 5.87544 13.3483 5.9435 13.7954 6.19966C14.2425 6.45582 14.5695 6.87908 14.7045 7.37635L15.7056 11.0889C15.8397 11.5839 15.7722 12.1119 15.5177 12.5572C15.2633 13.0024 14.8427 13.3287 14.3482 13.4644C14.184 13.5134 14.0138 13.5397 13.8425 13.5425ZM12.8516 6.02911C12.524 6.0286 12.2021 6.11464 11.9184 6.27852C11.6348 6.4424 11.3995 6.67829 11.2363 6.96234C11.1139 7.17322 11.0347 7.40633 11.0032 7.6481C10.9718 7.88988 10.9887 8.13549 11.053 8.37067L12.0711 12.0832C12.1993 12.5589 12.5113 12.9641 12.9383 13.2098C13.3654 13.4554 13.8725 13.5214 14.3482 13.3931C14.8238 13.2649 15.2291 12.9529 15.4747 12.5259C15.7204 12.0989 15.7863 11.5917 15.6581 11.1161L14.64 7.4035C14.5311 7.01298 14.2972 6.66887 13.9743 6.42375C13.6513 6.17863 13.257 6.04598 12.8516 6.04607V6.02911ZM13.8459 12.4565C13.6578 12.4562 13.4751 12.3938 13.326 12.2791C13.1769 12.1644 13.0698 12.0037 13.0213 11.8219L12.0032 8.10936C11.9443 7.89021 11.9748 7.65661 12.0881 7.45995C12.2013 7.2633 12.3881 7.1197 12.6073 7.06075C12.8264 7.0018 13.06 7.03232 13.2567 7.1456C13.4533 7.25889 13.5969 7.44565 13.6559 7.66481L14.6739 11.3774C14.7077 11.5044 14.7119 11.6374 14.6861 11.7663C14.6603 11.8951 14.6053 12.0164 14.5254 12.1206C14.4454 12.2249 14.3425 12.3094 14.2247 12.3676C14.1069 12.4258 13.9773 12.4563 13.8459 12.4565ZM12.1016 8.089L13.1027 11.8016C13.1432 11.9485 13.2261 12.0803 13.3411 12.1803C13.4562 12.2803 13.5982 12.344 13.7494 12.3636C13.9005 12.3832 14.0541 12.3577 14.1908 12.2903C14.3275 12.2229 14.4413 12.1166 14.5178 11.9848C14.5685 11.8974 14.6011 11.8007 14.6139 11.7005C14.6268 11.6003 14.6195 11.4985 14.5925 11.4011L13.5914 7.68856C13.5651 7.59074 13.5198 7.49906 13.4581 7.41875C13.3963 7.33843 13.3194 7.27107 13.2316 7.22049C13.1439 7.16991 13.047 7.13711 12.9466 7.12397C12.8461 7.11083 12.7441 7.1176 12.6463 7.14389C12.5485 7.17019 12.4568 7.21549 12.3765 7.27722C12.2962 7.33894 12.2288 7.41588 12.1782 7.50364C12.1276 7.59141 12.0948 7.68827 12.0817 7.7887C12.0686 7.88914 12.0753 7.99118 12.1016 8.089Z" fill="#FF3F44"/>
<path d="M17.2359 12.0933L15.5391 5.75754C15.5193 5.68825 15.5134 5.6157 15.5218 5.54411C15.5303 5.47252 15.5529 5.40332 15.5883 5.34057C15.6238 5.27781 15.6714 5.22275 15.7284 5.17858C15.7854 5.13442 15.8506 5.10205 15.9202 5.08335C15.9898 5.06465 16.0624 5.06 16.1339 5.06967C16.2053 5.07934 16.2741 5.10313 16.3362 5.13967C16.3984 5.17621 16.4526 5.22476 16.4958 5.28248C16.539 5.3402 16.5702 5.40594 16.5878 5.47587L18.2845 11.8117C18.3191 11.9498 18.2981 12.096 18.2259 12.2187C18.1537 12.3415 18.0362 12.431 17.8987 12.4679C17.7612 12.5048 17.6146 12.4863 17.4907 12.4162C17.3667 12.3462 17.2752 12.2302 17.2359 12.0933Z" fill="#FF3F44"/>
<path d="M17.7551 12.538C17.6268 12.5382 17.502 12.4956 17.4006 12.4169C17.2992 12.3382 17.2269 12.228 17.1952 12.1036L15.4984 5.7712C15.4576 5.6205 15.4771 5.45983 15.5527 5.32325C15.6334 5.18998 15.7622 5.09278 15.9124 5.05176C15.9866 5.0313 16.0642 5.02581 16.1405 5.0356C16.2169 5.0454 16.2905 5.07028 16.3572 5.10881C16.4238 5.14735 16.4821 5.19875 16.5287 5.26003C16.5753 5.32132 16.6092 5.39126 16.6285 5.46578L18.3253 11.7982C18.3462 11.8726 18.3521 11.9505 18.3426 12.0272C18.333 12.104 18.3083 12.178 18.2697 12.245C18.2311 12.3121 18.1795 12.3707 18.118 12.4175C18.0564 12.4643 17.9861 12.4984 17.9112 12.5176C17.8603 12.531 17.8078 12.5379 17.7551 12.538ZM17.2631 12.0832C17.281 12.1459 17.3112 12.2044 17.3518 12.2554C17.3924 12.3064 17.4427 12.3489 17.4998 12.3804C17.5568 12.4119 17.6195 12.4319 17.6843 12.4391C17.7491 12.4464 17.8147 12.4407 17.8773 12.4226C17.9398 12.405 17.9983 12.3752 18.0492 12.3349C18.1002 12.2946 18.1427 12.2447 18.1742 12.1879C18.2058 12.1311 18.2258 12.0686 18.2331 12.0041C18.2403 11.9395 18.2348 11.8741 18.2167 11.8117L16.5199 5.47596C16.5019 5.41329 16.4718 5.35478 16.4312 5.30379C16.3905 5.2528 16.3403 5.21032 16.2832 5.1788C16.2261 5.14727 16.1634 5.12732 16.0986 5.12007C16.0338 5.11283 15.9683 5.11845 15.9056 5.1366C15.8421 5.15306 15.7823 5.18192 15.7299 5.22152C15.6775 5.26112 15.6334 5.31068 15.6002 5.36736C15.5401 5.48486 15.5279 5.62114 15.5663 5.74744L17.2631 12.0832Z" fill="#FF3F44"/>
<path d="M21.9464 5.48265L22.9204 9.10698C22.9861 9.34786 23.0037 9.59935 22.972 9.84703C22.9404 10.0947 22.8601 10.3337 22.7359 10.5503C22.6117 10.7669 22.4459 10.9568 22.2481 11.1092C22.0503 11.2616 21.8244 11.3735 21.5833 11.4384L20.27 11.7777C20.2002 11.7988 20.127 11.8055 20.0546 11.7974C19.9822 11.7894 19.9122 11.7667 19.8487 11.7309C19.7853 11.6951 19.7298 11.6468 19.6856 11.5889C19.6413 11.5311 19.6092 11.4648 19.5913 11.3942L17.8945 5.14669C17.8729 5.07696 17.8659 5.00356 17.8737 4.931C17.8815 4.85844 17.9041 4.78824 17.94 4.7247C17.9759 4.66115 18.0244 4.60561 18.0825 4.56147C18.1406 4.51733 18.2071 4.48551 18.278 4.46797L19.5879 4.12862C19.8317 4.05951 20.0868 4.03986 20.3383 4.07081C20.5898 4.10177 20.8326 4.18271 21.0523 4.30887C21.2721 4.43503 21.4644 4.60387 21.6179 4.80545C21.7715 5.00703 21.8832 5.23728 21.9464 5.48265ZM19.9103 5.19081L19.123 5.40121L20.5143 10.5934L21.2982 10.383C21.4017 10.3554 21.4986 10.3077 21.5836 10.2426C21.6686 10.1775 21.7399 10.0964 21.7935 10.0037C21.8471 9.91103 21.8819 9.80872 21.8959 9.7026C21.9099 9.59649 21.9028 9.48865 21.8751 9.38526L20.8978 5.75753C20.8695 5.65479 20.8213 5.55862 20.7559 5.47453C20.6904 5.39043 20.609 5.32006 20.5164 5.26743C20.4237 5.2148 20.3216 5.18094 20.2159 5.16779C20.1101 5.15465 20.0028 5.16247 19.9001 5.19081H19.9103Z" fill="#FF3F44"/>
<path d="M20.1239 11.8524C19.9955 11.8526 19.8708 11.81 19.7693 11.7313C19.6679 11.6527 19.5956 11.5424 19.5639 11.418L17.8672 5.17387C17.8466 5.09944 17.8411 5.02169 17.8509 4.94511C17.8606 4.86853 17.8855 4.79464 17.924 4.72773C17.9625 4.66082 18.0139 4.60221 18.0752 4.5553C18.1365 4.50839 18.2065 4.47411 18.2812 4.45444L19.5911 4.11508C20.0861 3.98093 20.6141 4.04848 21.0593 4.30292C21.5046 4.55736 21.8309 4.97795 21.9666 5.47251L22.9439 9.09683C23.0753 9.59173 23.0065 10.1184 22.7525 10.563C22.4984 11.0076 22.0796 11.3343 21.5865 11.4723L20.2766 11.8117C20.2274 11.8312 20.1762 11.8448 20.1239 11.8524ZM20.1239 4.11847C19.96 4.1182 19.7967 4.13989 19.6386 4.18295L18.3253 4.52231C18.1992 4.55937 18.0929 4.64466 18.0293 4.75967C17.9658 4.87467 17.9502 5.0101 17.9859 5.13654L19.6827 11.3841C19.7198 11.5102 19.8051 11.6165 19.9201 11.68C20.0351 11.7436 20.1705 11.7592 20.2969 11.7235L21.6069 11.3841C21.8423 11.3211 22.0631 11.2123 22.2564 11.0639C22.4498 10.9154 22.612 10.7303 22.7336 10.5191C22.8553 10.3079 22.9341 10.0747 22.9656 9.83299C22.997 9.59127 22.9804 9.34572 22.9168 9.11041L21.9021 5.50305C21.7931 5.11253 21.5593 4.76842 21.2364 4.5233C20.9134 4.27818 20.5191 4.14553 20.1137 4.14562L20.1239 4.11847ZM20.5243 10.6443C20.5143 10.644 20.5047 10.6406 20.4968 10.6345C20.4888 10.6284 20.483 10.6199 20.4802 10.6104L19.082 5.41481C19.0794 5.40956 19.078 5.40375 19.078 5.39785C19.078 5.39195 19.0794 5.38613 19.082 5.38088C19.0848 5.37573 19.0887 5.37125 19.0934 5.36774C19.0981 5.36422 19.1035 5.36176 19.1092 5.36052L19.8931 5.15012C20.0018 5.11964 20.1156 5.11145 20.2276 5.12603C20.3395 5.14061 20.4474 5.17766 20.5447 5.23495C20.7416 5.34823 20.8856 5.53494 20.9451 5.75417L21.9225 9.3785C21.9816 9.5981 21.9513 9.83221 21.838 10.0294C21.7248 10.2267 21.5379 10.3709 21.3184 10.4305L20.5311 10.6409L20.5243 10.6443ZM19.1669 5.43178L20.5447 10.5493L21.2913 10.3491C21.3891 10.3229 21.4809 10.2776 21.5613 10.2159C21.6416 10.1541 21.709 10.0772 21.7596 9.98934C21.8108 9.90152 21.8438 9.80427 21.8567 9.7034C21.8695 9.60253 21.8619 9.50011 21.8342 9.40226L20.8603 5.77793C20.8347 5.67946 20.7898 5.58707 20.7282 5.50613C20.6665 5.42518 20.5894 5.35731 20.5013 5.30647C20.4132 5.25562 20.3158 5.22281 20.2149 5.20995C20.114 5.19709 20.0115 5.20444 19.9135 5.23156L19.1669 5.43178Z" fill="#FF3F44"/>
<path d="M25.8454 50.6392C30.366 50.6392 34.0307 46.9745 34.0307 42.4539C34.0307 37.9333 30.366 34.2686 25.8454 34.2686C21.3248 34.2686 17.6602 37.9333 17.6602 42.4539C17.6602 46.9745 21.3248 50.6392 25.8454 50.6392Z" fill="#FF3F44"/>
<path d="M25.8459 52C23.9579 52 22.1122 51.4401 20.5424 50.3912C18.9725 49.3423 17.749 47.8514 17.0265 46.107C16.3039 44.3627 16.1149 42.4433 16.4832 40.5915C16.8516 38.7398 17.7608 37.0388 19.0958 35.7038C20.4308 34.3687 22.1318 33.4596 23.9836 33.0912C25.8353 32.7229 27.7547 32.9119 29.4991 33.6345C31.2434 34.357 32.7343 35.5805 33.7832 37.1504C34.8322 38.7202 35.392 40.5659 35.392 42.4539C35.3902 44.9851 34.3839 47.4122 32.594 49.202C30.8042 50.9919 28.3771 51.9982 25.8459 52ZM25.8459 35.626C24.4947 35.626 23.1738 36.0268 22.0503 36.7776C20.9269 37.5283 20.0513 38.5954 19.5343 39.8439C19.0174 41.0923 18.8823 42.466 19.1462 43.7913C19.41 45.1165 20.061 46.3337 21.0167 47.2889C21.9724 48.2442 23.1899 48.8945 24.5153 49.1577C25.8406 49.4209 27.2143 49.2851 28.4625 48.7676C29.7107 48.25 30.7773 47.3739 31.5275 46.2501C32.2778 45.1262 32.6778 43.8051 32.6772 42.4539C32.6754 40.643 31.955 38.9068 30.6742 37.6267C29.3933 36.3465 27.6568 35.6269 25.8459 35.626Z" fill="white"/>
<path d="M25.8454 50.6392C30.366 50.6392 34.0307 46.9745 34.0307 42.4539C34.0307 37.9333 30.366 34.2686 25.8454 34.2686C21.3248 34.2686 17.6602 37.9333 17.6602 42.4539C17.6602 46.9745 21.3248 50.6392 25.8454 50.6392Z" fill="#FF3F44"/>
<path d="M27.495 42.1858L29.6262 40.058C29.8155 39.8512 29.9179 39.5793 29.9118 39.299C29.9058 39.0187 29.7919 38.7514 29.5939 38.553C29.3958 38.3545 29.1289 38.24 28.8485 38.2334C28.5682 38.2267 28.2961 38.3284 28.0889 38.5173L25.9577 40.6485L23.8232 38.5309C23.616 38.342 23.3439 38.2403 23.0636 38.2469C22.7832 38.2536 22.5163 38.368 22.3182 38.5665C22.1202 38.765 22.0063 39.0322 22.0003 39.3126C21.9942 39.5929 22.0965 39.8648 22.2859 40.0716L24.4171 42.1993L22.2859 44.3305C22.0965 44.5373 21.9942 44.8092 22.0003 45.0895C22.0063 45.3698 22.1202 45.6371 22.3182 45.8356C22.5163 46.0341 22.7832 46.1485 23.0636 46.1552C23.3439 46.1618 23.616 46.0601 23.8232 45.8712L25.9543 43.74L28.0855 45.8712C28.1863 45.9716 28.306 46.0512 28.4376 46.1053C28.5692 46.1595 28.7102 46.1872 28.8525 46.1868C29.068 46.1878 29.2789 46.1246 29.4584 46.0054C29.6379 45.8861 29.7778 45.7161 29.8604 45.5171C29.943 45.3181 29.9645 45.0989 29.9222 44.8876C29.8799 44.6763 29.7757 44.4824 29.6228 44.3305L27.495 42.1858Z" fill="white"/>
</svg>
